<?xml version="1.0" encoding="UTF-8" standalone="no"?><svg xmlns="http://www.w3.org/2000/svg" xmlns:xlink="http://www.w3.org/1999/xlink" contentScriptType="text/ecmascript" fill="#000000" width="1231" zoomAndPan="magnify" contentStyleType="text/css" viewBox="408.6 256.1 1230.7 1535.8" height="1536" preserveAspectRatio="xMidYMid meet" version="1"><g><g><g><g id="change1_3"><path fill="#ffffff" d="M1024,855.092c-102.017,0-204.318-10.764-304.063-31.994 c-100.826-21.459-199.672-53.752-293.792-95.981c-12.093-5.426-17.498-19.628-12.072-31.722s19.629-17.497,31.722-12.072 c367.458,164.869,788.953,164.869,1156.412,0c12.095-5.424,26.296-0.021,31.721,12.072c5.427,12.094,0.021,26.296-12.072,31.722 c-94.119,42.229-192.965,74.522-293.791,95.981C1228.318,844.328,1126.017,855.092,1024,855.092z"/></g><g id="change1_2"><path fill="#ffffff" d="M1612.017,1366.786c-3.284,0-6.621-0.678-9.811-2.109 c-367.459-164.867-788.954-164.867-1156.412,0c-12.092,5.428-26.295,0.021-31.722-12.072 c-5.426-12.093-0.021-26.295,12.072-31.722c94.12-42.229,192.965-74.521,293.792-95.98 c99.745-21.229,202.047-31.994,304.063-31.994s204.318,10.765,304.063,31.994c100.826,21.46,199.672,53.752,293.791,95.98 c12.094,5.427,17.499,19.629,12.072,31.722C1629.933,1361.508,1621.182,1366.786,1612.017,1366.786z"/></g></g><g id="change1_1"><path fill="#ffffff" d="M1612.03,1071.745c-4.449,0-8.855-0.065-13.098-0.194c-13.249-0.404-23.662-11.472-23.259-24.72 c0.403-13.249,11.452-23.688,24.72-23.258c3.758,0.114,7.673,0.172,11.637,0.172c13.255,0,24,10.745,24,24 S1625.285,1071.745,1612.03,1071.745z M1141.614,1071.745c-0.959,0-1.911-0.003-2.854-0.009 c-13.255-0.088-23.93-10.903-23.842-24.157c0.086-13.201,10.815-23.843,23.995-23.843c0.055,0,0.107,0,0.162,0 c3.863,0.025,7.859-0.007,11.667-0.097c13.213-0.309,24.243,10.182,24.553,23.434c0.31,13.251-10.182,24.244-23.434,24.553 C1148.51,1071.705,1145.062,1071.745,1141.614,1071.745z M678.182,1071.688c-13.069,0-23.77-10.483-23.989-23.601 c-0.221-13.253,10.344-24.175,23.597-24.396c3.94-0.066,7.833-0.193,11.57-0.379c13.247-0.649,24.504,9.541,25.162,22.778 c0.659,13.239-9.54,24.505-22.778,25.163c-4.262,0.212-8.688,0.356-13.154,0.432 C678.454,1071.688,678.317,1071.688,678.182,1071.688z M596.465,1063.084c-2.038,0-4.107-0.261-6.17-0.809 c-4.348-1.153-8.611-2.403-13.035-3.822c-12.622-4.047-19.572-17.561-15.525-30.182c4.047-12.623,17.559-19.574,30.182-15.525 c3.639,1.167,7.135,2.192,10.687,3.135c12.812,3.399,20.442,16.54,17.042,29.352 C616.795,1055.981,607.084,1063.084,596.465,1063.084z M1057.581,1060.411c-2.35,0-4.737-0.348-7.1-1.078 c-4.149-1.284-8.314-2.678-12.732-4.263c-12.477-4.474-18.964-18.216-14.49-30.692c4.474-12.478,18.217-18.963,30.693-14.49 c3.743,1.342,7.247,2.516,10.713,3.588c12.663,3.917,19.753,17.357,15.837,30.02 C1077.315,1053.797,1067.826,1060.411,1057.581,1060.411z M1232.305,1058.255c-10.008,0-19.345-6.309-22.73-16.314 c-4.249-12.555,2.485-26.178,15.041-30.426c3.373-1.141,6.901-2.415,10.786-3.894c12.387-4.716,26.252,1.505,30.967,13.893 c4.716,12.388-1.505,26.252-13.893,30.967c-4.449,1.694-8.53,3.166-12.476,4.501 C1237.451,1057.845,1234.855,1058.255,1232.305,1058.255z M1518.805,1057.385c-2.625,0-5.294-0.435-7.912-1.349 c-3.858-1.347-7.9-2.841-12.356-4.567c-12.359-4.788-18.497-18.689-13.708-31.049c4.789-12.359,18.687-18.5,31.05-13.708 c3.947,1.53,7.492,2.841,10.837,4.008c12.514,4.37,19.117,18.056,14.747,30.57 C1538.007,1051.185,1528.725,1057.385,1518.805,1057.385z M771,1055.007c-9.734,0-18.891-5.966-22.491-15.622 c-4.63-12.42,1.684-26.242,14.104-30.873c3.234-1.206,6.628-2.523,11.006-4.273c12.306-4.919,26.273,1.071,31.192,13.38 s-1.071,26.273-13.38,31.192c-4.737,1.894-8.453,3.335-12.05,4.677C776.617,1054.518,773.785,1055.007,771,1055.007z M507.011,1031.973c-1.912,0-3.854-0.229-5.792-0.71c-3.552-0.881-7.198-1.683-10.838-2.384 c-13.016-2.508-21.534-15.091-19.026-28.107c2.507-13.016,15.09-21.539,28.107-19.026c4.463,0.859,8.939,1.844,13.304,2.926 c12.865,3.189,20.71,16.204,17.521,29.069C527.58,1024.667,517.784,1031.973,507.011,1031.973z M968,1029.837 c-1.593,0-3.208-0.159-4.83-0.491c-3.571-0.729-7.266-1.387-10.982-1.953c-13.104-1.999-22.106-14.241-20.107-27.344 c1.998-13.104,14.235-22.109,27.344-20.107c4.507,0.688,9,1.487,13.355,2.377c12.986,2.654,21.363,15.333,18.709,28.319 C989.167,1022.002,979.165,1029.837,968,1029.837z M1322.098,1028.536c-11.448,0-21.583-8.219-23.615-19.884 c-2.275-13.058,6.466-25.488,19.523-27.764c4.351-0.758,8.844-1.43,13.354-1.997c13.157-1.654,25.152,7.669,26.805,20.821 c1.653,13.151-7.669,25.152-20.82,26.805c-3.759,0.473-7.492,1.03-11.098,1.659 C1324.853,1028.418,1323.465,1028.536,1322.098,1028.536z M1428.905,1028.089c-1.285,0-2.588-0.104-3.898-0.317 c-3.61-0.59-7.355-1.11-11.131-1.547c-13.167-1.523-22.606-13.432-21.083-26.599c1.522-13.167,13.426-22.601,26.599-21.083 c4.516,0.522,9.009,1.147,13.354,1.857c13.082,2.137,21.954,14.474,19.816,27.556 C1450.64,1019.726,1440.457,1028.089,1428.905,1028.089z M861.233,1027.055c-11.822,0-22.118-8.736-23.752-20.776 c-1.782-13.134,7.421-25.227,20.556-27.009c4.332-0.588,8.815-1.095,13.323-1.507c13.198-1.207,24.88,8.513,26.087,21.712 c1.208,13.2-8.513,24.879-21.712,26.087c-3.817,0.35-7.601,0.777-11.245,1.271 C863.396,1026.982,862.308,1027.055,861.233,1027.055z"/></g></g><g><g><g id="change1_7"><path fill="#ffffff" d="M1024,709.365c-13.255,0-24-10.745-24-24V280.083c0-13.255,10.745-24,24-24s24,10.745,24,24 v405.281C1048,698.62,1037.255,709.365,1024,709.365z"/></g><g id="change1_4"><path fill="#ffffff" d="M1024,709.365c-5.841,0-11.682-2.122-16.279-6.365l-147.05-135.744 c-9.739-8.991-10.346-24.174-1.355-33.914c8.99-9.74,24.173-10.346,33.914-1.355L1024,652.702l130.771-120.716 c9.741-8.991,24.925-8.383,33.914,1.355c8.991,9.74,8.384,24.923-1.355,33.914L1040.279,703 C1035.683,707.243,1029.841,709.365,1024,709.365z"/></g></g><g><g id="change1_6"><path fill="#ffffff" d="M1024,1791.917c-13.255,0-24-10.745-24-24v-405.282c0-13.255,10.745-24,24-24s24,10.745,24,24 v405.282C1048,1781.172,1037.255,1791.917,1024,1791.917z"/></g><g id="change1_5"><path fill="#ffffff" d="M1171.044,1522.379c-5.822,0-11.658-2.104-16.273-6.365L1024,1395.297l-130.771,120.717 c-9.739,8.991-24.924,8.385-33.914-1.355c-8.991-9.739-8.384-24.924,1.355-33.914L1007.721,1345 c9.194-8.485,23.364-8.487,32.559,0l147.05,135.744c9.739,8.99,10.347,24.175,1.355,33.914 C1183.954,1519.782,1177.508,1522.379,1171.044,1522.379z"/></g></g></g></g></svg>