<?xml version="1.0" encoding="UTF-8" standalone="no"?><svg xmlns="http://www.w3.org/2000/svg" xmlns:xlink="http://www.w3.org/1999/xlink" contentScriptType="text/ecmascript" fill="#ffffff" width="2299" zoomAndPan="magnify" contentStyleType="text/css" viewBox="268.0 238.6 2298.8 2523.6" height="2524" preserveAspectRatio="xMidYMid meet" version="1"><g id="change1_1"><path d="M348.8,2450.7c-2.3-5.3-5.3-10.3-8-15.4l-3.9-4c-5.6-1.9-11.2-3.8-16.7-5.8c-12.1-4.4-23.1-1.3-33.8,4.8 c-7.8,4.4-15,13.6-18.4,24.1v25.5c0.1,0.2,0.2,0.4,0.2,0.6c2,4.9,3.7,9.9,5.6,14.8c1.3,1.3,2.6,2.6,3.9,4c1.3,1.3,2.6,2.6,3.8,3.9 c6.1,2,12.2,4,18.3,5.9c6.3,2,12.6,1.9,18.9-0.1c6.1-1.9,12.2-3.9,18.3-5.9c1.3-1.3,2.5-2.5,3.8-3.8l0.1-0.1 c1.3-1.3,2.5-2.6,3.8-3.9c1.7-4.9,3.4-9.7,5.2-14.5C353.9,2470.6,353.2,2460.5,348.8,2450.7z"/><path d="M344.7,2495.5c4.3-1.7,8.5-3.4,12.7-5.2c9.6-4.2,19.1-3.3,28.7,0.1c20.9,7.5,28.1,25.1,28.1,39.3 c0.1,20.9-11.7,35.1-28.5,41.1c-10.1,3.5-20.7,3.3-30.8-0.8c-4.9-2-9.5-4.4-14.3-6.6l0.3,0.2c-1.4-1.4-2.8-2.9-4.2-4.3l0.2,0.2 c-2.1-5.5-4.2-11-6.1-16.6c-2.8-7.7-2.9-15.5-0.3-23.2c1.9-5.6,4.3-11,6.5-16.5c0,0-0.3,0.3-0.3,0.3c1.3-1.4,2.7-2.7,4-4.1l0.1-0.1 c1.3-1.4,2.7-2.7,4-4.1L344.7,2495.5z"/><path d="M350.4,2585.1c-1.9-7.9-6-14.7-9.7-21.7l0.3,0.2c-1.3-1.3-2.7-2.7-4-4c-5.4-2.1-10.8-4.2-16.2-6.3 c-8.2-3.2-16.5-3.1-24.4,0.5c-6.4,2.9-12.4,6.4-18.6,9.7c-2.5,4.6-5.3,9.1-7.6,13.8c-0.9,1.9-1.7,3.8-2.2,5.7v22.1 c0.5,1.7,1,3.3,1.7,5c5.4,13.4,20.7,28,42.2,26.5c17-1.1,32.7-13.3,37.9-30C352,2599.5,352.2,2592.4,350.4,2585.1z"/><path d="M434.3,2425.9c19.4-0.9,37,13.2,40.8,33.3c3.8,20-6.6,39.5-25.4,46.6c-29.8,11.2-56.1-11.6-57.2-36.8 c-1.1-23.5,16.9-41.2,35.9-42.8C430.4,2426,432.3,2426,434.3,2425.9"/><path d="M337,2431.4c-2-6.3-4-12.7-6-19c-5.4-17.3,6.2-44.1,32-49.5c11.2-2.4,22.3-0.9,32.1,6c14.3,10.2,20.1,24.4,17.4,41.8 c-2.4,15.8-11.7,26.8-26.5,32c-10.1,3.6-20.7,3.4-30.9-0.7c-4.9-2-9.5-4.5-14.3-6.7l0.2,0.2c-1.4-1.4-2.8-2.8-4.2-4.2L337,2431.4z"/><path d="M475.6,2594.7c-1.3,27-21.7,42.1-42.2,41.2c-25-1.1-41-20.5-40.7-42.9c0.2-21.8,19.7-40.3,41.3-40.3 C456.8,2552.7,476,2572.1,475.6,2594.7"/><path d="M372.1,2616.1c27.2,1.4,41.3,24.6,40.6,42.8c-0.9,21.6-19.1,40.1-40.8,40.8c-21.6,0.7-42-19.6-41.4-42 C331.1,2633.9,347.1,2617.8,372.1,2616.1"/><path d="M349.7,2340.2c0.4,21.2-17.8,41.1-41.9,40.5c-19.9-0.5-39.6-17.7-39.1-41.3c0.5-22.3,17.9-40.4,40-40.8 C331.1,2298.1,349.9,2317.1,349.7,2340.2"/><path d="M496.5,2490.2c19.4-1.1,40.6,14.2,41,39.5c0.3,25.2-19,42.1-41.1,41.8c-23.1-0.4-40-18.5-40.2-40.8 C456,2508.5,474.3,2490.6,496.5,2490.2"/><path d="M497.1,2362.9c23.4,1.6,40.2,19.1,40,41.2c-0.1,21.8-19.9,40.4-41.3,39.9c-16.4-0.4-38.7-14.7-38.7-40.1 C457.1,2384,471.4,2364.2,497.1,2362.9"/><path d="M394.8,2340.2c-0.2-22.4,17.7-41.7,39.3-40.9c22.4,0.8,39.9,16.8,40.4,40.3c0.5,24.2-18.8,40.1-39.7,40.6 C412.6,2380.7,395,2362.9,394.8,2340.2"/><path d="M309.4,2761.1c-23.5,1.1-40.4-19.5-40.5-39.6c-0.1-18.7,15.4-40.7,40-40.6c22.1,0.1,40.2,18.3,40.5,40.1 C349.6,2741.8,332.3,2762,309.4,2761.1"/><path d="M371.8,2236.9c21.2-0.1,39.7,16.5,39.6,40.6c-0.1,21-18.6,38.5-39.9,38.6c-21.2,0.1-38.8-17.3-39.5-38.7 C331.6,2259.7,346.1,2236.5,371.8,2236.9"/><path d="M435,2760.8c-20.8,1.4-44.5-18.1-39.3-47.9c2.5-14.4,17.9-30.6,34.3-30.6c5.2,0,10.6-0.1,15.6,1.1 c16.1,3.8,29.6,21.4,28.7,38.3C473,2747.8,452,2761.6,435,2760.8"/><path d="M497.3,2618.4c20-0.9,39,16.6,39.2,38.8c0.2,22.4-16.2,39.9-39.7,40.1c-22.2,0.1-38.7-18.6-39.1-38.6 C457.2,2633.8,479.1,2617.2,497.3,2618.4"/><path d="M598.4,2466.8c0.5,23.8-17.4,38.9-38,40.3c-20.4,1.4-39.4-17.5-40-38.6c-0.6-19.2,12.9-41,39.3-41 C585.7,2427.5,598.7,2448.4,598.4,2466.8"/><path d="M598.3,2593.8c1,20.7-16.7,39.4-38.5,39.4c-23.4,0-39.1-17.6-39-38.6c0.2-21.9,16.9-39.7,38.2-40 C580.3,2554.4,598,2572,598.3,2593.8"/><path d="M309.6,2174c21.4,0.2,39.7,18.7,38.4,39.8c-1.6,25-20.5,37.4-38.4,38c-20.9,0.7-40-18.2-39.5-39 C270.7,2193.9,285,2173.6,309.6,2174"/><path d="M560.1,2301.8c22.5-1,37.9,20.4,37.9,37.9c0.1,21.3-18.3,40.5-39,39.3c-19.1-1.1-38.2-15.3-37.8-40.6 C521.4,2320.7,537.2,2300.5,560.1,2301.8"/><path d="M496.2,2238c19.4-1,38.7,16.5,39,36.9c0.3,18.8-12,39.7-37.8,40.3c-25.6,0.5-39.3-20.4-39-38.9 C458.7,2255.4,475.6,2238.2,496.2,2238"/><path d="M560,2759.9c-20.4,0.3-38-16.9-38.4-37.6c-0.4-20.7,16.1-38.5,36.6-39.4c21-0.9,39.5,17.2,39.5,38.5 C597.7,2741.8,580.2,2759.6,560,2759.9"/><path d="M620.9,2568.7c-18,0.9-37.5-16.2-36.7-38.8c0.7-20.9,18.5-39.2,38.2-37.8c25.3,1.8,38.3,19.7,37.9,40.4 C660,2552.6,641.8,2569.9,620.9,2568.7"/><path d="M434.2,2174.3c20.5,0.1,37.5,17.4,37.8,38.2c0.4,20.6-16.4,38.9-37,38.9c-20.6-0.1-38.3-15.1-39-39.3 C395.4,2191.9,413.8,2174.2,434.2,2174.3"/><path d="M621.2,2441.3c-21.2-0.3-36.6-16.5-36.9-38.1c-0.3-19.4,16.9-37.7,37.7-37.5c20.5,0.2,37.7,16.9,38.4,37.2 C660.9,2418.7,647.1,2442.3,621.2,2441.3"/><path d="M660.1,2658.1c-1.7,23.1-18.2,37.4-38.3,37.9c-19.7,0.4-37.4-17-37.3-38.4c0.2-20.8,17.4-38.8,37.9-37.9 C644.3,2620.6,658.9,2636.4,660.1,2658.1"/><path d="M408.8,2148.4c0.7,20.4-15.9,39.1-36.8,38.7c-20.9-0.4-37.3-14.3-37.7-37.8c-0.4-20.5,16.1-37.4,37.9-37.8 C392,2111.1,408.4,2128.3,408.8,2148.4"/><path d="M721.5,2595.7c-0.1,19.4-18.4,36.4-37.4,36c-21.3-0.4-37.1-19.1-36.4-39c0.7-20.3,16.8-35.4,37.4-35.4 C706,2557.3,722.4,2574.6,721.5,2595.7"/><path d="M558.9,2250.1c-19.9-0.6-37-17.3-36.5-36.9c0.7-22.3,16.7-38.2,37.7-37.6c24.4,0.7,37,19.9,36.5,38.8 C596.2,2231.4,581.3,2249.8,558.9,2250.1"/><path d="M721.6,2466.6c0.4,20.4-15.3,37.2-35.3,37.8c-20.7,0.6-38.4-16.2-38.6-36.7c-0.2-20.4,15.5-36.8,35.5-37.6 C704,2429.2,721,2445.1,721.6,2466.6"/><path d="M621.9,2312.7c-20.9-0.2-36.3-15.3-36.8-36.2c-0.5-20.1,18.2-39,38.2-37.4c20.8,1.7,35.3,15.4,35.6,37.9 C659.2,2295.6,643.4,2313.9,621.9,2312.7"/><path d="M533.9,2149.3c-0.9,11.2-4.8,21.7-14.4,28.8c-26.4,19.4-55.2,0.3-59.2-24.1c-2.5-15.6,9-34.3,24.2-39.3 c22.1-7.3,44.8,6.6,48.8,29.9C533.6,2145.9,533.7,2147.3,533.9,2149.3"/><path d="M309.3,2049.7c20.7,0.1,36.6,16.3,36.1,36.7c-0.6,19.4-16.3,35.4-35.5,36c-19.5,0.7-36.6-16.3-36.9-36.5 C272.6,2065.2,289.2,2048.8,309.3,2049.7"/><path d="M720.7,2339.7c0,21-15.1,36.1-35.8,36.7c-20.1,0.6-36.5-17.8-36.7-36.4c-0.2-18.3,14.8-36.6,36.2-37 C701,2302.7,721.3,2317.6,720.7,2339.7"/><path d="M748.3,2494.5c18.9,0.2,35.2,16.9,35,36c-0.1,20.2-17.4,37.4-36.8,36.6c-19.1-0.7-35.3-17.4-35.3-36.2 C711.3,2511.1,728.4,2494.3,748.3,2494.5"/><path d="M685.2,2757c-20.1,1-35.4-15.1-36.6-34.2c-1.3-19.9,15.5-37.3,35.7-37.4c20.8-0.1,36.4,15.6,36.3,36.4 C720.5,2740.9,705.2,2757.6,685.2,2757"/><path d="M398.8,2085.6c0.2-21,15.9-36.2,36.6-35.8c17.7,0.3,35.8,16,35,36c-1,23.5-17.4,36.2-37.1,35.9 C412.8,2121.5,398,2104.2,398.8,2085.6"/><path d="M783.1,2402.6c0.2,20-16.2,36.9-35.9,37.1c-18.4,0.3-35.1-16.5-35.8-35.3c-0.7-19.2,16.1-36.9,36-37.1 C766.3,2367.2,782.3,2383.4,783.1,2402.6"/><path d="M746.5,2692.7c-20.4,0.5-32.9-15.2-34.8-33.3c-0.1-1.3-0.1-2.7,0-4c1.9-18.2,17.5-32.6,33.7-33.1c20.2-0.6,33.4,12.5,37,29 c4.3,19.6-10.3,39.5-30,41.4C750.5,2692.9,748.5,2692.7,746.5,2692.7"/><path d="M683.6,2177.9c19.1-1.1,35.6,13.5,36.4,33.8c0.8,19.4-14.8,36-34.1,36.5c-19.1,0.4-36.2-15.2-36.9-34.1 C648.4,2197,663.8,2177.3,683.6,2177.9"/><path d="M371.8,2057c-19.7-0.1-35.8-15.9-35.2-35c0.6-22,18.9-35.3,35.3-35.6c18.5-0.3,34.9,16.4,35.2,35.6 C407.4,2041.1,391.2,2057.2,371.8,2057"/><path d="M621.1,2184.2c-17.6,0.8-34.8-15.8-34.3-36c0.5-19.2,17-34.6,36.4-34.2c19.6,0.4,34.4,16.3,34,36.2 C656.8,2169,641.2,2185.2,621.1,2184.2"/><path d="M810.3,2501.8c-19.5,0.2-35.8-15.7-35.6-34.8c0.2-19,17.1-35.6,35.7-35.2c18,0.4,33.7,15.9,34.6,34.3 C845.9,2484.8,829.6,2501.6,810.3,2501.8"/><path d="M558.5,2120.3c-18,0.9-33.8-15.5-33.7-34.2c0.2-21.4,16.6-35.9,34.7-35.9c19.2,0,34.9,15.2,34.8,35.7 C594.2,2103.7,579.8,2121.3,558.5,2120.3"/><path d="M748,2241.9c19.7,0.2,35.2,16.3,34.6,35.8c-0.6,17.8-17,33.9-34.9,34.2c-18.5,0.3-36.3-17.2-35.6-35.4 C712.9,2256.3,728.8,2240.8,748,2241.9"/><path d="M808.5,2628.7c-15.9,0.1-33-13.3-33.5-35c-0.4-18.4,18.1-35.8,36.3-34.6c17.9,1.2,34.2,15.5,33.3,37.4 C844.1,2612.4,829,2630.1,808.5,2628.7"/><path d="M810.8,2756c-17.9,0.6-34.5-15.3-35-33.7c-0.5-18.3,15.1-34.8,33.4-35.3c18.1-0.5,34.4,15.2,34.9,33.7 C844.7,2739,829.2,2755.4,810.8,2756"/><path d="M810.9,2306c16.7-0.7,33.8,14.6,33.3,34.7c-0.5,21.6-17.8,33.7-34.4,34c-19.1,0.3-35.5-17.2-34.3-36.1 C776.7,2319.5,792.5,2304.8,810.9,2306"/><path d="M496.7,2056.1c-18.8,0.6-33.8-15.2-34.3-33.8c-0.4-17.5,14.5-34.4,33.6-35.2c17.7-0.7,35.7,15.5,35.2,35.4 C530.7,2040.2,516.4,2056.8,496.7,2056.1"/><path d="M309.2,1992.1c-23,0.6-34.1-18.3-34.5-33.2c-0.4-18.5,15.1-33.9,33.9-34.2c19.3-0.3,33.7,14,34.3,33.4 C343.4,1975.3,328,1993.2,309.2,1992.1"/><path d="M781.2,2149.9c-0.5,18.5-16.9,34.4-34.8,33.5c-18.3-0.9-32.9-16-32.1-35.8c0.8-18.1,14.1-32.5,33.4-32.2 C766.9,2115.7,781.1,2130.2,781.2,2149.9"/><path d="M684.6,2119.7c-14.8,0.2-33.5-12-33.2-34.8c0.4-22.3,17.7-32.6,32.6-33.3c18.1-0.9,34.2,14.7,34.6,33.7 C719,2104,702.4,2119.5,684.6,2119.7"/><path d="M905.7,2657c0.3,17.9-11.6,33.6-33.3,34.7c-17,0.8-32.9-15.2-33.2-33c-0.3-18.7,12.9-33.7,33.5-34.6 C890.4,2623.3,905.4,2638.8,905.7,2657"/><path d="M871.8,2564.4c-16.6,0.4-33-15.4-33.1-32.9c-0.1-21.5,16.1-34.7,35.4-34.3c17.9,0.4,32,16.8,32,33.8 C906,2552.5,886.7,2565.3,871.8,2564.4"/><path d="M432.8,1925.4c20.5-0.2,35.2,14.7,34.9,33.8c-0.3,18-14.6,32.3-32.7,32.8c-22.9,0.7-34.8-18.6-34.7-35.1 c0.1-14.5,12.1-28.3,26.1-30.8C429,1925.6,431.6,1925.5,432.8,1925.4"/><path d="M777,2211.9c0.2-18,15.4-33.8,32.7-32.9c21.7,1.1,33.6,16.8,33.2,34.6c-0.3,18.1-15.1,33.5-32.8,33 C787.9,2245.8,776.5,2228.9,777,2211.9"/><path d="M871.9,2436.6c-20.8,0.2-32.9-16.8-33-32.7c-0.2-20,16.9-34.5,34.2-33.8c19.1,0.7,33.3,15.7,32.8,35 C905.5,2420.7,891.6,2437.9,871.9,2436.6"/><path d="M559.1,1991.7c-18.1-0.2-33.1-15-32.9-33c0.2-20.2,17-33.9,34.6-33.2c15,0.6,32.2,11.5,31.7,33.8 C592.2,1975.8,579.7,1991.9,559.1,1991.7"/><path d="M622.9,1989.1c16.1-0.1,32,11.7,32.7,32.8c0.5,17.8-16.4,34.6-34.3,33.8c-18-0.8-32.6-15.5-32.6-33.3 C588.8,2003.5,603.8,1988.8,622.9,1989.1"/><path d="M873.2,2308.6c-19.4,0.8-32.7-13.7-32.8-31.8c-0.1-18.3,14.2-33.7,31.6-33.7c17.7,0,33,15.1,33.3,32.5 C905.6,2289.8,894.1,2309.2,873.2,2308.6"/><path d="M372.8,1862c17.7,0.6,32.3,16.3,31.6,34c-0.7,17.9-15.6,31.9-33.7,31.9c-14.8,0-32.1-13.7-31.3-33.9 C340.2,1875.9,355.1,1861.4,372.8,1862"/><path d="M935.8,2499.9c-13.9,0.3-33-11.7-32.9-32.8c0.1-17.1,14.2-32.1,30.9-32.7c18.1-0.6,33.8,13.9,34.1,31.4 C968.2,2483.5,952.8,2499.8,935.8,2499.9"/><path d="M902.9,2595.9c-0.4-19.1,12.8-33,31.3-33.7c18-0.6,33.6,13.4,33.5,31.6c0,19.5-16.3,33.7-32.6,33.1 C915.1,2626.2,903.2,2611.3,902.9,2595.9"/><path d="M496.5,1927.6c-13.9-1-23.5-8.1-29.3-20.3c-5.3-11.2-2.9-22,4.2-31.7c7.8-10.7,21.6-15.6,32.8-12.2 c14,4.3,24.2,16.2,25.2,29.7c0.4,5.4-1,10.6-3.4,15.3C519.9,1920.8,509.7,1926.9,496.5,1927.6"/><path d="M934.7,2372.2c-15.2,0.3-31.2-13.7-31.1-32c0.1-18.2,15.1-33.8,32.3-32.9c16.7,0.9,31.7,16.2,31.6,32.3 C967.4,2357.8,952.8,2372.3,934.7,2372.2"/><path d="M716.4,1957.7c0.2,20.5-16.4,34-31.9,33.1c-20.6-1.1-31.8-16.7-31.9-33.6c-0.1-16.7,15.4-31.2,32.2-31 C701.9,1926.4,716.3,1940.8,716.4,1957.7"/><path d="M715.2,2023.2c-0.5-17.9,14.4-33.2,32.2-33.2c17,0,31.5,14.1,32,31.4c0.4,15.6-10,32.3-32,33.2 C730.5,2055.1,715.6,2040,715.2,2023.2"/><path d="M341.1,1831.8c-0.5,17.2-15,31.6-31.9,31.6c-17.7,0-32.7-15.6-31.9-33.5c0.7-17,16.2-31.5,32.7-30.7 C326.8,1799.9,341.5,1815.4,341.1,1831.8"/><path d="M935.9,2689.9c19.7-0.4,31.7,17.2,31.5,31.6c-0.2,18.4-15.8,32.3-33.8,31.4c-17.9-0.8-30.3-14.2-30-32.6 C904,2704.1,916.8,2689.1,935.9,2689.9"/><path d="M809,2053.8c18.3-0.2,33.1,14.3,33.1,32.4c0,16.4-15.2,31.4-32.2,31.5c-14.6,0.1-31.4-10.7-31.7-31.5 C777.9,2068.7,792,2054,809,2053.8"/><path d="M873.7,2180.4c-20.2,0.9-32.7-14.1-32.8-31.5c-0.1-16.1,14.5-31.5,31.6-31.3c14.4,0.2,31.2,10.9,32.1,31 C905.2,2163.1,892.8,2180.8,873.7,2180.4"/><path d="M465.8,1831.4c0.3,16.6-15,32-31.4,31.8c-17.1-0.2-31.3-14.7-31.3-31.7c0-16.2,11.7-31.5,31.2-31.6 C453.5,1799.9,465.1,1814.9,465.8,1831.4"/><path d="M653.2,1895.2c-0.4,19.9-16.9,31.8-31.5,31.6c-16.4-0.2-31.8-16-31.4-32.2c0.4-17,15-31.6,31.9-31.5 C639.8,1863.3,653.4,1877.9,653.2,1895.2"/><path d="M996.8,2562.3c-17.4-0.7-30.2-14.8-29.9-32.7c0.3-17,15.6-31.6,32.1-30.6c13.8,0.8,30.6,12.8,30.2,33 C1028.8,2547.6,1015.9,2562.3,996.8,2562.3"/><path d="M1028.4,2403.4c0.6,21.3-18.1,32.2-31,31.9c-13.8-0.3-30.9-11.8-30.5-32.5c0.3-14.8,10.6-29.8,30.2-30.5 C1014.4,2371.7,1028.9,2385.1,1028.4,2403.4"/><path d="M966.6,2213.3c-1.1,18.5-15.4,31.2-32.3,30.8c-17-0.4-30.7-15.3-30.3-32.6c0.4-14.2,13.8-30.1,31.2-29.7 C953.1,2182.3,966.9,2195.9,966.6,2213.3"/><path d="M997.2,2626.6c17.4-0.2,31.1,13.5,31.2,31.1c0,17.3-12.2,30.3-29.1,30.9c-18.1,0.7-31.6-11.8-32.2-29.7 C966.5,2641.7,980.3,2626.9,997.2,2626.6"/><path d="M529.1,1829.2c0.8-15.1,13.3-30,33.7-28.3c16.5,1.4,28.2,15.4,27.3,32.8c-0.9,16-16.3,30-31.8,29 C541,1861.6,528,1846.6,529.1,1829.2"/><path d="M1028.2,2276.7c0.1,19.8-17.2,30.4-29.7,30.8c-16.5,0.6-31.5-14.5-31.2-31.4c0.3-17.2,12.7-29.9,29.8-30.2 C1015.1,2245.7,1028.2,2258.6,1028.2,2276.7"/><path d="M402.1,1767.9c-0.4,17.5-15.4,31.9-32.1,30.9c-16.2-1-30.1-16.2-29-32c1.1-15.8,14.1-30.1,31.3-29.4 C389.4,1738.1,402.5,1751.2,402.1,1767.9"/><path d="M902.8,2019.8c0.1,19.6-12.4,29-22.6,31.4c-16,3.9-30.3-3.8-36.2-19.2c-4.7-12.3-0.9-25.6,9.5-33.6 c4.8-3.7,10.2-5.7,16-6.9c5.4-1.1,10.4,0.5,15.1,2.8C896.3,2000,902.6,2009.3,902.8,2019.8"/><path d="M965,2086c-0.2,17.3-13,29.9-30.2,30c-16.7,0.1-29.8-14.7-30-30.7c-0.2-16,14.9-30.9,30.5-30.3 C949,2055.5,965.5,2066.7,965,2086"/><path d="M809.9,1988.2c-20.1,0.7-30.7-17.6-30.5-30c0.3-16.1,15.4-30.9,30.8-30.3c16.5,0.6,30.6,14.7,30.6,30.7 C840.8,1971.5,829.5,1989.1,809.9,1988.2"/><path d="M1060.3,2496.7c-17.9,0.4-30.2-14.2-29.9-30c0.3-16.8,13.7-30.7,30.3-30c19.6,0.8,30.1,16,30,30.5 C1090.6,2482.8,1078.7,2497.2,1060.3,2496.7"/><path d="M1090.6,2595.3c-0.3,16-15,29.7-31.1,29.1c-16.1-0.5-29.8-15.3-28.9-31.3c0.9-16.5,15.6-30.4,31.1-29.5 C1077.7,2564.6,1090.9,2579,1090.6,2595.3"/><path d="M526.8,1767c0.2,16.4-13,31.1-29.2,31.3c-17.2,0.3-31.1-14-30.9-31.6c0.2-15.2,13.9-28.7,29.2-29.1 C512.1,1737.2,526.6,1751,526.8,1767"/><path d="M748.1,1865.3c18.7-0.4,30.3,17,29.7,30.4c-0.7,14.8-12.8,29.6-31.2,29.3c-16.6-0.3-29.5-13.9-29.3-30.8 C717.5,1879.1,729.9,1864.2,748.1,1865.3"/><path d="M685.9,1861.5c-19.5-0.4-30.7-14.9-30.6-29.5c0.1-17.3,12.5-30,29.6-30.4c15.1-0.3,28.8,12.2,29.9,28.3 C715.9,1845.8,701.8,1861,685.9,1861.5"/><path d="M1090.5,2339.9c-0.5,16.8-13,29.7-30.5,30c-16.5,0.3-29.7-14-29.5-30.7c0.2-14.1,13.8-30,31.3-29 C1077.2,2311,1090.7,2324.7,1090.5,2339.9"/><path d="M1027.5,2149.4c-0.2,15.4-13.7,29.3-29,29.9c-15.7,0.6-30.9-14.4-30.5-30.4c0.4-14.3,10.8-28.9,29-29.7 C1012.2,2118.5,1027,2131.2,1027.5,2149.4"/><path d="M1059.8,2751.6c-16.3-0.7-30.2-16.1-28.9-31.9c1.2-15.7,15.5-29,30.4-28.4c16.1,0.6,30.2,16.2,28.9,31.9 C1089,2738.9,1074.6,2752.3,1059.8,2751.6"/><path d="M1090,2213.3c-0.3,15.6-13.8,28.9-29.5,28.9c-15.7,0-29.2-13.4-29.4-29c-0.2-16,15-31,30.5-30.1 C1077.1,2184,1090.2,2198.1,1090,2213.3"/><path d="M622.3,1797.3c-16.6,0-30.2-14.2-29.4-30.9c0.8-18.6,18.2-28.6,30.2-28.3c15.3,0.4,29.4,15.2,28.7,29.9 C650.9,1784.1,637.5,1797.4,622.3,1797.3"/><path d="M463.4,1704.8c-0.3,15.5-13.7,29.1-29.3,28.7c-15.8-0.4-28.4-12-29-29.1c-0.6-16.4,14.5-31,30.1-29.9 C450.8,1675.7,463.7,1689.5,463.4,1704.8"/><path d="M1122.9,2374.5c15.7,0.1,29.7,13.7,29.5,28.9c-0.2,15-13,29.3-29.1,29.1c-16.4-0.2-29-12.4-29.3-28.6 C1093.7,2388.5,1107.7,2374.3,1122.9,2374.5"/><path d="M556.8,1733c-16.1-2.1-28.2-16.6-26.2-31.5c2.1-16,16.6-27.9,31.6-26.1c16.3,2,27.8,16,26,31.4 C586.2,1722.8,571.6,1734.9,556.8,1733"/><path d="M280.1,1703.6c0.3-15.9,13.4-29.1,29.1-29c13.5,0.1,29.8,12.1,28.8,31.3c-0.9,17.7-17,29-30,27.9 C290.6,1732.4,279.4,1718.3,280.1,1703.6"/><path d="M1152,2658.4c-0.8,10.9-5.9,19.6-16,25c-19.8,10.7-40-4.6-41.8-23.5c-0.7-6.9,1.6-13,5.4-18.6c6.8-10.1,19.5-14.6,31-11.1 C1142.7,2633.7,1152.1,2645.9,1152,2658.4"/><path d="M1152.1,2530.7c-0.4,15.9-13.6,29.3-28.9,29.2c-15.3-0.1-29.4-14.1-29.2-29.1c0.2-16.3,13-29.4,30.9-28.7 C1139.6,2502.6,1152.3,2516.4,1152.1,2530.7"/><path d="M935.4,1987.5c-16-0.1-29-13.3-28.7-29.3c0.3-16.3,13.3-28.9,29.4-28.4c14.7,0.5,27.7,13.5,28.2,28.1 C964.7,1973.1,950.6,1987.6,935.4,1987.5"/><path d="M997.3,1993.7c16.3-0.7,28.9,13.5,29.3,28.6c0.4,15-14.3,29.2-29.3,28.8c-14.6-0.4-28-13.5-28.3-27.9 C968.6,2008.3,981.2,1993.5,997.3,1993.7"/><path d="M901.4,1894c0.6,16.1-12.1,29.4-28.1,29.7c-15.6,0.2-28-11.4-28.8-26.7c-0.8-16.9,10.4-29.9,26.7-30.9 C886.2,1865,900.8,1878.6,901.4,1894"/><path d="M1151.1,2276.6c0.4,14.8-12.3,27.8-27.5,27.8c-16.9,0-29.5-12.6-29.1-28.4c0.4-14.7,11.5-27.6,27.7-28.4 C1137.8,2246.9,1151,2260.5,1151.1,2276.6"/><path d="M775.5,1767.8c0.1,15.6-11.7,27.5-27.2,28c-16.7,0.5-29.1-12.6-29.4-28.2c-0.2-12.7,9.9-27.3,27.4-28.5 C759.6,1738.3,775.5,1749.8,775.5,1767.8"/><path d="M838.4,1830.7c0.2,16.3-12.5,29.1-28.8,28.9c-15.4-0.2-27.5-12.2-27.9-27.8c-0.4-18.6,14.9-28.9,26.6-29.4 C822.6,1801.9,838.1,1813.9,838.4,1830.7"/><path d="M1060.6,2057.8c15.6-0.5,28.2,13.3,28.1,27.1c-0.1,17.2-13.3,28.8-28.6,29.1c-15,0.2-28.1-12.7-28.2-27.3 C1031.9,2071.8,1044.2,2057.2,1060.6,2057.8"/><path d="M372.8,1668.6c-15.6,0.4-28.2-11.1-29-26.4c-0.8-15.9,10.5-28.3,25.9-29.2c17.2-1,29.8,11.6,30.3,27.2 C400.5,1655.3,387.9,1668.2,372.8,1668.6"/><path d="M712.4,1704.5c0.1,15.2-12.7,27.6-27.9,27.2c-13.5-0.3-27.8-10-27.8-27.6c0.1-16.3,13.2-27.1,28.1-27.2 C701.3,1676.8,712.8,1690.5,712.4,1704.5"/><path d="M1213.2,2467.3c0,15.1-12.8,27.9-27.9,27.9c-14.3,0.1-28-14-27.6-28.4c0.3-14.7,13.7-27.9,28.3-27.8 C1198.9,2439.1,1213.1,2449.3,1213.2,2467.3"/><path d="M1213.1,2340.4c-0.4,15.3-12.8,27.6-27.9,27.5c-14.4-0.1-27.4-13.5-27.4-28.3c0-14.5,13.1-27.7,28.1-27.3 C1202.6,2312.7,1213.6,2327,1213.1,2340.4"/><path d="M1185.3,2621.9c-15.1,0-27.7-12.5-27.8-27.7c-0.1-14.2,13.7-27.7,28.2-27.6c15.3,0.1,27.4,12.4,27.5,27.9 C1213.3,2609.6,1200.8,2621.9,1185.3,2621.9"/><path d="M496,1667.8c-15.5-0.3-26.8-12.5-26.6-28.2c0.2-13.4,12.2-27,28.6-26.5c14.9,0.4,27.6,14.4,26.8,28.5 C524.1,1654.8,513.8,1668.7,496,1667.8"/><path d="M908.1,1831.6c-0.3-15,12.2-27.4,27.6-27.2c15.2,0.1,27.2,12.6,26.9,28c-0.3,13.5-12.8,26-26.8,26.6 C921.2,1859.6,908.4,1847,908.1,1831.6"/><path d="M1150.3,2150.2c0.2,12.1-10.4,27.1-28.8,26.2c-13.9-0.7-25.9-11.5-26.1-27.2c-0.2-14.9,13-27.8,28.1-27.4 C1139,2122.2,1150.8,2134.4,1150.3,2150.2"/><path d="M1184.8,2748.6c-14.5-0.3-27.3-13.9-26.7-28.7c0.6-14.9,13.5-26.3,29.3-25.5c14.2,0.7,25.7,12.8,25.6,27.3 C1212.9,2736.8,1200.1,2749,1184.8,2748.6"/><path d="M622.9,1667.6c-15.8,0.8-28.1-13.1-28.2-27.3c0-14,12.7-26.6,26.7-26.8c15.6-0.2,28,12,27.8,27.4 C649.1,1655.7,637.6,1667.3,622.9,1667.6"/><path d="M307.9,1603.6c-16.2,0.1-25.9-13.9-26.1-26.7c-0.2-14.2,14.2-27.8,28.4-27.1c13.6,0.6,26,13.4,26,27.5 C336.3,1592.1,323.8,1604.4,307.9,1603.6"/><path d="M1249.5,2377.1c14.4,0.6,26.4,13.4,25.6,27.3c-0.8,14.1-13.6,26.8-27.3,26.1c-18-1-27.5-16.2-26.4-28.8 C1222.6,2388.1,1233.2,2376.5,1249.5,2377.1"/><path d="M872.1,1795.2c-15.1-0.5-27.6-13.9-26.5-28.6c1.1-14.9,12.6-25.3,27.4-25.3c17,0,27.3,14.9,26.7,28.2 C899,1783.3,885.7,1795.6,872.1,1795.2"/><path d="M971.1,1893.2c0.8-14.3,13.5-26.3,27.5-25.3c16.6,1.2,26.7,14.2,25.7,29c-1,14.7-13.8,26.6-27.3,25.4 C981.1,1920.9,970.2,1908.6,971.1,1893.2"/><path d="M1034,1958.1c0.1-13.4,9.8-26.8,25.8-26.8c14.1,0,27.2,9.5,27.3,27.5c0.1,15.3-13.1,27.9-27.9,26.9 C1044.5,1984.6,1033.7,1972.8,1034,1958.1"/><path d="M810.9,1731.2c-14.5,0.5-27.1-10.6-27.9-25.3c-0.9-15.8,11.7-28.3,26.7-28.4c14.5-0.1,26.5,11.4,27.1,26.1 C837.3,1717.4,824.8,1730.8,810.9,1731.2"/><path d="M461.1,1578.4c-0.1,11.6-10.2,26.6-29.2,25.1c-13.6-1-24.6-12.3-24.5-26c0.1-19,15.9-28.1,27.2-27.8 C449.6,1550.2,461.6,1563.2,461.1,1578.4"/><path d="M1184.9,2239.9c-13.8-0.3-26.6-13-26.4-26.8c0.2-15.1,13.3-27.8,27.9-27.1c14.4,0.7,26.2,12.5,26.3,26.7 C1212.9,2227.7,1200.1,2240.2,1184.9,2239.9"/><path d="M1247.3,2557c-2.8-0.6-6.2-0.9-9.1-2c-16-6.4-22.7-25.3-10.7-40.7c5.3-6.8,17.9-13.1,28-9.2c11.5,4.4,18.3,12.5,19.6,24.8 c1.2,11.5-8.4,24-19.5,26.3C1252.9,2556.6,1250.3,2556.6,1247.3,2557"/><path d="M585.9,1578c-0.3,14.4-12.5,25.7-27.3,25.3c-14.6-0.4-26-12.8-25.2-27.3c0.8-14.7,13.3-26.6,27.2-25.8 C575,1551.1,586.2,1563.4,585.9,1578"/><path d="M1122.9,2048.1c-15-0.1-26-11.4-25.9-26.6c0.1-14.7,12.5-27.2,26.4-26.5c14.1,0.7,26.3,13.4,26.5,27.3 C1150,2034,1139.8,2048.8,1122.9,2048.1"/><path d="M1221.7,2656.9c0.9-9.8,5.6-17.3,14.1-22.3c8.8-5.2,17.5-4.7,25.9,0.7c7.7,4.9,11.9,12.1,13,21.2c0.2,1.9,0.1,4-0.3,5.9 c-2.8,11.3-10,18.6-21,21.3c-10.6,2.6-19.2-1.7-25.9-10C1223.6,2668.9,1221.8,2663.3,1221.7,2656.9"/><path d="M747.8,1667.1c-13.8,0.3-26.8-12.4-26.9-26.4c-0.1-13.7,12.8-26.5,26.9-26.5c12.8-0.1,25.1,12.1,25.8,25.5 C774.3,1653.4,761.7,1666.7,747.8,1667.1"/><path d="M1248.4,2250.2c12.1-0.2,25.7,9.3,26,26.9c0.2,13.7-14,26.7-27.4,25.8c-13.4-1-25.2-13.1-25.2-26.1 C1221.8,2262.7,1234.4,2250.1,1248.4,2250.2"/><path d="M1185.8,2111.8c-14.5,0.2-25.9-11.7-25.8-26.8c0.1-13.9,11-25.3,24.7-25.9c13.4-0.6,26.9,12,27.2,26.1 C1212.3,2102,1198.1,2112,1185.8,2111.8"/><path d="M683.8,1603c-14.3-0.5-25.3-13.1-24.4-28.1c0.8-13.7,13.4-25.2,26.4-24.1c14.2,1.2,26.2,14.8,25,28.2 C709.6,1592.5,697.1,1603.5,683.8,1603"/><path d="M397,1514.1c-0.1,13.7-11.5,24.9-25.2,25.1c-11.6,0.2-26.6-9-26.2-26.3c0.4-14.6,12.9-25.6,27.5-25 C387.1,1488.5,397.1,1499.6,397,1514.1"/><path d="M1335.9,2594.7c-0.3,14.1-11.6,25.6-25.1,25.4c-13.4-0.1-25.4-12.1-25.3-25.4c0-14.8,12.3-27.3,26.4-26.3 C1326.6,2569.4,1336.5,2580.9,1335.9,2594.7"/><path d="M1223.2,2148.7c0.2-13.9,11.8-25.6,25.2-25.4c13.3,0.2,25.5,12.3,25.7,25.4c0.3,13.9-13.1,27-26.7,26.4 C1233.8,2174.4,1223,2162.7,1223.2,2148.7"/><path d="M1023.4,1767c0.6,13-10.9,25.7-24.5,26.4c-12.2,0.7-25.5-9.1-26.8-24c-1.2-14,11.3-27.3,25.4-27.4 C1010.9,1741.8,1022.7,1753.3,1023.4,1767"/><path d="M497.9,1539.1c-14.6,0.3-26.8-11.6-26.8-26c0-10.8,9.3-24.6,25.8-24.9c15.8-0.3,25.7,14,25.7,24.9 C522.5,1526.8,511.2,1538.8,497.9,1539.1"/><path d="M1060.3,1856.8c-13.4,0.2-25.6-11.8-25.5-25.1c0.1-13.9,11.5-25.7,24.8-25.9c14.6-0.2,26.8,11.9,26.6,26.2 C1086.1,1843,1076.7,1856.6,1060.3,1856.8"/><path d="M960.5,1704.1c0.1,13.6-11.3,25.7-24.5,25.9c-13.1,0.2-25.4-11.3-26.2-24.6c-0.8-13.7,12.4-27.5,25.7-27 C949,1678.9,960.4,1690.6,960.5,1704.1"/><path d="M1123.9,1919.9c-16.5,0.8-26-13.4-26.3-24.2c-0.3-13.7,11-25.7,24.7-25.9c14-0.2,25.9,10.8,26.3,24.4 C1148.9,1906.1,1139.6,1920,1123.9,1919.9"/><path d="M897.5,1641.2c-0.9,16.6-14.3,25.3-25.5,24.9c-13.5-0.5-25.1-12.9-24.8-26c0.3-13.3,12.8-25.3,25.9-24.7 C887.1,1616.1,897.9,1627.4,897.5,1641.2"/><path d="M1335.7,2721c0.4,14.9-10.9,25.2-24.3,25.9c-13.4,0.7-25-11-25.2-24.9c-0.2-14,10.6-25.6,24.2-26 C1323.8,2695.5,1335.5,2707.2,1335.7,2721"/><path d="M1335.9,2467.6c-0.2,14.3-10.8,24.8-25,24.8c-14.7,0-26-12-25.4-26.7c0.6-13.9,11.7-23.8,26.2-23.6 C1325.8,2442.4,1336.1,2453.2,1335.9,2467.6"/><path d="M1311.3,2364.6c-14.9,0.8-25.4-10.2-25.8-24c-0.3-13.4,11.1-25.6,24.5-26.1c13.5-0.5,25.4,10.9,25.7,24.6 C1336,2353.6,1325.8,2364.3,1311.3,2364.6"/><path d="M1335.4,2212.7c0.1,14-10.9,24.9-25,24.6c-13.6-0.3-23.4-10-23.9-23.5c-0.5-13.6,9.1-25.3,23.9-25.9 C1324.3,2187.3,1335,2198.9,1335.4,2212.7"/><path d="M622.4,1489.1c12.8-0.5,24,9.3,24.8,23.1c0.7,13.2-11.3,26.1-24.2,26.5c-13.3,0.4-25.1-11.1-25.8-24.8 C596.6,1503.2,606.1,1488.6,622.4,1489.1"/><path d="M1210.5,1959.2c-0.3,13.7-12.1,24.9-25.8,24.4c-12.8-0.5-23.6-11.5-23.9-24.4c-0.3-13.8,11.1-25.3,24.9-25.3 C1199.6,1933.9,1210.7,1945.2,1210.5,1959.2"/><path d="M409.8,1449.8c0-14.1,11.3-24.8,25.6-24.4c12.7,0.4,23.6,11.8,23.6,24.8c0,13.3-12.5,25.2-25.9,24.7 C420.2,1474.2,409.7,1463,409.8,1449.8"/><path d="M583.6,1449c0.4,13.2-9.8,24.6-22.8,25.5c-13.3,0.9-26-11.2-25.9-24.6c0.1-12.8,11.2-24,24.1-24.4 C572.1,1425.2,583.2,1435.8,583.6,1449"/><path d="M834.5,1576.7c0.4,13.6-11.5,25.8-24.9,25.4c-10.2-0.3-23.8-8.6-24-24.2c-0.2-13.7,9.5-24.2,22.8-24.9 C825.1,1552.1,834.3,1564.9,834.5,1576.7"/><path d="M333.6,1449.6c0.2,13.7-11.5,25.6-25,25.2c-12.9-0.3-23.6-11.3-23.8-24.4c-0.2-14,11.1-25.4,24.9-25.1 C322.5,1425.6,333.3,1436.6,333.6,1449.6"/><path d="M1272.4,2022.8c-0.2,12.8-11.5,24.1-24.3,24.1c-12.7,0-24.1-11.3-24.3-24.1c-0.2-13.9,11.5-25.4,25.3-24.9 C1262.2,1998.4,1272.6,2009.5,1272.4,2022.8"/><path d="M746.3,1489.4c12.9-0.5,24.3,9.8,25.1,22.8c0.9,13.6-10.5,25.9-24.1,25.9c-12.6,0-24-11.2-24.2-23.9 C722.8,1501.2,733.5,1489.9,746.3,1489.4"/><path d="M1349.6,2531.5c-0.3-13.7,9.5-24.5,22.8-25.1c13.1-0.6,24.8,9.6,25.7,22.5c0.9,13.4-10.9,26.4-24.1,26.5 C1361.2,2555.6,1349.8,2544.5,1349.6,2531.5"/><path d="M1349.7,2404c-0.3-13,10.4-24.6,22.9-25c13.1-0.4,25.6,12,25.2,25.1c-0.4,13-11.6,24-24.1,23.9 C1360.8,2427.9,1349.9,2417,1349.7,2404"/><path d="M1372.9,2681.9c-13.5-0.4-23.3-10.6-23.3-24.2c0-14.6,10.6-24.2,25.5-23.4c12.9,0.7,23.7,12.4,22.8,24.9 C1396.9,2672.2,1385.9,2682.3,1372.9,2681.9"/><path d="M1373.5,2300.1c-13.4-0.1-23.6-10.4-23.7-24c-0.1-13.3,10.9-24.1,23.9-23.8c13.2,0.3,24,11.4,24.2,24.2 C1397.9,2289.1,1386.5,2300.2,1373.5,2300.1"/><path d="M708.2,1449.4c0.3,12.8-10.7,24.3-23.6,24.4c-11.9,0.1-22.7-10.1-23.7-22.4c-1-12.4,9.7-24.3,22.7-25.5 C695.9,1425,707.9,1436.4,708.2,1449.4"/><path d="M1310.4,2061.9c13-0.2,24.4,10.6,24.6,23.3c0.2,12.9-10.2,23.7-23.6,24.5c-12.5,0.8-23.9-10.1-24.4-23.5 C1286.5,2073.5,1297.4,2062.2,1310.4,2061.9"/><path d="M371.7,1410.3c-12.4,0.3-23.7-11.5-23.5-24.5c0.2-11.1,8.4-21.8,22.7-23.3c12.2-1.3,24.3,10.6,24.6,23.4 C395.7,1398.5,384.5,1410,371.7,1410.3"/><path d="M1061,1680.8c13.5,0.2,23.2,10.3,22.9,24.1c-0.2,13.5-10.4,23-24.2,22.7c-13.2-0.3-23.7-11.1-23.3-24 C1036.9,1692.4,1046.2,1680.1,1061,1680.8"/><path d="M997,1664.1c-13.5-0.3-23-10.5-22.7-24.3c0.3-13.5,10.5-22.7,24.4-22.6c13,0.1,23.6,11.4,23.1,24.3 C1021.3,1652.6,1011.8,1664.9,997,1664.1"/><path d="M1146.4,1767c0.2,13.7-9.9,24.2-23.3,24.5c-13,0.2-24.3-11.1-23.9-23.9c0.5-13,11.9-24,24.6-23.7 C1136,1744.1,1146.2,1754.5,1146.4,1767"/><path d="M1271.6,1894.8c0,12.7-12,24.5-24.3,23.8c-12.1-0.7-22.4-11.6-22.5-23.6c-0.1-12,10.1-22.9,22.3-23.7 C1259.5,1870.4,1271.6,1882,1271.6,1894.8"/><path d="M936.4,1600.4c-13.8,0.5-24.3-9.3-24.4-22.6c-0.1-13.5,9.9-24,23.2-24.3c12.1-0.2,22.8,9.6,23.7,21.8 C959.7,1588.1,949.1,1600,936.4,1600.4"/><path d="M1209.1,1833.2c-1.2,13-13.6,23.5-25.7,21.8c-12.3-1.7-21.9-12.7-21.5-24.4c0.5-12.3,12.9-23.6,25.2-22.9 C1200,1808.3,1210.2,1820.2,1209.1,1833.2"/><path d="M1334.2,1958.2c0.3,12-9.6,22.8-21.9,23.8c-12.4,1-24.3-10.2-24.6-23c-0.3-11.8,9.8-22.8,21.9-23.9 C1321.6,1933.9,1333.8,1945.4,1334.2,1958.2"/><path d="M1459.2,2467.9c-0.5,12-11.2,22.7-23.2,22.6c-12.4-0.2-23.7-10.5-23.1-24.5c0.6-12.1,11.2-22.3,23.3-22.6 C1449,2443.2,1459.7,2454.6,1459.2,2467.9"/><path d="M1459.1,2339.8c-0.1,13.5-11.2,24.4-24.2,23.6c-12-0.7-22-11.9-21.8-24.2c0.2-12.6,10.1-22.1,23.2-22.2 C1448.8,2317,1459.1,2327.4,1459.1,2339.8"/><path d="M520.2,1386.9c-0.4,14.7-14.8,24.1-24.6,23.2c-12.1-1.1-21.5-11.8-21.5-24.1c0-11,8.2-22.5,22.5-22.9 C510.1,1362.7,520.7,1374.6,520.2,1386.9"/><path d="M872,1536.4c-12.6-0.3-22.4-10.2-22.6-22.9c-0.3-12.5,12.2-24.3,24.7-23.2c11.5,1,21.4,11,21.7,22.1 C896.2,1525.4,885,1536.7,872,1536.4"/><path d="M1373.4,2126.1c12.2-0.1,22.7,9.6,23.4,22c0.6,11.4-8.8,24.3-23.2,24.1c-12.7-0.2-22.7-9.3-23.4-21.8 C1349.6,2137.7,1360.5,2126.2,1373.4,2126.1"/><path d="M809.2,1472.3c-12.5-0.5-22.9-11.5-22.1-23.4c0.9-12.4,11.8-22.6,23.7-22c12.3,0.6,22.5,11.5,22.1,23.6 C832.5,1462.5,821.2,1472.8,809.2,1472.3"/><path d="M1435,2616.8c-14.6,0-22.1-13.1-21.8-23.3c0.3-12,11.4-22.8,23.2-22.5c13.3,0.3,23.2,11.2,22.7,24.8 C1458.7,2606,1449.6,2617.6,1435,2616.8"/><path d="M599.3,1385.9c0.1-11.9,10.7-22.4,22.8-22.6c12-0.2,22.6,10.1,22.9,22.4c0.3,12.9-11.3,24.5-23.6,23.6 C609.1,1408.4,599.2,1397.9,599.3,1385.9"/><path d="M1458.7,2721.6c0,12.6-10.2,22.7-22.8,22.7c-11.9,0-22.8-11.1-22.6-23.2c0.1-12.5,10.4-22.4,23.1-22.4 C1449.1,2698.7,1458.7,2708.6,1458.7,2721.6"/><path d="M331.6,1323.8c-0.2,9.3-6.4,16.8-16,20.6c-8.2,3.2-19.8-1.3-24.5-8.2c-4.3-6.3-6.4-13.1-3.3-20.7 c3.6-8.6,10-13.8,19.4-14.6C321.3,1299.8,331.5,1311.1,331.6,1323.8"/><path d="M1458.2,2213.5c-0.2,12.5-10.5,22.4-22.8,22.1c-11.7-0.3-22.4-11.8-21.9-23.4c0.6-12.1,11.2-22.1,23.4-21.9 C1449.3,2190.4,1458.5,2200.4,1458.2,2213.5"/><path d="M1374.6,2043.9c-13,0.4-23.5-9.1-23.6-21.3c-0.1-12,10.2-23,22.3-23.3c10.4-0.2,22.5,9.6,22.5,23 C1395.8,2034,1386.5,2043.6,1374.6,2043.9"/><path d="M1226.2,1767.9c-0.3-12.3,10-22.5,22.4-22.2c11.4,0.2,20.9,9.5,21.8,21.2c0.9,11.7-9.4,22.8-21.6,23.4 C1236.9,1790.8,1226.5,1780.5,1226.2,1767.9"/><path d="M1101.3,1642.1c-0.5-12.9,9-23.5,21.4-23.9c10.9-0.4,21.7,9.6,22.6,20.9c1,11.7-10,23.6-21.8,23.8 C1111.7,1663.2,1101.7,1653.8,1101.3,1642.1"/><path d="M1164.1,1703.6c0.3-11.9,9.5-21.2,21.4-21.6c11.9-0.3,23.4,11.3,22.5,22.8c-1,12.4-12.3,22.7-23.9,21.7 C1172.2,1725.5,1163.8,1715.8,1164.1,1703.6"/><path d="M1499.2,2552.4c-12.8,0-22.9-10-22.7-22.4c0.2-11.2,10.4-21.7,21.7-21.5c14.1,0.2,22.7,11.7,22.5,22.8 C1520.5,2543.2,1511.2,2552.4,1499.2,2552.4"/><path d="M434.2,1300.9c12-0.2,21.4,8.6,22,20.4c0.6,12.5-8.7,23-21.1,23.9c-11.6,0.8-23.1-10-23.3-21.8 C411.6,1311.1,421.5,1301.1,434.2,1300.9"/><path d="M1060.8,1599.1c-12.3,0.2-22.7-10.5-22.3-22.8c0.3-11.3,11-21.9,21.7-21.7c11.3,0.3,21.7,10.1,22.4,21.1 C1083.3,1588,1073.1,1598.9,1060.8,1599.1"/><path d="M560.7,1301.2c11.6,0.6,21.1,10.7,20.9,22.3c-0.2,11.3-10.7,21.4-22,21.3c-12.3-0.1-22.9-11.5-21.7-23.5 C538.9,1309.5,548.9,1300.7,560.7,1301.2"/><path d="M1311.4,1809.7c11.9,0.2,21.5,10,21.3,21.7c-0.2,11.7-10,21.5-21.6,21.7c-12.2,0.2-22.1-9-22.3-20.6 C1288.6,1819.9,1299,1809.5,1311.4,1809.7"/><path d="M1497.9,2382.1c12.5-0.3,22,8.2,22.7,20c0.7,12.7-9,22.8-22,22.8c-12,0-21.5-9.2-21.8-21.1 C1476.5,2392.1,1486,2382.4,1497.9,2382.1"/><path d="M1498.3,2635.5c10.8-0.2,21.4,9.8,22.2,21c0.8,11.7-9.8,23.3-21.5,23.5c-11.5,0.2-22.7-11.3-22.2-22.9 C1477.1,2646,1487.5,2635.7,1498.3,2635.5"/><path d="M997.9,1535.1c-11.7,0.1-21.4-9.2-22.1-21.1c-0.7-12,10.5-23.1,22.7-22.5c11.7,0.6,21.4,10.8,21.1,22.1 C1019.3,1525.5,1009.6,1535.1,997.9,1535.1"/><path d="M747.5,1408.2c-11.5,0.1-21.4-9.2-22.1-20.8c-0.7-12.5,9.2-22.4,22-22.6c12.4-0.2,21.8,10.4,22.4,20.5 C770.4,1394.9,761.5,1408.2,747.5,1408.2"/><path d="M1457.8,2085.4c0.4,11.7-8.9,21.5-20.9,22.1c-11.2,0.5-22-9.2-22.7-20.5c-0.8-12,10.3-23.7,22-23.4 C1447.6,2063.9,1457.4,2073.8,1457.8,2085.4"/><path d="M1520.4,2277c-0.5,10.5-8.6,21.1-21.9,21c-13.4-0.1-21.5-10.7-21.7-21.2c-0.2-11.9,11.3-22.9,23-22.2 C1511.2,2255.4,1520.7,2265.6,1520.4,2277"/><path d="M935.8,1429c9.1,0.1,16.7,5.4,19.7,13.8c3,8.3,0.5,17.8-6.2,23.5c-6.4,5.5-16.6,6.5-24,2.5c-8.6-4.7-13.6-14.8-11.3-23.3 C916.6,1435.2,925,1428.9,935.8,1429"/><path d="M369,1280.2c-12.1-1.5-20.4-12.1-18.6-23.5c1.8-11.6,13-20.6,23.6-18.9c11.7,1.8,20,12.5,18.6,23.9 C391.3,1273.3,380.6,1281.6,369,1280.2"/><path d="M497,1280.1c-12.1-0.2-21.5-9.6-21.5-21.4c0-11,11.3-21.6,22.2-20.9c11.2,0.8,21.2,11.8,20.5,22.8 C517.5,1271.5,508,1280.3,497,1280.1"/><path d="M1520.1,2148.5c0.4,11-9.9,21.7-21.1,22c-11,0.3-21.6-10.4-21.4-21.6c0.2-10.7,9.3-20.1,20.1-20.8 C1508.8,2127.3,1519.7,2137.2,1520.1,2148.5"/><path d="M684.3,1343.7c-12-0.2-20.9-9.4-20.7-21.4c0.1-11.5,9.9-20.9,21.6-20.8c11.1,0.1,21,10.3,21,21.8 C706.3,1333.2,696.7,1344.4,684.3,1343.7"/><path d="M872.5,1407.1c-11.9-0.1-21.2-9.7-20.8-21.5c0.4-11.6,10.5-20.8,22.2-20.2c11,0.5,19.6,9.5,19.7,20.6 C893.7,1397.9,884.5,1407.2,872.5,1407.1"/><path d="M1374.3,1915.7c-12.2,0.8-21.8-9.4-21.9-20.7c-0.1-11.7,9.6-21.3,21.5-21.3c11.2,0.1,20.1,8.6,20.8,19.8 C1395.3,1905.7,1386.3,1915.5,1374.3,1915.7"/><path d="M1561.7,2573.8c12.5-0.1,20.1,9.2,20.6,19.8c0.5,11.4-10.3,22.3-21.2,21.9c-10.5-0.3-20.4-10.1-20.7-20.5 C1540.1,2583.2,1549.5,2573.7,1561.7,2573.8"/><path d="M1560.1,2741.7c-10.9-0.3-20.1-10.2-19.3-21.1c0.9-11.6,9.5-19.7,20.9-19.9c10.7-0.2,20.3,9.6,20.3,20.5 C1582.1,2731.3,1574.7,2742.2,1560.1,2741.7"/><path d="M1456.9,1958.3c0.3,11.3-10.1,21.4-21.6,21.1c-10.7-0.3-19.8-9.8-19.9-20.6c-0.1-11,8.6-20.2,19.6-20.9 C1446.9,1937.2,1456.7,1946.3,1456.9,1958.3"/><path d="M1560.8,2232.7c-12.4,0.1-19.8-10-19.8-20.1c0-10.8,9.4-20.1,20.1-20.3c11.5-0.2,21.4,10.1,20.7,21.6 C1581.2,2223.8,1573.7,2233.3,1560.8,2232.7"/><path d="M1582.4,2466.3c-0.1,1.3-0.1,2.7-0.3,3.9c-2,10.1-11.1,17.8-20.8,17.7c-9.6-0.1-18.7-8-20.6-18c-0.9-4.8,0.5-9.2,2.8-13.3 c4.4-7.5,13.4-11.5,21.9-9.8C1574.3,2448.7,1581.8,2457.3,1582.4,2466.3"/><path d="M1122.3,1493.3c12.1-0.2,21.5,9.2,21.2,21.2c-0.3,10.8-10.2,20.3-20.7,19.9c-10.5-0.4-20.3-10.4-20.4-20.6 C1102.3,1502.7,1111.2,1493.5,1122.3,1493.3"/><path d="M1559.5,2360c-11-0.9-19.8-11-18.9-21.6c0.9-10.5,11.3-19.9,21.5-19.5c11.3,0.5,21,11.8,19.8,23 C1580.7,2352.8,1570.5,2360.9,1559.5,2360"/><path d="M1499,2002c10.8,0.1,20,9.1,20.4,19.9c0.3,10.2-9.5,20.5-19.7,20.7c-11.2,0.3-21.5-9.9-21.4-21.2 C1478.4,2011.2,1488.2,2001.9,1499,2002"/><path d="M809.7,1343c-11.2-0.1-19.8-8.9-20-20.2c-0.2-11,8.5-20.2,19.6-20.8c11.1-0.6,21.3,9.8,21.1,21.5 C830.1,1334.5,821,1343.1,809.7,1343"/><path d="M621.7,1279.1c-11.1,0-20-8.8-20.3-20c-0.2-10.2,9.7-20.6,19.9-20.9c10.7-0.3,20.7,8.9,21.1,19.4 C643,1269.7,633.9,1279.2,621.7,1279.1"/><path d="M1060.2,1470.5c-10.4-0.2-20.1-9.9-20.4-20.1c-0.2-11,10.5-21.4,21.6-20.7c10.7,0.6,19.4,10.2,19.1,21 C1080.2,1461.3,1070.6,1470.7,1060.2,1470.5"/><path d="M1186.7,1557.2c11.2,0.5,19.2,9.4,18.9,21c-0.3,11-9.5,20-20.4,19.8c-10.9-0.2-21.1-11.4-20.2-22.5 C1165.9,1564.5,1175.3,1556.6,1186.7,1557.2"/><path d="M1373.2,1787.6c-11.3-0.2-19.6-9-19.5-20.5c0.1-11.2,9.7-20.4,20.4-19.6c11,0.9,20,10.3,19.9,20.9 C1393.9,1779.2,1384.5,1787.8,1373.2,1787.6"/><path d="M1017.9,1386.9c0.1,10.2-10.1,19.9-20.6,19.7c-10.6-0.3-19.6-10-19.4-20.8c0.2-10.8,10-20.2,20.4-19.8 C1008.8,1366.5,1017.8,1376.1,1017.9,1386.9"/><path d="M1268.5,1640.1c0.2,10.8-8.8,20.9-19.1,21.2c-11.3,0.4-21.6-9.7-21.5-21c0.1-10.8,9.3-19.9,20.3-19.9 C1259.1,1620.3,1268.2,1629.2,1268.5,1640.1"/><path d="M1623.9,2423.5c-10.5-0.2-20.3-10.2-20-20.4c0.2-10.4,10.8-20.4,20.8-19.6c10.3,0.8,18.4,9.3,18.6,19.5 C1643.5,2414.2,1634.6,2423.8,1623.9,2423.5"/><path d="M767.1,1260c-0.3,10.7-9.9,19.4-21,18.8c-10.2-0.5-18.6-9.1-18.8-19.1c-0.1-10.7,9.2-20.1,20-20 C758.3,1239.9,767.4,1249.3,767.1,1260"/><path d="M1310.7,1723.8c-11.4-0.1-20.1-8.8-19.8-19.9c0.2-10.9,9.4-19.8,20.4-19.7c10.8,0.1,20,9.5,19.9,20.2 C1331.1,1715.3,1322,1723.9,1310.7,1723.8"/><path d="M1580.8,2087.1c-0.6,11.2-10.3,19.6-21.2,18.4c-10.3-1.1-18.2-9.8-18.3-19.8c0-10.4,9.9-19.8,20.6-19.5 C1572.9,2066.4,1581.4,2076,1580.8,2087.1"/><path d="M308.5,1215c-11.2-0.3-20.1-9.7-19.3-20.6c0.8-10.3,9.3-18.3,19.6-18.5c11-0.2,20.4,9,20.4,19.8 C329.2,1206.6,319.9,1215.3,308.5,1215"/><path d="M1435.5,1851.2c-10.7-0.2-19.1-9.7-18.8-20.9c0.4-10.9,9-18.3,18.9-18.7c10.5-0.4,20,9.2,20.2,19.9 C1456.1,1841.7,1446,1851.4,1435.5,1851.2"/><path d="M1643.3,2530.7c0.2,11.1-9,20.3-19.7,19.8c-10.7-0.5-19.8-10.2-19.4-20.7c0.3-9.5,9.4-18.4,19.2-18.8 C1634,2510.4,1643.1,2519.5,1643.3,2530.7"/><path d="M934.8,1342.4c-10.7-0.1-19.4-9.8-18.8-21.1c0.5-10.4,9.4-18.6,19.5-18.1c11,0.5,19.9,10.2,19.2,20.9 C954.2,1333.7,944.6,1342.5,934.8,1342.4"/><path d="M560.4,1214.9c-11.2,0.4-20.9-8.2-20.8-18.8c0.1-10.6,7.8-19.8,19.9-19.8c11.1,0.1,18.9,7,19.5,17.7 C579.6,1205.1,571.3,1214.5,560.4,1214.9"/><path d="M434.4,1215c-11.4-0.1-19.9-8.8-19.6-20.1c0.4-11.1,9.4-19.5,20.7-19c10,0.4,18.3,8.9,18.7,19.2 C454.7,1206.1,445.7,1215.1,434.4,1215"/><path d="M1518.1,1895.4c-0.4,10.9-10.3,20.2-20.6,19.3c-10.1-0.8-17.7-9.5-17.7-20.1c0-10.5,7.8-18.8,18.5-19.2 C1508.2,1875.1,1518.5,1883.4,1518.1,1895.4"/><path d="M1623.6,2677.1c-12.6,0.3-19.9-10.6-19.4-20.4c0.5-10.4,9.1-18.2,19.6-18.2c10.6,0.1,19,8,19.4,18.4 C1643.7,2667.5,1635.2,2677.6,1623.6,2677.1"/><path d="M390.7,1132.8c-0.5,10.5-9.3,18.4-19.7,17.9c-10.4-0.5-18.8-9.4-18.3-19.5c0.5-10.2,9.7-18.6,19.8-18 C382.9,1113.9,391.2,1122.8,390.7,1132.8"/><path d="M1624.6,2257.4c10.3,0.3,18.6,9.1,18.5,19.4c-0.2,10.3-9,19-19.1,18.9c-10-0.1-19.3-9-19.7-18.7 C1604,2265.9,1613.2,2257.1,1624.6,2257.4"/><path d="M1392.6,1640.3c0.2,10.4-8.2,18.9-18.7,19c-10.4,0.1-19.2-8.2-19.4-18.3c-0.2-10.1,8.6-19.1,18.7-19.1 C1383.5,1621.8,1392.4,1630.3,1392.6,1640.3"/><path d="M683.7,1176.9c11.3-0.4,20.5,8.4,20.3,19.2c-0.3,10.1-9.1,18.6-19.2,18.4c-10.2-0.1-19.1-8.6-19.3-18.4 C665.2,1185.9,673.4,1177.3,683.7,1176.9"/><path d="M1247.6,1532.1c-10.3-0.2-19.2-9.5-18.5-19.2c0.8-10,10.5-19,19.8-18.5c10.1,0.5,18.7,9.8,18.4,19.7 C1267,1524.2,1258,1532.4,1247.6,1532.1"/><path d="M1580,1958.4c0.1,10.4-8.2,19.1-18.4,19.2c-10.2,0.1-18.6-8.4-18.7-18.8c-0.1-10.4,8.2-19.3,18.3-19.2 C1570.6,1939.7,1579.9,1946.8,1580,1958.4"/><path d="M873.5,1240.9c10.4,0.3,18.6,9,18.1,19.3c-0.5,9.7-10.5,18.7-19.9,18c-10.3-0.8-18.7-10-18.1-19.7 C854.3,1248.2,862.9,1240.7,873.5,1240.9"/><path d="M1184.6,1468.6c-10.3-0.4-18.4-9.4-17.7-19.7c0.7-10.2,10.3-19,19.7-18.1c10,0.9,18.4,10.4,17.9,20.1 C1203.9,1460.8,1194.8,1469,1184.6,1468.6"/><path d="M1311.1,1595.4c-10.7,0.1-19.4-8.2-19.3-18.1c0.2-10,8.9-18.9,18.8-19.1c9.8-0.3,19.4,8.7,19.1,18.5 C1329.5,1588.4,1320.5,1595.7,1311.1,1595.4"/><path d="M1686.3,2485.4c-10.5,0-18.6-8.6-18.2-19c0.5-10.1,9.7-18.6,19.7-18c8.9,0.6,17.1,9.2,17.4,18.4 C1705.6,2476.7,1696.7,2485.4,1686.3,2485.4"/><path d="M1624.9,2130.4c10,0.5,18.3,9.8,17.8,19.7c-0.6,10.2-9.5,18.2-19.6,17.7c-10.6-0.5-18.2-8.9-17.6-19.4 C1606,2138.2,1615,2129.9,1624.9,2130.4"/><path d="M1685.8,2612.4c-9.9-0.2-17.6-7.8-17.7-17.4c-0.1-10.4,8.3-19.4,18.2-19.5c9.8-0.1,18.8,8.9,18.9,18.9 C1705.4,2604.4,1696.4,2612.7,1685.8,2612.4"/><path d="M1141.5,1387.2c-0.6,10.3-10,18.7-19.6,17.7c-10.4-1.1-17.7-9.7-16.9-20.3c0.7-9.7,8.6-17,18.3-16.6 C1133.6,1368.4,1142.1,1377.5,1141.5,1387.2"/><path d="M1435.9,1722.9c-9.8,0-18.7-9-18.5-19c0.2-10.1,9.3-18.5,19.3-18.1c9.5,0.4,17,8.3,17.3,17.9 C1454.3,1713.9,1445.9,1722.9,1435.9,1722.9"/><path d="M640.6,1132.1c-0.1,10.1-9.4,18.8-19.3,18.2c-9.4-0.6-17.1-8.9-17-18.4c0.1-9.4,7.9-17.7,17.3-18.2 C631.4,1113.1,640.7,1122.1,640.6,1132.1"/><path d="M515,1131.4c0.4,10.1-8.1,19.1-18.1,19.1c-10,0.1-18.7-8.8-18.5-18.9c0.2-9.3,8-17.5,17.2-18.2 C505.5,1112.8,514.7,1121.2,515,1131.4"/><path d="M1705,2339.4c0.1,10-9.3,19.4-18.8,18.9c-9.5-0.5-17.4-8.3-17.9-17.7c-0.5-10.4,7.8-18.6,18.6-18.4 C1696.7,2322.4,1704.9,2330.2,1705,2339.4"/><path d="M828.4,1194.8c0.5,9.8-8.8,19.3-18.6,19.2c-9.3-0.1-17.7-8.2-18.2-17.5c-0.5-10,8.4-19.1,18.5-19.1 C819.6,1177.5,827.9,1185.5,828.4,1194.8"/><path d="M1623.6,2039.8c-10,0-17.3-7.2-17.5-17.1c-0.2-11,8.2-18.7,18.3-19c8.9-0.2,17.3,8.3,17.9,17.6 C1642.9,2031.1,1634.2,2039.8,1623.6,2039.8"/><path d="M1687.7,2703.1c9.1,0.4,17.1,9,17.2,18.3c0,9.7-9.7,19-19.2,18.3c-9.3-0.6-17.1-9-17.1-18.3 C1668.6,2711.3,1677.7,2702.6,1687.7,2703.1"/><path d="M1059.7,1341.1c-10.4-0.6-18.3-9.8-17.2-19.8c1.1-9.6,9.1-16.5,18.8-16.1c10.2,0.4,18.3,9.6,17.3,19.7 C1077.7,1334.1,1069,1341.7,1059.7,1341.1"/><path d="M1498.7,1749.8c10.1,0,18.5,9,17.9,19.2c-0.5,9.2-9,17.3-18.2,17.2c-9.2-0.1-17.7-8.3-18-17.4 C1480.1,1758.8,1488.7,1749.8,1498.7,1749.8"/><path d="M1015.6,1260.2c-0.4,9.2-9.1,17.4-18.3,17.1c-9.4-0.3-17.7-8.7-17.6-17.8c0-10.1,9.4-18.8,19.3-18 C1008.4,1242.2,1016,1250.8,1015.6,1260.2"/><path d="M1561.9,1849.5c-9.4,0.2-18-7.5-18.4-16.8c-0.5-10.2,8.1-19.1,18.3-18.9c9.4,0.2,17.6,8.5,17.5,17.7 C1579.1,1840.9,1571.1,1849.2,1561.9,1849.5"/><path d="M577,1069.1c-0.1,9.2-9.2,17.5-18.5,16.8c-8.7-0.6-16.3-8.5-16.4-17c-0.1-9.6,8.1-18,17.5-18 C569,1051,577.1,1059.5,577,1069.1"/><path d="M1687.5,2194.8c9.2,0.7,17.3,9.3,17.2,18.3c-0.1,9.8-10,18.8-19.6,17.7c-9.4-1-16.4-9.6-15.8-19.2 C1669.8,2202.3,1678.6,2194.2,1687.5,2194.8"/><path d="M451.7,1068.1c0.1,9.4-7.9,17.7-17.2,18c-9.1,0.3-17.5-7.9-17.8-17.4c-0.3-9,8.3-18,17.3-18.1 C443.3,1050.6,451.7,1058.8,451.7,1068.1"/><path d="M729.9,1131.3c0.3-9.4,9.3-17.9,18.2-17.1c9.4,0.8,17.5,9.6,17.1,18.5c-0.5,9.1-9.6,17.5-18.5,17.1 C737.4,1149.4,729.6,1140.8,729.9,1131.3"/><path d="M952.4,1194.7c0.6,9.3-7.3,17.9-16.9,18.3c-8.6,0.4-16.5-6.6-17.6-15.5c-1.1-9.1,6.2-18,15.9-19.3 C942.7,1177,951.8,1185.1,952.4,1194.7"/><path d="M309.8,1086.1c-9.4,0.5-18.1-7.5-18.2-16.8c-0.1-9.8,7.5-18.3,16.6-18.6c9.4-0.3,18,7.6,18.3,16.9 C326.8,1077.1,319,1085.7,309.8,1086.1"/><path d="M1436,1594.5c-9.3-0.3-17.6-9-17.3-18.1c0.4-9.3,9.4-17.5,18.5-16.7c9,0.8,16.1,8.3,16.2,16.9 C1453.5,1586,1445,1594.7,1436,1594.5"/><path d="M1247.2,1403.1c-9.7-0.4-16.6-8.6-15.7-18.6c0.8-8.9,8.1-15.4,17.2-15.2c9.9,0.2,17.3,8,16.9,17.7 C1265.1,1396.7,1257.3,1403.5,1247.2,1403.1"/><path d="M1686.8,2103.1c-9.1,0.2-17.4-8.3-17.3-17.8c0.1-8.8,7.4-16.3,16.2-16.6c9.7-0.3,18.3,7.4,18.5,16.5 C1704.3,2094.3,1696.1,2102.8,1686.8,2103.1"/><path d="M1327.7,1450.5c-0.2,9.9-8,17.1-17.9,16.5c-9-0.5-16-7.6-16.2-16.4c-0.3-9.8,7.1-17.3,17.1-17.4 C1320.7,1433.1,1327.9,1440.4,1327.7,1450.5"/><path d="M1515.9,1640.6c0.4,8.3-7,16.2-16,17.1c-9,0.9-18.1-7.5-18.2-16.9c-0.1-8.7,7.1-16.5,15.9-17.2 C1506.8,1622.9,1515.4,1630.9,1515.9,1640.6"/><path d="M1748.6,2420.3c-9.9-0.2-16.9-7.9-16.3-18c0.5-9,7.6-15.7,16.7-15.8c9.9,0,17.6,7.5,17.4,17.1 C1766.3,2413.4,1758.7,2420.5,1748.6,2420.3"/><path d="M1766.5,2531.6c-0.3,9.2-9.1,17-18.5,16.2c-8.5-0.7-15.5-8.4-15.6-17.2c-0.2-9.8,7.5-17.3,17.4-17 C1759.6,2513.9,1766.8,2521.7,1766.5,2531.6"/><path d="M889.4,1132.6c-0.3,8.8-8,16.6-16.3,16.8c-9.4,0.1-17.9-8.5-17.4-17.6c0.5-9,7.9-16.6,16.3-16.7 C881.6,1114.8,889.8,1123.2,889.4,1132.6"/><path d="M1372.8,1496.6c10.1-0.3,17.9,7,17.7,16.7c-0.2,9.5-8.2,17.5-17.5,17.5c-8.7,0-16.2-7.3-16.6-16 C1355.9,1504.9,1363.1,1496.9,1372.8,1496.6"/><path d="M1766.3,2657.6c0,9.4-8.2,17.8-17.4,17.7c-9.1-0.1-17-8.9-16.5-18.4c0.4-8.8,7.8-16.4,16.3-16.6 C1757.9,2640,1766.2,2648.2,1766.3,2657.6"/><path d="M701.6,1070.3c-0.6,8.5-8.8,15.6-17.5,15.3c-9.2-0.4-17-9.4-16.2-18.8c0.8-8.9,8.4-15.5,17.5-15 C695.1,1052.3,702.3,1060.5,701.6,1070.3"/><path d="M1578,1703.4c0.4,8.6-6.8,16.7-15.5,17.5c-9.4,0.9-18.1-7.3-17.9-16.8c0.2-8.6,7.9-16.4,16.5-16.6 C1569.7,1687.2,1577.6,1694.7,1578,1703.4"/><path d="M1623.7,1911.6c-9-0.2-16.5-7.4-16.8-16.3c-0.4-9.4,8.1-17.7,17.8-17.5c8.9,0.2,16.5,7.7,16.9,16.4 C1641.9,1903.8,1633.6,1911.9,1623.7,1911.6"/><path d="M1185.3,1339.1c-9.3-0.1-16.4-6.9-16.5-15.7c-0.1-9.5,8.2-18,17.2-17.6c8.7,0.3,16.3,7.7,16.5,16.2 C1202.8,1331.8,1195.4,1339.2,1185.3,1339.1"/><path d="M1765.6,2275.7c0.4,9.3-6.2,16.8-15.3,17.3c-9.2,0.5-16.9-6-17.6-15c-0.8-9.6,7-18.6,16.3-18.7 C1757.4,2259.2,1765.1,2266.8,1765.6,2275.7"/><path d="M1765.4,2148.6c0.3,9.1-7,17.2-15.6,17.3c-8.8,0.2-16.7-7.1-17.1-16c-0.5-9,6.6-16.7,15.7-17 C1757.6,2132.6,1765.1,2139.5,1765.4,2148.6"/><path d="M388.1,1005.4c-0.1,8.4-8,16.2-16.3,16.3c-9.5,0-17.1-8.2-16.6-17.9c0.4-8.8,8-15.4,17.1-15 C381,989.3,388.3,996.8,388.1,1005.4"/><path d="M826.1,1069.5c-0.8,8.9-8.7,16.2-16.9,15.6c-9.4-0.7-16.5-9.8-15.1-19.2c1.3-8.7,9.2-14.1,18.6-12.9 C820.8,1054,826.9,1061.5,826.1,1069.5"/><path d="M1060.9,1211.5c-9,0.2-16.7-7-16.9-15.6c-0.2-8.6,7.3-16.5,16-16.7c8.4-0.2,16.5,7.4,16.9,15.9 C1077.3,1203.7,1069.9,1211.4,1060.9,1211.5"/><path d="M1812.5,2578.6c9.1,0.2,16.1,7.7,15.5,16.4c-0.6,8.9-8.4,16.3-16.7,15.8c-8.6-0.5-15.6-8.2-15.5-17 C1795.9,2584.9,1803.2,2578.3,1812.5,2578.6"/><path d="M1123.8,1242.5c8.9,0.4,16.2,8.4,15.7,17.2c-0.5,9.2-7.8,15.8-17.2,15.4c-9-0.3-16.3-8.2-15.9-16.9 C1106.8,1249.7,1115.2,1242.1,1123.8,1242.5"/><path d="M1686.5,1942.2c9-0.2,16.1,7,16.1,16.3c0,9.1-7.1,16.5-16,16.6c-8.5,0.1-16.5-7.8-16.4-16.4 C1670.1,1949.9,1677.6,1942.4,1686.5,1942.2"/><path d="M513.2,1005c-0.3,8.6-8,16.3-16.4,16.3c-8.6,0-16.2-7.7-16-16.4c0.2-9,7.3-16.1,16.2-16.1 C505.8,989,513.5,996.6,513.2,1005"/><path d="M1640,1767.8c0.1,8.5-6.2,15.2-14.7,15.6c-9.1,0.5-16.9-6.1-17.8-15.1c-0.8-8.3,7-16.6,16-17 C1632,1751,1639.8,1758.8,1640,1767.8"/><path d="M1811.3,2705.7c9.2-0.3,16.7,6.8,16.6,15.9c-0.1,8.2-6.8,14.8-15.3,15c-9.5,0.3-16.8-6.7-16.5-15.7 C1796.3,2712.6,1802.9,2706.1,1811.3,2705.7"/><path d="M1811.5,2451c8.5-0.3,16.4,7.6,16.4,16.3c0,7.8-6.8,15.2-14.6,16.1c-8.2,1-16.8-6.6-17.3-15.3 C1795.4,2459.4,1802.8,2451.3,1811.5,2451"/><path d="M324.7,940.7c0.5,7.5-6,15.3-13.8,16.4c-8,1.2-16.7-6.4-17.2-14.9c-0.4-7.6,6-15.2,13.9-16.4 C315.4,924.6,324.1,932.1,324.7,940.7"/><path d="M1811.4,2323.8c7.6-0.4,15.3,6.4,16.3,14.4c1,8.4-6.5,17-15.2,17.4c-7.8,0.4-15.3-6.2-16.2-14.3 C1795.2,2332.8,1802.6,2324.3,1811.4,2323.8"/><path d="M622.7,1020.9c-8.4,0.4-16.5-7.6-16.5-16.3c0-7.8,6.8-14.8,15.1-15.4c8.1-0.6,15.5,5.8,16.1,14 C638.2,1012.2,631.3,1020.6,622.7,1020.9"/><path d="M1389.3,1386.3c-0.1,8.6-8.3,16.5-16.5,15.7c-7.9-0.7-14.5-7.9-14.5-15.8c0-8.6,8.2-16.4,16.5-15.6 C1382.7,1371.3,1389.4,1378.6,1389.3,1386.3"/><path d="M1749.8,2006.4c7.9,0.4,14.9,7.5,15.1,15.5c0.2,8.6-8,16.8-16.4,16.3c-8-0.5-14.9-7.7-15.1-15.6 C1733.1,2014,1741.2,2006,1749.8,2006.4"/><path d="M1701.8,1832.1c-0.6,8.1-8,15-15.8,14.7c-8.7-0.3-16.3-9-15.1-17.4c1-7.7,9-14.2,16.9-13.7 C1695.5,1816.2,1702.4,1824.2,1701.8,1832.1"/><path d="M1514.2,1514.2c-0.2,8.2-7.1,14.9-15.4,14.9c-7.9,0-14.7-7-15-15.4c-0.3-8.4,6.2-15.6,14.3-15.9 C1506.9,1497.5,1514.4,1505.1,1514.2,1514.2"/><path d="M1750.3,1879.7c7.7,0.4,14.6,8.2,14.1,15.9c-0.5,7.8-7.8,14.8-15.4,14.7c-8.5-0.1-16.1-8.7-15.1-17 C1734.7,1885.8,1742.6,1879.3,1750.3,1879.7"/><path d="M1013.8,1132.7c-0.6,8.9-8.3,15.4-17.6,14.7c-8.4-0.6-14.8-7.7-14.3-15.8c0.6-9.1,8.2-15.5,17.5-14.7 C1007.8,1117.6,1014.3,1124.8,1013.8,1132.7"/><path d="M1311.7,1307.5c8.2,0.4,15.2,7.7,14.8,15.5c-0.4,8-7.5,15.1-15.3,15.3c-8.6,0.2-16.5-8.2-15.8-16.7 C1296.1,1313.6,1303.6,1307,1311.7,1307.5"/><path d="M1435.2,1465.6c-7.8-0.6-14.4-8-14.3-16.2c0.1-8.8,8.8-16.3,17.2-15c8,1.2,13.9,8.9,13.3,17 C1450.8,1459.2,1442.8,1466.1,1435.2,1465.6"/><path d="M1889.7,2403.5c0.4,7.9-6.8,15.4-14.9,15.4c-7.9,0-15.2-7.2-15.4-15.2c-0.3-8,7.1-15.6,14.9-15.5 C1882.3,2388.4,1889.2,2395.2,1889.7,2403.5"/><path d="M747.8,1020.3c-8,0.4-15.5-6.2-16.1-14.2c-0.5-7.7,6.2-15.6,14-16.6c8.3-1,16.8,6.7,17.1,15.4 C763,1012.7,756.1,1019.9,747.8,1020.3"/><path d="M1889.7,2530.5c-0.2,8.4-6.8,15.1-15.1,15.1c-8.3,0-15.4-6.9-15.3-14.8c0.1-8,7.2-15.2,15.1-15.3 C1882.4,2515.3,1889.8,2522.7,1889.7,2530.5"/><path d="M559.7,956.6c-8.1,0.2-15.3-6.8-15.4-14.8c-0.1-8.2,6.4-15.2,14.7-15.6c8-0.5,15.2,6.5,15.3,14.7 C574.3,949.2,567.6,956.5,559.7,956.6"/><path d="M1811.9,2198c8.3,0,15.2,6.5,15.3,14.5c0.2,8.6-7.8,15.8-16.8,15.3c-8.2-0.4-14.6-7.5-14.2-15.6 C1796.7,2204,1803.3,2198,1811.9,2198"/><path d="M873.3,990c8,0.3,14.4,7.7,14,16.1c-0.4,7.8-6.4,13.4-14.2,13.4c-8.6,0-15.5-6.7-15.2-14.7 C858,996.9,865.6,989.7,873.3,990"/><path d="M1623.9,1625.8c8.1-0.1,15,6.7,15,14.9c0,8.2-6.8,14.8-15.1,14.6c-8.4-0.2-15.2-6.8-15.2-14.8 C1608.6,1632.6,1615.6,1625.9,1623.9,1625.8"/><path d="M1186.4,1210.6c-8.2,0.2-15.5-6.2-15.9-14.1c-0.5-7.9,6.2-14.9,14.6-15.4c8.4-0.4,15.3,5.7,15.8,14 C1201.2,1203.2,1194.6,1210.3,1186.4,1210.6"/><path d="M449.3,942.4c-0.5,8-8,14.7-15.9,14.2c-7.8-0.5-14.6-8.4-14-16.2c0.6-8.1,8.5-15.1,15.9-14.2 C443.8,927.2,449.8,934.2,449.3,942.4"/><path d="M935,1053.3c8.2,0,15,6.7,15.2,14.9c0.3,8.2-6.3,14.8-14.9,15c-8.5,0.2-15-6.2-15.1-14.7 C920.1,1060.3,926.9,1053.3,935,1053.3"/><path d="M1562,1591.9c-8.5,0.3-15.2-5.8-15.7-14.1c-0.4-8.3,5.8-15.2,14.1-15.8c8-0.6,15.2,6,15.6,14.2 C1576.6,1584.5,1570.3,1591.6,1562,1591.9"/><path d="M1247.5,1244.8c8.7-0.3,15.7,5.8,15.9,13.6c0.1,7.8-6.6,15.2-14.4,15.8c-7.8,0.5-15.3-6.1-15.9-14.1 C1232.6,1252.2,1239.3,1245.1,1247.5,1244.8"/><path d="M1810.9,2100.1c-8.5-0.4-15.1-7.6-14.2-15.3c1-8.2,8.2-14.6,16-14.1c8,0.5,14.7,8,14.2,15.8 C1826.3,2094.6,1819.4,2100.5,1810.9,2100.1"/><path d="M1811.5,1972.7c-8.6-0.2-15.2-7.3-14.4-15.3c0.8-7.3,7.3-13,14.8-13.1c8.2,0,14.8,7.1,14.2,15.5 C1825.5,1967.4,1819.3,1972.9,1811.5,1972.7"/><path d="M1889.3,2277.4c-0.4,7.7-8.5,14.7-16,13.8c-7.8-0.9-14.4-8.9-13.5-16.5c0.8-7.4,7.2-12.7,15-12.4 C1883.1,2262.5,1889.7,2269.4,1889.3,2277.4"/><path d="M1685.6,1718.8c-8.2-0.5-14.8-8-13.9-15.8c0.9-8.1,8.2-13.9,16.6-13.1c7.4,0.6,13.5,7.5,13,14.6 C1700.7,1712.5,1693.4,1719.3,1685.6,1718.8"/><path d="M1874.4,2643.2c8-0.2,15.2,7,15,14.9c-0.3,7.9-7.4,14.4-15.7,14.2c-7.4-0.2-13.9-6.5-13.9-13.7 C1859.6,2650.7,1866.5,2643.4,1874.4,2643.2"/><path d="M699.3,941.2c0.3,7.2-5.8,13.7-13.4,14.4c-8.6,0.8-15.5-5.3-15.6-13.8c-0.1-7.7,5.5-13.9,13.1-14.5 C691.6,926.6,699,933.1,699.3,941.2"/><path d="M386.1,877c0.3,7.7-5.2,14.2-12.7,14.9c-8.1,0.8-15.7-5.5-16.3-13.5c-0.6-7.9,6.4-14.8,14.9-14.8 C379.9,863.6,385.8,869.2,386.1,877"/><path d="M1137.8,1131.5c0.3,8.2-6.5,15-14.7,15c-7.7-0.1-13.8-5.6-14.4-13.1c-0.7-8.3,5.3-15.4,13.6-16 C1130.3,1116.8,1137.5,1123.4,1137.8,1131.5"/><path d="M1749.8,1754.1c7.3,0.4,13.5,6.8,13.5,14.1c0,7.6-8.2,14.9-15.6,13.9c-7.2-1-12.7-7.7-12.3-15.2 C1735.7,1759.6,1742.3,1753.7,1749.8,1754.1"/><path d="M823.9,940.7c0.4,7.7-5.4,13.7-13.4,13.9c-8,0.2-14.2-5.4-14.3-13c-0.1-7.8,5.6-13.9,13.4-14.1 C817.4,927.4,823.5,933,823.9,940.7"/><path d="M1247.6,1118.2c7-0.4,14.1,5.9,14.5,13c0.4,7.1-5.5,13.8-12.9,14.6c-6.9,0.7-13.9-5.7-14.3-13 C1234.5,1125.3,1240.2,1118.7,1247.6,1118.2"/><path d="M1061,1082.4c-7.6,0.2-14-5.5-14.5-13c-0.6-8.2,6.5-15.6,14.4-15.2c7,0.4,13.5,7.1,13.7,14.3 C1074.8,1075.7,1068.5,1082.2,1061,1082.4"/><path d="M1888.5,2149.2c-0.1,7.7-6.2,14-13.6,14.2c-8.1,0.2-15.5-7.5-14.7-15.3c0.7-7.3,7.6-13.5,14.8-13.3 C1882.5,2135.1,1888.6,2141.6,1888.5,2149.2"/><path d="M1950.6,2594.9c-0.4,7.5-6.9,13.5-14.4,13.2c-7.5-0.3-13.8-7.3-13.2-14.4c0.7-7.5,7.5-13.7,14.5-13.3 C1945.1,2580.7,1951,2587.3,1950.6,2594.9"/><path d="M1435.5,1336.9c-7.2-0.3-13.5-7.1-13.4-14.4c0-7.3,6.7-13.4,14.3-13.1c7.6,0.3,13.6,6.6,13.4,14.1 C1449.5,1330.8,1442.8,1337.2,1435.5,1336.9"/><path d="M1310.9,1209.5c-7.2-0.1-13.9-6.6-13.9-13.7c0-7.1,6.4-13.6,13.7-13.8c7.1-0.2,13.5,6.3,13.6,13.7 C1324.4,1203.1,1318.1,1209.6,1310.9,1209.5"/><path d="M1373.7,1245.5c7.5,0,13.7,6.4,13.7,14c0,7.3-6.6,13.7-14.1,13.8c-7.2,0.1-14-6.8-13.8-14 C1359.7,1251.9,1366.3,1245.5,1373.7,1245.5"/><path d="M1687.3,1563.4c7.3,0.3,13.6,7.3,12.8,14.5c-0.8,7.4-7.8,13.3-14.9,12.5c-6.6-0.7-11.9-6.8-11.8-13.5 C1673.4,1569.6,1680,1563.1,1687.3,1563.4"/><path d="M1937.7,2734.9c-7,0.5-14.2-6.1-14.3-13.3c-0.1-7,6.7-13.8,13.9-13.9c6.4-0.1,12.4,5.6,13,12.4 C1951,2727.5,1945.2,2734.3,1937.7,2734.9"/><path d="M1937.7,2226.3c-7,0.5-14.2-6.1-14.3-13.3c-0.1-7,6.7-13.8,13.9-13.9c6.4-0.1,12.4,5.6,13,12.4 C1951,2219,1945.2,2225.7,1937.7,2226.3"/><path d="M1512.4,1386c0.2,7.6-5.7,14-13.1,14.1c-7.5,0.1-13.9-5.6-14.5-12.9c-0.6-7.1,5.7-13.7,13.3-14 C1505.7,1372.9,1512.2,1378.7,1512.4,1386"/><path d="M1950.5,2466.8c0.2,7.4-5.9,13.5-13.6,13.6c-7.6,0-14.1-6.1-14-13.2c0.1-7.4,6.2-13.5,13.7-13.7 C1944.2,2453.1,1950.3,2459.1,1950.5,2466.8"/><path d="M1560.5,1436.3c7.6-0.2,14,5.3,14.7,12.7c0.7,7.1-5.4,13.8-13,14.2c-7.7,0.4-14.2-5.2-14.6-12.5 C1547.3,1443,1553.1,1436.5,1560.5,1436.3"/><path d="M496.4,891.5c-7.5-0.4-13.5-6.6-13.4-14c0.1-7.2,6.6-13.1,14.3-12.9c7.6,0.2,13.7,6.7,13.3,13.9 C510.2,886,503.8,891.8,496.4,891.5"/><path d="M1011.3,1005.5c-0.2,7.3-7,13.3-14.5,12.7c-6.8-0.5-12.4-6.2-12.6-12.7c-0.2-7.3,6.1-13.7,13.6-13.9 C1005.2,991.4,1011.5,997.9,1011.3,1005.5"/><path d="M1825.2,1832.8c-0.5,7.5-7.3,12.8-15.1,11.8c-6.9-0.8-11.8-6.5-11.7-13.5c0.1-7.4,6.7-13.5,14.2-13.1 C1820.1,1818.5,1825.7,1825.1,1825.2,1832.8"/><path d="M635.9,878.5c-0.5,7.4-7,12.9-14.7,12.3c-7.6-0.5-13.2-7.3-12.2-14.7c0.8-6.6,6.8-11.6,13.6-11.5 C630.1,864.9,636.4,871.4,635.9,878.5"/><path d="M1624.1,1526.8c-7.4,0-13.7-6.6-13.4-13.8c0.3-6.9,5.8-12.4,12.4-12.7c7.7-0.4,14.3,5.5,14.5,12.7 C1637.7,1520.3,1631.3,1526.8,1624.1,1526.8"/><path d="M1950.3,2339.4c0.2,7.6-5.9,13.9-13.3,13.8c-6.9-0.1-12.6-5.1-13.4-11.7c-0.8-7.3,5-14.3,12.3-14.8 C1943.3,2326.1,1950.1,2332.1,1950.3,2339.4"/><path d="M1887.5,2021.4c0.4,7.4-5.8,14-13.1,13.9c-7.3-0.1-13.6-6.5-13.6-13.7c0-6.5,5.4-12.1,12.3-12.7 C1880.6,2008.2,1887,2013.9,1887.5,2021.4"/><path d="M1937.4,2072.8c6.6,0.1,12.2,5.7,12.6,12.4c0.5,7.2-6.4,14.1-13.4,13.6c-7.4-0.6-13.4-7.5-12.7-14.6 C1924.6,2077.7,1930.4,2072.7,1937.4,2072.8"/><path d="M435.2,801.3c6.5,0.3,12.2,6.4,12.1,12.8c-0.1,7.4-6.4,13.2-14.1,12.8c-6.9-0.3-12.4-6-12.2-12.6 C421.3,807.1,428,801,435.2,801.3"/><path d="M1198.7,1068.2c0.2,6.6-5.2,12.6-12.1,13.4c-6.4,0.7-13-4.9-13.6-11.6c-0.8-7.7,5.4-14.4,13-14.3 C1192.9,1055.8,1198.4,1061.3,1198.7,1068.2"/><path d="M2012.3,2656.9c0.5,6.4-4.7,12.6-11.4,13.5c-6.9,1-14.1-5.6-14.1-12.8c0-6.5,5.9-12.4,12.4-12.6 C2005.7,2644.8,2011.7,2650.3,2012.3,2656.9"/><path d="M1748.7,1654c-6.5-0.2-12.3-6.4-12.3-13.2c0-6.9,5.7-12.9,12.4-13c7.9-0.1,13.9,6.3,13.2,14.1 C1761.4,1648.8,1755.5,1654.2,1748.7,1654"/><path d="M934.5,928.8c6.8-0.3,12.9,4.8,13.6,11.4c0.8,7.2-5.7,14.1-13.2,14c-6.8-0.1-12.4-5.7-12.5-12.5 C922.3,934.9,927.7,929.1,934.5,928.8"/><path d="M1999.9,2415.9c-6.9,0.1-12.5-5.5-12.6-12.4c-0.1-6.8,5.7-12.7,12.4-12.6c6.7,0,12.6,5.9,12.7,12.5 C2012.4,2410,2006.6,2415.8,1999.9,2415.9"/><path d="M1123.3,992.8c6.9,0,12.4,5.7,12.1,12.6c-0.2,6.7-6.1,12.2-12.8,12.2c-6.5,0-12.5-6.2-12.2-12.8 C1110.7,998.2,1116.4,992.8,1123.3,992.8"/><path d="M2011.9,2148.5c0.4,6.7-5.3,12.9-12,13.1c-6.7,0.2-12.7-5.7-12.8-12.4c-0.1-6,4.8-11.1,11.1-11.7 C2005.6,2136.9,2011.5,2141.7,2011.9,2148.5"/><path d="M1887.1,1894.1c0.4,6.7-4.7,12.6-11.6,13.3c-7,0.7-13.1-4-13.9-10.6c-0.9-7.5,4.9-14.3,12.4-14.6 C1880.5,1881.9,1886.7,1887.5,1887.1,1894.1"/><path d="M1824.3,1704.2c0.1,6.8-5.4,12.4-12.3,12.4c-6.9,0-12.4-5.5-12.4-12.3c0-6.9,5.7-12.8,12.2-12.6 C1818.4,1691.9,1824.2,1697.6,1824.3,1704.2"/><path d="M572.2,815.6c-0.6,6.5-6.8,11.3-13.9,10.7c-6.9-0.6-12.3-7-11.2-13.4c1.1-6.7,7.6-11.9,13.8-11.1 C567.5,802.8,572.7,809.1,572.2,815.6"/><path d="M746.5,865.1c6.7-0.5,13,4.6,13.9,11c0.9,7.3-5,13.9-12.7,14.1c-6.7,0.2-12.5-5.1-12.8-11.9 C734.5,871.6,739.8,865.6,746.5,865.1"/><path d="M1949.4,1959.1c-0.3,6.7-6.7,12.3-13.2,11.5c-7-0.8-12.1-7-11.2-13.5c0.8-5.8,6.3-10.6,12.2-10.7 C1943.7,1946.4,1949.7,1952.6,1949.4,1959.1"/><path d="M2012.1,2531.2c-0.7,6.7-6.8,12.3-13.1,12c-6.5-0.4-12.1-6.5-12-13.1c0.1-7.3,7.3-12.7,15-11.3 C2008,2519.8,2012.7,2525.6,2012.1,2531.2"/><path d="M1623,1398.4c-6.6-0.3-12.2-6.9-11.4-13.4c0.7-5.8,6.3-10.9,12-10.9c6.8,0,12.6,5.9,12.4,12.5 C1635.8,1393.3,1629.9,1398.7,1623,1398.4"/><path d="M321.5,814.6c-0.3,6.8-5.9,12-12.8,12c-7.1,0-12.6-5.2-12.5-12c0.1-7.6,6.4-13.7,13.7-13.2 C316.5,801.8,321.8,807.9,321.5,814.6"/><path d="M873.1,865.3c6.6,0.2,12.3,6.4,11.9,13c-0.4,6.7-6.5,12.1-13.1,11.8c-6.8-0.4-12.2-6.2-11.9-12.9 C860.3,870.5,866.3,865.1,873.1,865.3"/><path d="M2000.5,2287.9c-7.2,0.5-13-4.9-12.9-11.9c0.1-6.2,4.9-11.4,11.1-11.8c6.6-0.5,12.8,5.4,13,12.2 C2011.9,2282.4,2007,2287.5,2000.5,2287.9"/><path d="M1497.8,1247c6.6-0.6,12.9,5.2,13.1,12.1c0.2,6-4.7,11.2-11.1,11.7c-6.4,0.5-11.8-3.7-12.8-9.8 C1485.8,1254,1490.7,1247.6,1497.8,1247"/><path d="M1573.3,1322.3c0.2,6.8-5.2,12.4-12.1,12.4c-6,0-11.5-4.8-12.1-10.5c-0.6-6.4,4.8-12.8,11.3-13.5 C1566.9,1310,1573.1,1315.6,1573.3,1322.3"/><path d="M1686.4,1462c-5.8,0.1-11.3-4.9-12-10.9c-0.7-6.5,5.1-13,11.7-13.1c5.9-0.1,11.3,4.8,11.9,10.9 C1698.7,1455.6,1693.1,1461.9,1686.4,1462"/><path d="M1436.3,1183.7c6.6,0,12.4,6.1,12.1,12.6c-0.3,6.7-6.2,11.6-13.3,11.2c-6.2-0.4-10.8-5.1-11-11.4 C1423.9,1189.2,1429.4,1183.7,1436.3,1183.7"/><path d="M496.3,738.8c6-0.3,11.5,4.5,12,10.6c0.6,6.9-5,12.8-11.9,12.7c-6.3-0.2-11.1-5.3-11-11.4 C485.6,744.1,490.3,739.1,496.3,738.8"/><path d="M684.1,825.8c-6-0.2-11.2-5.3-11.5-11.2c-0.3-6.4,5.8-12.6,12.3-12.5c6.6,0.1,12.1,6.6,11.3,13.3 C695.5,821.4,690,826.1,684.1,825.8"/><path d="M1999.6,2034c-6,0-11.4-5.3-11.5-11.2c-0.1-6.9,5.8-12.6,12.6-12.1c6.1,0.4,10.7,5.8,10.5,12.1 C2010.9,2028.7,2005.5,2034,1999.6,2034"/><path d="M1385.6,1131.5c0.3,5.8-4.6,11.6-10.4,12.4c-6.9,0.9-13-4.2-13.4-11.2c-0.4-6.2,4.2-11.7,10.2-12.3 C1379,1119.7,1385.2,1124.8,1385.6,1131.5"/><path d="M1874.2,1779.3c-6.2-0.1-11.1-4.8-11.4-10.9c-0.3-7,5.4-13,11.9-12.6c6.7,0.5,12.3,6.8,11.7,13.2 C1885.8,1774.6,1880.3,1779.3,1874.2,1779.3"/><path d="M1061,929.4c6.9,0.6,12.1,6.9,11.2,13.7c-0.7,5.8-6.7,10.7-12.5,10.3c-6.8-0.5-12.1-7-11.2-13.7 C1049.5,933.6,1055.1,928.9,1061,929.4"/><path d="M2073.7,2594.4c-0.2,6.4-4.9,11.5-11,11.7c-6.8,0.3-12.6-5.9-12-12.7c0.5-6.1,6-10.8,12.1-10.6 C2069,2583.1,2073.9,2588.2,2073.7,2594.4"/><path d="M2062.1,2455.5c5.8-0.1,11.3,5,11.8,10.9c0.5,6.7-5.6,12.8-12.3,12.4c-6.1-0.4-11-5.8-10.8-11.9 C2051,2460.9,2056.2,2455.6,2062.1,2455.5"/><path d="M821.6,814.9c-0.5,5.9-6,10.9-11.8,10.7c-6.7-0.2-12.3-6.8-11.2-13.1c1-5.8,6.9-10.3,12.7-9.6 C817.2,803.5,822.1,809.2,821.6,814.9"/><path d="M1009.2,878.2c-0.3,6-5.7,11.2-11.5,11.2c-6.6,0-12.3-6.7-11.5-13.2c0.7-5.8,6.8-10.7,12.5-10.1 C1004.9,866.8,1009.6,872.2,1009.2,878.2"/><path d="M1247.7,1016.3c-6.1-0.3-11.1-5.5-11.1-11.3c0.1-6.6,6.6-12.4,12.9-11.4c5.8,0.9,10.6,6.7,10.1,12.4 C1259.1,1011.8,1253.6,1016.6,1247.7,1016.3"/><path d="M1749.7,1524.9c-5.9,0.4-11.4-4.4-12.1-10.3c-0.6-5.6,4.2-11.6,10-12.5c6.4-1,12.9,4.7,13,11.3 C1760.7,1519.3,1755.7,1524.5,1749.7,1524.9"/><path d="M383.2,750.9c-0.1,6-5.5,11.1-11.7,10.9c-6.1-0.2-11.2-5.5-11.1-11.6c0.1-6.2,5.4-11.1,11.6-10.9 C378.4,739.5,383.3,744.7,383.2,750.9"/><path d="M1322.4,1067.8c0.4,6-4.6,11.6-10.7,12c-6.2,0.5-11.7-4.3-12.1-10.4c-0.4-6,4.6-11.6,10.7-12.1 C1316.2,1056.9,1322,1061.8,1322.4,1067.8"/><path d="M1811.7,1566.2c6.1-0.1,11.5,5.3,11.2,11.2c-0.3,5.6-4.5,10.1-9.8,10.5c-6.3,0.5-11.6-3.9-12.2-10.2 C1800.3,1571.9,1805.6,1566.3,1811.7,1566.2"/><path d="M1185.9,952.5c-6.2-0.1-11.3-5.5-11-11.5c0.3-6.1,6-11.2,11.8-10.7c5.1,0.4,9.6,5.3,10,10.6 C1197.1,946.9,1191.8,952.6,1185.9,952.5"/><path d="M946.2,814.6c-0.3,6.2-5.9,11.3-11.7,10.7c-5.9-0.7-10.8-6.8-10-12.5c0.7-5.3,5.4-9.4,10.8-9.5 C941.6,803.2,946.5,808.3,946.2,814.6"/><path d="M1948,1830.9c0.2,6.3-4.8,11.6-10.8,11.5c-6-0.1-11.1-5.6-10.9-11.6c0.2-5.3,4.7-9.9,10-10.4 C1942.5,1819.9,1947.9,1824.7,1948,1830.9"/><path d="M2072.8,2339.1c0.3,6.2-4.7,11.8-10.6,11.8c-6.1,0-11.1-5.2-11.1-11.5c0.1-5.4,4.1-9.8,9.7-10.6 C2066.9,2328,2072.5,2332.9,2072.8,2339.1"/><path d="M1133.5,877.2c0.4,5.1-3.7,10.3-8.9,11.2c-5.7,0.9-11.7-3.9-12.2-9.8c-0.5-5.5,3.3-10.2,8.8-11 C1127.3,866.7,1133,871.1,1133.5,877.2"/><path d="M621.2,761.5c-6.1-0.4-10.7-6-10.1-12.1c0.6-6.1,6-10.1,12.5-9.4c5.4,0.6,9.4,5.4,9.2,10.8 C632.6,756.9,627.1,761.9,621.2,761.5"/><path d="M1875.4,1651c-6.3,0.4-11.9-4.7-11.8-10.6c0.1-5.1,4.8-10,10.1-10.4c6.1-0.5,11.8,4.7,11.7,10.7 C1885.5,1646,1880.9,1650.7,1875.4,1651"/><path d="M2135.4,2531c-0.1,5.3-4.6,9.7-10,9.9c-6.6,0.2-11.5-4.5-11.1-10.6c0.4-5.9,6.2-10.9,11.9-10.2 C2131.2,2520.8,2135.5,2525.9,2135.4,2531"/><path d="M2009.7,1894.3c0.3,5.5-3.7,10.3-9.1,11c-5.9,0.8-11.4-4.6-11.2-10.8c0.2-5.5,4.8-10.1,10.1-10.2 C2004.7,1884.3,2009.4,1888.8,2009.7,1894.3"/><path d="M2063,2710.9c5.4,0.4,9.8,5,9.9,10.4c0,6.2-5.3,11.2-11.6,10.7c-5.4-0.4-9.8-5.1-9.9-10.4 C2051.3,2715.5,2056.7,2710.5,2063,2710.9"/><path d="M757.7,751.9c-0.6,5.3-5.6,9.6-10.9,9.4c-6.2-0.3-11.1-6.3-9.8-12.2c1.2-5.4,6.2-9,11.7-8.3 C754,741.4,758.3,746.7,757.7,751.9"/><path d="M2062.1,2202.4c5.6-0.1,10.1,4,10.6,9.5c0.6,6.3-4.3,11.6-10.5,11.6c-5.6,0-10.1-4.1-10.7-9.5 C2050.9,2207.7,2055.6,2202.5,2062.1,2202.4"/><path d="M308.6,676.9c5.5-0.3,10.3,3.8,10.9,9.2c0.7,6-4.6,11.6-10.8,11.3c-5.3-0.2-10.1-5.1-10.2-10.2 C298.5,682.1,303.2,677.2,308.6,676.9"/><path d="M1759.7,1387.1c-0.3,5.3-5.1,9.7-10.6,9.6c-6.2-0.1-11.1-5.8-10.2-12c0.8-5.3,6-9.2,11.4-8.6 C1755.6,1376.7,1760,1381.8,1759.7,1387.1"/><path d="M1697.1,1323c0.1,5.1-4.4,10.1-9.5,10.5c-5.8,0.4-11.3-4.7-11.4-10.6c-0.1-5.5,3.8-9.7,9.4-10.2 C1691.9,1312.2,1697,1316.8,1697.1,1323"/><path d="M444.7,687.2c0,5.3-4.5,10-9.8,10.2c-6,0.2-11.4-5.4-10.7-11.2c0.6-5.3,5.4-9.4,10.7-9.2 C440.3,677.2,444.7,681.8,444.7,687.2"/><path d="M1320.8,941.5c0,5.7-4.3,9.8-9.9,9.6c-5.8-0.1-9.9-4.2-9.8-9.8c0.1-5.6,4.3-9.8,10-9.7 C1316.7,931.7,1320.9,935.9,1320.8,941.5"/><path d="M684.1,677.3c5.2-0.3,10.1,4,10.5,9.3c0.4,5.1-4,10.1-9.3,10.6c-5.2,0.5-10.1-3.9-10.4-9.3 C674.6,682.5,678.8,677.6,684.1,677.3"/><path d="M1821.7,1450.8c-0.4,5.6-4.8,9.4-10.6,9c-5.6-0.4-9.6-4.9-9.1-10.5c0.4-5.5,5.1-9.4,10.6-9 C1818.2,1440.6,1822.1,1445.2,1821.7,1450.8"/><path d="M1436.4,1058.1c5.3,0.3,9.9,4.9,10,10.1c0.1,6-5.4,10.9-11.6,10.2c-5.3-0.5-9.6-5.7-8.9-10.8 C1426.5,1062.2,1431.3,1057.9,1436.4,1058.1"/><path d="M1947.4,1704.6c-0.1,5.4-4.7,9.9-10,10c-5.2,0.1-10.1-4.3-10.5-9.6c-0.5-5.9,4.9-11.3,11-10.9 C1943.3,1694.5,1947.6,1699.3,1947.4,1704.6"/><path d="M1624.6,1249.3c5.4,0.2,10,4.9,9.8,10.1c-0.2,5.2-4.9,10-10,10.2c-6.1,0.2-11.2-5.2-10.6-11.3 C1614.3,1252.9,1618.9,1249.1,1624.6,1249.3"/><path d="M2062,2075.4c5-0.2,10,4.6,10.3,9.8s-4.3,10.1-9.7,10.3c-5.5,0.2-10.2-4.2-10.3-9.6 C2052.3,2080.6,2056.8,2075.6,2062,2075.4"/><path d="M2072.1,1959.1c-0.4,5.6-5.1,9.5-10.8,8.9c-5.5-0.5-9.6-5.7-8.7-11.1c0.7-4.6,5.1-8.3,9.7-8.1 C2067.8,1949,2072.5,1953.9,2072.1,1959.1"/><path d="M1571.4,1194.8c0.4,5.3-3.9,10.4-9.2,10.9c-5.1,0.5-10-3.8-10.6-9.3c-0.6-5.3,3.6-10.3,9.1-10.7 C1566.1,1185.1,1571,1189.4,1571.4,1194.8"/><path d="M1508.4,1134.2c-1.1,5.4-6.3,8.9-11.7,7.8c-5.4-1.1-9-6.6-7.7-11.8c1.4-5.5,6.7-9.2,11.7-7.9 C1506,1123.7,1509.5,1129,1508.4,1134.2"/><path d="M1059.6,824c-5.4-0.6-9.4-5.7-8.6-11c0.8-5.4,5.9-8.9,11.4-7.9c4.6,0.9,8.1,5.2,7.8,9.7 C1069.9,820.1,1064.7,824.6,1059.6,824"/><path d="M872.5,760.7c-5.1,0.2-10-4.6-9.9-9.8c0.1-5.2,4.7-9.8,9.9-9.8c5.3-0.1,9.8,4.4,9.8,9.7 C882.3,755.9,877.8,760.5,872.5,760.7"/><path d="M559.6,697.2c-5.1,0-9.9-4.9-10.1-10.2c-0.1-5.3,4.6-10.1,10-10.1c5.3,0,10.2,4.8,10.1,10 C569.6,692.1,564.7,697.2,559.6,697.2"/><path d="M2124.6,2394c5.7-0.3,10.4,4.1,10.3,9.5c-0.1,5.4-4.8,9.8-10.3,9.7c-4.7-0.1-8.8-3.9-9.2-8.6 C2114.8,2399,2119,2394.2,2124.6,2394"/><path d="M2124.4,2667.5c-5.3-0.2-9.5-5.3-8.8-10.7c0.6-4.7,4.6-8.4,9.1-8.7c5.1-0.3,10.1,4.7,10,9.8 C2134.6,2663,2129.5,2667.7,2124.4,2667.5"/><path d="M1999.1,1758.4c5.3-0.5,10.2,4,10.2,9.3c0,5.2-4.9,10.1-9.9,10c-4.4-0.1-8.6-4-9.1-8.6 C1989.5,1763.9,1993.6,1758.9,1999.1,1758.4"/><path d="M1383.2,1005.4c-0.4,5.5-5.4,9.5-10.9,8.9c-4.6-0.5-8.5-4.7-8.7-9.3c-0.2-5.2,4.6-9.9,10.1-9.8 C1379.3,995.2,1383.6,999.9,1383.2,1005.4"/><path d="M2134.7,2276.6c0.1,5.1-5,10-10.1,9.6c-5.3-0.4-9.4-5.2-9-10.7c0.3-4.6,4.3-8.4,8.9-8.6 C2129.7,2266.8,2134.6,2271.4,2134.7,2276.6"/><path d="M1884.1,1512.3c0.5,5.6-3.6,10.3-9.1,10.6c-5.6,0.2-10.3-4.1-10.4-9.5c-0.1-4.4,3.8-8.8,8.4-9.6 C1878.3,1502.9,1883.6,1507,1884.1,1512.3"/><path d="M1006.8,750.2c0.4,4.6-3.1,9-7.9,9.7c-4.6,0.7-9.1-2.6-10.1-7.4c-1.1-5.2,3.4-10.8,8.7-11 C1001.9,741.5,1006.4,745.6,1006.8,750.2"/><path d="M380.1,625.3c-1.1,4.7-5.8,8-10.3,7.1c-5.5-1-9-6.8-7.3-11.9c1.5-4.5,6.7-7.3,11-6C378.2,615.9,381.2,620.8,380.1,625.3"/><path d="M506,623.7c-0.2,4.5-4.6,8.9-9,9c-4.4,0.1-8.9-4.1-9.3-8.6c-0.4-5.3,4.6-10.4,9.9-9.8C502.1,614.7,506.2,619.3,506,623.7"/><path d="M1945.9,1577c-0.1,4.6-4.3,8.9-8.8,9c-5.3,0.2-10-5-9.3-10.4c0.6-4.8,4.9-8.3,9.6-7.9 C1942.1,1568.2,1946.1,1572.5,1945.9,1577"/><path d="M622.9,632.7c-4.4,0.3-8.9-3.6-9.6-8.2c-0.7-5.3,4.2-10.6,9.5-10.3c4.4,0.2,8.8,4.8,8.8,9.2 C631.6,627.8,627.2,632.4,622.9,632.7"/><path d="M2134,2022.6c-0.5,4.7-4.6,8.4-9.3,8.4c-5.4,0-9.8-5.3-8.7-10.7c1-4.8,5.1-7.8,10.1-7.2 C2131.1,2013.8,2134.5,2017.9,2134,2022.6"/><path d="M819.2,686.9c0,5.3-5,10-10.2,9.6c-4.4-0.3-8.3-4.7-8.3-9.3c0-5.4,5-10.2,10.1-9.6C815.5,678.2,819.2,682.3,819.2,686.9"/><path d="M2008.2,1641.4c-0.5,4.6-5,8.3-9.5,7.9c-4.5-0.4-8.2-4.9-7.8-9.5c0.4-4.6,4.8-8.3,9.4-7.8 C2005,1632.4,2008.7,1636.8,2008.2,1641.4"/><path d="M2134.3,2149.1c0,4.4-4.2,9-8.6,9.4c-5.2,0.4-10.2-4.8-9.7-10.1c0.5-4.6,5-8.6,9.5-8.4 C2129.8,2140.1,2134.3,2144.7,2134.3,2149.1"/><path d="M2063,1822.6c4.6,0.4,8.6,4.7,8.5,9.2c-0.1,5.3-5.2,9.3-10.9,8.5c-4.7-0.6-8.1-5.3-7.3-9.9 C2054.2,1825.7,2058.4,1822.2,2063,1822.6"/><path d="M2196.5,2593.8c0.3,4.7-3.2,8.9-7.9,9.5c-4.6,0.6-9-2.7-9.8-7.4c-1-5.4,3.2-10.6,8.7-10.6 C2192.1,2585.3,2196.2,2589.1,2196.5,2593.8"/><path d="M1248.4,869c4.9,0.1,8.7,3.8,8.8,8.5c0.1,4.9-3.4,8.5-8.4,8.8c-5.8,0.3-10.3-4-9.8-9.4 C1239.5,872.2,1243.4,868.9,1248.4,869"/><path d="M1624.2,1140.9c-4.5-0.1-8.8-4.6-8.8-9.1c0-4.6,4.7-8.5,9.4-8c4.8,0.6,8.1,4.8,7.5,9.8 C1631.9,1137.5,1627.9,1141,1624.2,1140.9"/><path d="M935.6,678.4c4.7,0.4,8.5,5,8.1,9.6c-0.4,4.8-5,8.2-9.9,7.3c-4.1-0.8-7-4.2-7.1-8.4C926.5,682.1,930.9,677.9,935.6,678.4"/><path d="M1570.1,1068.2c0.1,4.4-4,8.8-8.3,8.9c-4.3,0.2-8.7-3.9-9-8.3c-0.3-4.5,3.5-8.5,8.3-8.7 C1565.8,1060,1570,1063.7,1570.1,1068.2"/><path d="M2196.6,2466.4c0.3,4.7-3.2,8.7-7.9,9.2c-4.7,0.5-9-2.6-9.8-7.2c-0.9-5.4,3.2-10.2,8.8-10.3 C2192.4,2458.1,2196.3,2461.7,2196.6,2466.4"/><path d="M1122.4,759c-4-0.1-7.6-3.5-7.8-7.5c-0.3-4.7,3.6-9.2,8.2-9.5c4.6-0.4,9,3.9,8.8,8.6C1131.4,755.6,1127.5,759.2,1122.4,759"/><path d="M2195.8,2339.2c0.2,4.7-3.5,8.6-8.3,8.5c-3.8,0-7.6-3.1-8.2-6.8c-0.8-4.3,2.9-9,7.4-9.5 C2191.3,2331,2195.6,2334.7,2195.8,2339.2"/><path d="M1882.6,1386.8c-0.4,4.7-4.6,8.1-9.3,7.5c-4.8-0.6-8.1-5-7.2-9.5c0.7-3.6,4.5-6.7,8.3-6.7 C1878.8,1378,1882.9,1382.4,1882.6,1386.8"/><path d="M317.2,559.1c0.3,4.7-3.6,9.2-8.1,9.4c-4.7,0.2-8.8-3.9-8.7-8.7c0.1-4.1,3.1-7.5,7.2-8.1 C312.6,550.9,316.9,554.2,317.2,559.1"/><path d="M1444.5,940.9c0.4,4.3-3.8,8.8-8.3,8.8c-3.7,0-7.6-3.1-8.3-6.8c-0.9-4.6,2.5-9,7.2-9.6 C1439.9,932.9,1444.1,936.3,1444.5,940.9"/><path d="M2179.1,2212.3c0.4-4.7,4.8-8.5,9.4-8.1c4.7,0.4,8,5,7.3,9.9c-0.6,3.9-4.2,7-8.2,7.1 C2182.9,2221.3,2178.7,2216.9,2179.1,2212.3"/><path d="M1695.1,1195.6c-0.1,4.8-4.1,8.5-9.1,8.3c-4-0.2-7.5-3.5-7.8-7.5c-0.4-4.7,3.4-9.1,8.1-9.4 C1690.9,1186.7,1695.1,1190.9,1695.1,1195.6"/><path d="M2195.8,2720.3c0.4,5-3.1,9.1-7.9,9.4c-4.7,0.3-9.1-3.9-8.9-8.5c0.1-4.5,4.7-8.7,9.1-8.6 C2191.9,2712.9,2195.5,2716.4,2195.8,2720.3"/><path d="M1194,814.6c-0.4,4.7-4.5,7.9-9.4,7.3c-3.9-0.5-7-3.8-7.1-7.7c-0.2-4.5,4-8.7,8.5-8.6C1190.6,805.8,1194.4,810,1194,814.6"/><path d="M1757.8,1260.1c-0.4,4.8-4.7,8.1-9.8,7.4c-4-0.5-7.2-4.2-7.1-8.1c0.1-4.5,4.6-8.9,9-8.7 C1754.4,1250.8,1758.2,1255.4,1757.8,1260.1"/><path d="M2133,1895.3c-0.3,4.8-4.3,8.1-9.1,7.6c-4.6-0.5-8.3-5.2-7.3-9.5c0.7-3.6,4.6-6.8,8.3-6.8 C2129.5,1886.6,2133.3,1890.7,2133,1895.3"/><path d="M1507,1005.3c-0.4,4.9-4.9,8.6-9.5,7.9c-4.1-0.6-7-4.2-6.9-8.3c0.1-4.9,4.4-8.3,9.4-7.7 C1504.2,997.7,1507.3,1001.4,1507,1005.3"/><path d="M747.8,631.9c-4.4,0.2-8.8-4.1-8.7-8.7c0.1-3.9,3.3-7.4,7.3-8c4.9-0.7,9.3,2.8,9.6,7.5 C756.2,627.4,752.5,631.7,747.8,631.9"/><path d="M1819.8,1322.9c-0.3,4.9-4.6,8.3-9.5,7.5c-4.3-0.6-7.2-4.1-6.8-8.2c0.4-4.9,4.9-8.6,9.5-7.7 C1816.9,1315.2,1820,1319,1819.8,1322.9"/><path d="M2257.7,2657.5c0.1,3.8-3.1,7.3-7,7.7c-4.7,0.5-8.7-3.6-8.3-8.3c0.4-3.9,3.9-6.9,7.9-6.8 C2254.3,2650.4,2257.6,2653.7,2257.7,2657.5"/><path d="M2132.5,1767.1c0.2,4.2-2.6,7.4-6.8,7.8c-4.1,0.4-7.8-2.3-8.5-6.1c-0.8-4.3,3.4-9.1,7.8-9.1 C2128.7,1759.8,2132.3,1763.3,2132.5,1767.1"/><path d="M2069.8,1704.6c0,4.1-3.5,7.3-7.7,7.3c-4.2,0-7.8-3.1-8.1-7.1c-0.4-4.9,3.6-8.7,8.7-8.2 C2066.9,1697,2069.8,1700.3,2069.8,1704.6"/><path d="M442,559.3c0.4,3.8-2.6,7.6-6.5,8.3c-4.6,0.9-8.9-2.8-8.8-7.6c0.1-4.1,3.1-7.2,7.3-7.4C437.9,552.5,441.7,555.6,442,559.3"/><path d="M567.1,561.2c-0.5,4.1-3.9,7-7.9,6.8c-4.6-0.2-8.1-4.9-7.1-9.5c0.9-3.9,4.6-6.3,8.7-5.6 C564.8,553.5,567.6,557.2,567.1,561.2"/><path d="M2250.5,2410.9c-3.8,0.3-7.5-3-7.8-7c-0.3-3.8,3-7.6,6.9-7.9c3.8-0.3,7.5,3,7.8,7 C2257.7,2406.9,2254.4,2410.6,2250.5,2410.9"/><path d="M2007.1,1514.4c-0.4,3.9-4,7.2-7.7,7.2c-4.5-0.1-8.2-4.9-7.3-9.4c0.8-3.9,4.6-6.5,8.6-5.9 C2004.6,1506.8,2007.5,1510.5,2007.1,1514.4"/><path d="M1944.4,1449.9c0.1,3.9-3.2,7.6-7,7.9c-3.9,0.3-7.7-2.7-8.3-6.5c-0.7-4.5,3.3-9,7.9-8.9 C1941,1442.4,1944.3,1445.9,1944.4,1449.9"/><path d="M1061.1,694.6c-5.2,0.4-9.1-3.1-8.9-8.1c0.1-3.9,3.7-7.3,7.9-7.2c4.1,0,7.7,3.3,7.9,7.3 C1068.2,690.9,1065.3,694.3,1061.1,694.6"/><path d="M2187.9,1965.9c-3.7,0.2-7.3-3-7.8-7c-0.5-3.7,2.8-7.6,6.8-7.8c3.8-0.3,7.4,2.9,7.8,6.9 C2195,1961.9,2191.8,1965.7,2187.9,1965.9"/><path d="M873.2,616.1c4.3,0.4,7.4,3.8,7.2,7.9c-0.1,3.9-4.1,7.3-8.1,7c-4.2-0.4-7.2-3.7-7.1-7.9C865.4,618.9,869,615.8,873.2,616.1"/><path d="M1374.1,885.2c-3.8,0.3-7.4-2.9-7.8-6.9c-0.4-3.9,2.9-7.7,6.7-7.9c3.7-0.2,7.3,3,7.8,7 C1381.4,881.1,1378.1,884.9,1374.1,885.2"/><path d="M1498.3,870.9c3.1-0.4,6.5,2,7.2,5.1c0.9,4-1.7,7.8-5.8,8.4c-3,0.5-6.4-1.9-7.2-5.1 C1491.6,875.6,1494.4,871.4,1498.3,870.9"/><path d="M2257.3,2530.1c0.3,3.8-2.8,7.4-6.7,7.8c-3.7,0.3-7.4-2.8-7.8-6.7c-0.4-3.8,2.8-7.4,6.7-7.7 C2253.4,2523.1,2256.9,2526.2,2257.3,2530.1"/><path d="M2256.8,2021.1c0.5,3-1.9,6.5-5,7.3c-4,1-7.9-1.5-8.5-5.6c-0.5-3,1.9-6.5,4.9-7.4 C2251.9,2014.4,2256.1,2017.2,2256.8,2021.1"/><path d="M504,496.7c0,3.5-2.4,6.1-5.8,6.4c-4.3,0.4-7.6-2.1-8.2-6.2c-0.6-3.7,3-7.7,6.8-7.6C500.7,489.3,504,492.7,504,496.7"/><path d="M1255,751.4c-0.7,3.9-4.9,6.7-8.6,5.6c-3.1-0.8-5.4-4.3-5-7.4c0.6-4.1,4.4-6.5,8.5-5.5C1253,744.9,1255.5,748.4,1255,751.4"/><path d="M2257.3,2276.2c0,4.2-3.4,7.4-7.6,7.2c-3.2-0.2-6.4-2.9-6.9-6c-0.7-3.9,2.5-7.8,6.7-8.2 C2253.4,2268.7,2257.2,2272.1,2257.3,2276.2"/><path d="M810.1,553.3c4,0,7.3,3.9,6.7,7.7c-0.6,3.3-3.4,5.6-6.8,5.6c-3.4,0-6.2-2.4-6.7-5.7C802.7,557.1,806.1,553.3,810.1,553.3"/><path d="M2194.4,2086.1c-0.2,4.1-4.1,7.3-8,6.8c-4.1-0.6-7.2-4.7-6.4-8.5c0.6-3,4-5.7,7.1-5.8 C2191.4,2078.6,2194.6,2081.9,2194.4,2086.1"/><path d="M1561,948.2c-3.3,0-6.1-2.5-6.6-5.8c-0.5-3.9,2.8-7.7,6.7-7.7c4,0.1,7.2,3.9,6.6,7.8C1567.1,945.7,1564.2,948.2,1561,948.2"/><path d="M1310.5,807c3.7-0.3,7.4,2.9,7.7,6.8c0.3,3.8-2.9,7.4-6.8,7.7c-3.9,0.3-7.4-2.8-7.7-6.8 C1303.4,810.9,1306.6,807.3,1310.5,807"/><path d="M2319.5,2594.3c0.1,3.3-2.5,6.1-5.8,6.6c-4.1,0.5-7.8-2.7-7.7-6.6c0.1-3.2,2.6-6.2,5.8-6.7 C2315.7,2587,2319.5,2590.3,2319.5,2594.3"/><path d="M2319.5,2339.5c0.3,3-2.2,6.5-5.2,7.2c-3.8,0.9-7.7-2-8.3-6.1c-0.4-3,2.1-6.5,5.3-7.1 C2315.3,2332.6,2319.1,2335.4,2319.5,2339.5"/><path d="M685.5,552.9c3.9,0.5,7,4.9,6.1,8.7c-0.7,3.1-3.9,5.6-7.2,5.6c-4.1,0-7.6-3.8-7.2-7.7C677.7,555.4,681.5,552.4,685.5,552.9"/><path d="M378.3,496.4c0.1,3.3-2.3,6.1-5.6,6.6c-3.9,0.5-7.6-2.7-7.6-6.6c0-3.1,2.6-6.2,5.6-6.7 C374.4,489.1,378.2,492.4,378.3,496.4"/><path d="M1875.5,1252.5c3.3,0.4,5.8,3.2,5.6,6.5c-0.2,4.1-3.8,7.2-7.6,6.7c-3.1-0.4-5.6-3.5-5.6-6.6 C1867.8,1255.1,1871.4,1252.1,1875.5,1252.5"/><path d="M1943.8,1322.2c0.2,4-3.3,7.6-7.1,7.2c-3.3-0.3-5.8-2.8-6.1-6.2c-0.4-3.8,3.1-7.3,7.1-7.1 C1941.2,1316.3,1943.6,1318.8,1943.8,1322.2"/><path d="M1686.7,1062c3.1,0,6.1,2.7,6.5,5.8c0.5,3.8-2.7,7.3-6.8,7.4c-3.4,0.1-6-2.3-6.4-5.7 C1679.4,1065.7,1682.7,1062,1686.7,1062"/><path d="M2194.1,1832.4c-0.6,3.8-4.9,6.6-8.5,5.4c-3-1-5.2-4.3-4.7-7.4c0.5-4,4.5-6.5,8.4-5.3 C2192.3,1825.9,2194.6,1829.4,2194.1,1832.4"/><path d="M628.5,497c-0.6,4-4.3,6.7-8.2,5.9c-3.1-0.6-5.4-4-4.9-7.1c0.6-4.1,4.4-6.9,8.2-6C626.5,490.6,628.9,494,628.5,497"/><path d="M1630.4,1004.2c0.4,3.1-2,6.4-5.1,7.1c-4,1-7.8-1.6-8.1-5.7c-0.3-3.1,2-6.4,5-7.3 C1625.8,997.4,1629.9,1000.3,1630.4,1004.2"/><path d="M2256.3,2150c-0.4,3.2-3.8,5.7-7.1,5.3c-3.4-0.5-5.8-3.6-5.4-6.9c0.4-3.2,3.8-5.8,7.1-5.3 C2254.3,2143.5,2256.7,2146.6,2256.3,2150"/><path d="M1004.6,623.5c0.1,3.5-2.3,6.3-5.8,6.7c-4.6,0.5-8-2.3-7.9-6.6c0-3.6,2.4-6.3,5.9-6.8 C1001.1,616.4,1004.4,619.2,1004.6,623.5"/><path d="M2125,1634.4c3.6,0.3,6.1,2.7,6.2,6.3c0.2,4.1-3.6,7.3-7.9,6.6c-3.3-0.5-5.8-4-5.3-7.2 C2118.7,1636.7,2121.8,1634.2,2125,1634.4"/><path d="M1755.5,1132.5c-0.3,3.2-3.5,5.9-6.9,5.6c-3.4-0.3-6.1-3.4-5.8-6.7c0.3-3.2,3.6-5.9,6.9-5.6 C1753.1,1126.2,1755.7,1129.2,1755.5,1132.5"/><path d="M2376,2525.4c3.6,0.3,6,3.3,5.4,6.8c-0.5,3.4-3.7,5.5-7.3,4.7c-2.6-0.5-4.6-2.9-4.6-5.7 C2369.5,2527.8,2372.5,2525.1,2376,2525.4"/><path d="M2319.4,2466.6c0.4,3.1-2.2,6.5-5.5,7c-3,0.5-6.8-2-7.5-5c-0.9-3.8,2.4-8,6.5-8.1 C2316.1,2460.5,2318.9,2463.1,2319.4,2466.6"/><path d="M2250.3,1900.7c-3.5,0.3-6.3-2.4-6.2-6c0.1-2.8,2-5.1,4.6-5.6c3.5-0.6,6.6,1.5,7.2,5 C2256.5,1897.3,2253.9,1900.4,2250.3,1900.7"/><path d="M315,432.6c0.3,3.5-2.5,6.3-6.1,6c-2.8-0.2-5.1-2.1-5.6-4.6c-0.7-3.3,1.7-6.5,5.2-7.1C311.7,426.5,314.8,429,315,432.6"/><path d="M1811,1189.7c3.3-0.5,6.7,2,7.1,5.3c0.4,3.4-2,6.4-5.4,6.9c-3.3,0.5-6.7-2-7.1-5.3 C1805.2,1193.2,1807.6,1190.1,1811,1189.7"/><path d="M2062.8,1570.2c4.1,0.2,7.2,4.2,6.5,8.3c-0.6,3.1-3.6,5.4-7.2,5.4c-3.4-0.1-6.1-2.6-6.5-6.2 C2055.1,1573.5,2058.5,1570,2062.8,1570.2"/><path d="M1191.9,686.9c0.1,3.2-2.7,6.2-6.1,6.4c-3.3,0.2-6.5-2.6-6.6-5.8c-0.1-3.3,2.7-6.3,6.1-6.4 C1188.5,680.9,1191.7,683.7,1191.9,686.9"/><path d="M2130.9,1512.6c0.6,3-1.9,6.2-5.3,6.6c-3.3,0.4-6.2-1.8-6.7-5.1c-0.5-3.1,1.9-6.1,5.2-6.7 C2127,1506.9,2130.2,1509.4,2130.9,1512.6"/><path d="M878.6,497.4c-0.7,3.4-3.8,5.3-7.3,4.7c-3.3-0.6-5.4-4.4-4.2-7.5c0.9-2.5,3.6-4.2,6.1-3.9 C876.8,490.9,879.3,494.1,878.6,497.4"/><path d="M1442.1,814.1c0.2,3.2-2.3,6.1-5.7,6.2c-3.2,0.2-6-2.3-6.3-5.7c-0.3-3.2,2.2-5.9,5.7-6.1 C1439.3,808.3,1441.9,810.6,1442.1,814.1"/><path d="M2381.3,2403.3c0.5,3.4-2.1,6.4-5.7,6.5c-2.6,0-5.2-1.8-5.9-4.2c-1-3.1,1.3-6.8,4.6-7.3 C2377.7,2397.6,2380.8,2399.9,2381.3,2403.3"/><path d="M2318.3,2721.3c-0.1,3.3-3.6,6.3-6.7,5.7c-2.4-0.5-4.8-3.3-4.8-5.6c0-3.2,3.6-6.2,6.8-5.7 C2316.1,2716.2,2318.4,2718.9,2318.3,2721.3"/><path d="M1316.4,687.4c-0.3,3.2-3.5,5.8-6.5,5.3c-2.4-0.4-4.6-2.8-4.8-5.1c-0.2-3.3,2.4-6.1,5.6-6.2 C1314,681.3,1316.7,684.1,1316.4,687.4"/><path d="M2311.9,2207.2c2.6-0.5,5.1,1.1,6,3.9c1,3.3-1,6.5-4.7,7.3c-2.5,0.5-5-1.2-6-3.9 C2306.1,2211.3,2308.3,2207.9,2311.9,2207.2"/><path d="M940.8,560.4c-0.2,2.7-2.5,4.6-5.3,4.7c-3.5,0.1-6.2-2.8-5.8-6.3c0.3-2.6,2.6-4.7,5.4-4.8 C938.5,553.8,941.1,556.8,940.8,560.4"/><path d="M2005.1,1387.5c-0.8,3.5-4.2,5.6-7.3,4.4c-2.7-1.1-4.3-3.6-3.8-6.1c0.7-3.5,4.1-5.5,7.3-4.4 C2004,1382.4,2005.6,1385,2005.1,1387.5"/><path d="M2187.4,1709.9c-3.6-0.2-5.9-3.1-5.3-6.8c0.5-2.7,2.9-4.6,5.6-4.5c3.6,0.2,6,3.3,5.3,6.7 C2192.5,1708.2,2190.2,1710.1,2187.4,1709.9"/><path d="M1754.6,1004.8c0,2.4-2.1,4.9-4.7,5.3c-3.2,0.6-6.5-2.2-6.4-5.5c0.1-2.4,2.2-4.8,4.7-5.3 C1751.3,998.7,1754.6,1001.6,1754.6,1004.8"/><path d="M1378.9,751.7c-0.4,3.4-4,5.6-7.2,4.5c-2.5-0.8-4.1-3.5-3.8-6.2c0.4-3.4,3.6-5.4,7.3-4.5 C1377.6,746.2,1379.2,748.9,1378.9,751.7"/><path d="M2318.3,2086.1c0,2.5-2.1,4.8-4.6,5.3c-3.2,0.6-6.5-2.3-6.5-5.4c0.1-2.4,2.3-4.9,4.7-5.3 C2315,2079.9,2318.3,2082.7,2318.3,2086.1"/><path d="M1817.3,1067.7c0.4,2.7-1.3,5.4-3.7,6c-3.6,0.9-6.8-1.1-7.1-4.4c-0.3-2.8,1.3-5.3,3.7-6.1 C1813.5,1062.2,1816.8,1064.3,1817.3,1067.7"/><path d="M2067.9,1449c0.4,2.6-1.3,5.1-4,5.9c-3.4,1-6.5-1-7.1-4.6c-0.4-2.5,1.3-5,4-5.9C2064,1443.3,2067.4,1445.5,2067.9,1449"/><path d="M558.9,427c3.5-0.4,6.5,2.4,6.3,5.7c-0.2,2.9-2.1,5-4.8,5.2c-2.8,0.3-5.4-1.3-6.1-3.8C553.3,430.7,555.4,427.4,558.9,427"/><path d="M434.1,438.3c-3.6-0.2-6.3-3.4-5.5-6.5c0.8-3.3,4-5.5,7.2-5c2.5,0.4,4.5,2.8,4.5,5.5C440.3,435.9,437.6,438.6,434.1,438.3"/><path d="M752.7,495.4c0.3,2.7-1.3,5.3-3.7,5.9c-3.6,0.9-6.7-1-7-4.4c-0.3-2.9,1.2-5.3,3.7-6C748.9,490,752.2,492.1,752.7,495.4"/><path d="M1128.6,622.9c0.2,3.5-2.8,6.4-6.1,6.1c-2.9-0.3-5.1-2.4-5.2-5c-0.2-3.7,2.7-6.6,6-6.2 C1126.2,618.1,1128.5,620.4,1128.6,622.9"/><path d="M1065.7,560c-0.1,2.3-2.7,4.8-5,4.9c-2.3,0.1-5-2.3-5.2-4.6c-0.3-3.4,2.5-6.2,5.8-5.7 C1063.6,554.9,1065.8,557.6,1065.7,560"/><path d="M2379.5,2149.5c-0.1,2.8-2.3,4.8-5,4.6c-1.9-0.1-3.6-1.9-3.6-4c-0.1-2.8,2.1-4.8,4.9-4.5 C2377.8,2145.8,2379.5,2147.6,2379.5,2149.5"/><path d="M2249.8,1772.7c-2.6-0.1-4.7-2.2-4.7-4.8c0.1-2.6,2.3-4.7,5-4.6c2.5,0.1,4.8,2.4,4.7,4.9 C2254.8,1770.6,2252.4,1772.8,2249.8,1772.7"/><path d="M2371,2659.3c-0.6-2.7,1.5-5.3,4.2-5.3c2,0,3.8,1.5,4.2,3.4c0.5,2.6-1.7,5.3-4.3,5.4 C2373.2,2662.9,2371.4,2661.3,2371,2659.3"/><path d="M1435.2,682.6c2.5-0.5,5.3,1.8,5.4,4.3c0.1,1.8-1.7,3.7-3.6,4.1c-2.6,0.5-5.4-1.7-5.4-4.3 C1431.6,685,1433.4,683,1435.2,682.6"/><path d="M1937.3,1199.9c-2.7,0-4.8-2.3-4.5-5.1c0.2-2,2.1-3.8,4-3.7c2.7,0.1,4.9,2.5,4.6,5.1 C1941.1,1198.1,1939.2,1199.8,1937.3,1199.9"/><path d="M1247.4,618.7c2.5-0.5,5.1,1.4,5.5,3.9c0.4,2.6-1.4,5-3.9,5.5c-2.5,0.5-5-1.4-5.5-4C1243,621.7,1244.7,619.3,1247.4,618.7"/><path d="M2438.6,2717.8c2,0.2,3.8,2.2,3.7,4c-0.1,2.7-2.4,4.9-5.1,4.6c-1.9-0.2-3.7-2.1-3.7-4 C2433.5,2719.6,2435.9,2717.5,2438.6,2717.8"/><path d="M2442.3,2340.4c0.1,2.5-2.3,4.6-5,4.3c-1.9-0.2-3.7-2.1-3.7-4c0-2.8,2.4-5.1,5-4.5C2440.6,2336.6,2442,2338,2442.3,2340.4"/><path d="M2188,1581.5c-2.8-0.1-4.8-2.3-4.6-5c0.1-2,1.9-3.6,4-3.6c2.8-0.1,4.8,2.1,4.6,4.9 C2191.7,1579.8,2189.9,1581.5,2188,1581.5"/><path d="M1186.1,555.6c1.9,0,3.7,1.7,4,3.7c0.3,2.8-1.8,5.2-4.5,5c-2.2-0.2-3.5-1.6-3.9-3.7 C1181.1,557.9,1183.3,555.5,1186.1,555.6"/><path d="M2312.4,1836.8c-2.6-0.2-4.5-2.4-4.4-5.1c0.2-2.6,2.5-4.7,5.1-4.3c2.6,0.3,4.5,2.5,4.4,5.1 C2317.6,1835,2315.1,1837,2312.4,1836.8"/><path d="M1499.5,754.9c-2.8,0.2-5.1-1.9-5-4.6c0.1-2,1.8-3.8,3.7-4c2.7-0.2,5,1.9,5,4.7C1503.3,752.8,1501.5,754.7,1499.5,754.9"/><path d="M2000.4,1263.5c-2.8,0.2-5.1-1.9-5-4.6c0.1-2,1.8-3.8,3.7-4c2.7-0.2,5,1.9,5,4.7 C2004.3,1261.4,2002.4,1263.3,2000.4,1263.5"/><path d="M2249.7,1645.4c-2.6-0.2-4.6-2.5-4.6-5c0.1-2.5,2.5-4.6,5.1-4.5c2.6,0.2,4.6,2.4,4.5,5 C2254.7,1643.5,2252.3,1645.6,2249.7,1645.4"/><path d="M1687.6,937c2,0.1,3.7,1.9,3.6,3.9c0,2.9-2.1,4.8-5,4.5c-2-0.2-3.7-2-3.7-3.9C1682.6,938.7,1684.7,936.8,1687.6,937"/><path d="M2062.9,1327c-2.8,0.2-5.1-1.8-4.9-4.5c0.1-1.9,1.8-3.7,3.7-4c2.7-0.3,4.9,1.8,4.9,4.6 C2066.7,1324.9,2064.9,1326.8,2062.9,1327"/><path d="M685.4,436.9c-2.9,0-4.9-2.1-4.6-4.9c0.2-1.9,1.9-3.5,4-3.6c2.8-0.2,4.8,2,4.5,4.8C689,435.3,687.3,436.8,685.4,436.9"/><path d="M934.9,428.3c2.2,0.3,3.7,1.3,4.2,3.4c0.6,2.6-1.6,5.3-4.2,5.3c-2.6,0-4.7-2.7-4.1-5.4 C931.3,429.7,933.1,428.3,934.9,428.3"/><path d="M2375.6,2281.2c-2.7,0.1-4.8-2.2-4.4-5c0.2-1.9,2.1-3.7,3.9-3.7c2.7,0,4.8,2.4,4.5,5 C2379.3,2279.5,2377.5,2281.2,2375.6,2281.2"/><path d="M2442,2595.4c-0.2,2-1.9,3.6-3.9,3.7c-2.7,0.2-4.8-2.1-4.6-4.9c0.1-2,1.8-3.7,3.9-3.7 C2440.2,2590.5,2442.3,2592.7,2442,2595.4"/><path d="M1628.3,877.4c0.3,2.8-1.7,5-4.6,4.8c-2-0.1-3.8-1.7-3.9-3.6c-0.2-2.7,1.8-4.9,4.6-4.9 C1626.4,873.7,1628.1,875.3,1628.3,877.4"/><path d="M1002,495.8c0.2,2.7-1.9,5.1-4.6,5c-1.9-0.1-3.6-1.8-3.9-3.8c-0.4-2.7,1.8-5,4.5-4.9C1000.1,492.2,1001.8,493.8,1002,495.8"/><path d="M1124,500.6c-2.5,0.5-5.2-1.6-5.1-4.3c0.1-2.2,1.5-3.5,3.5-4c2.7-0.7,5.4,1.5,5.2,4.1C1127.4,498.5,1126.2,500,1124,500.6"/><path d="M2379.3,2023c-0.2,2-1.8,3.6-3.9,3.7c-2.8,0.1-4.8-1.9-4.6-4.8c0.1-2.1,1.8-3.7,3.8-3.7 C2377.5,2018.2,2379.5,2020.2,2379.3,2023"/><path d="M2125.6,1382.3c2,0.1,3.6,1.8,3.7,3.9c0.2,2.8-2,4.8-4.8,4.5c-2-0.2-3.7-1.9-3.8-3.8 C2120.7,1384.1,2122.8,1382.1,2125.6,1382.3"/><path d="M1565.6,813.6c0.4,2.7-1.8,5-4.5,4.9c-2-0.1-3.8-1.7-3.9-3.7c-0.2-2.7,1.9-5,4.6-5C1563.6,809.8,1565.4,811.6,1565.6,813.6"/><path d="M1875,1127.9c2,0.3,3.7,2,3.7,3.9c0.1,2.6-2.3,4.8-5,4.5c-2-0.2-3.6-1.9-3.6-3.9C1870,1129.6,1872.3,1127.5,1875,1127.9"/><path d="M1377.8,623.8c-0.1,1.9-1.8,3.6-3.8,3.9c-2.6,0.3-4.9-1.9-4.9-4.6c0.1-1.9,1.8-3.7,3.7-3.9 C1375.6,619,1377.9,621.2,1377.8,623.8"/><path d="M2442.1,2468.1c-0.1,1.8-1.8,3.6-3.7,3.9c-2.8,0.4-5-1.6-4.9-4.5c0.1-2,1.7-3.7,3.7-3.9 C2439.9,2463.3,2442.2,2465.4,2442.1,2468.1"/><path d="M497.2,365c2.2,0.3,3.7,1.4,4.2,3.5c0.6,2.6-1.6,5.2-4.3,5.2c-1.9,0-3.7-1.6-4.1-3.5C492.6,367.5,494.7,365,497.2,365"/><path d="M622.7,365c2.6,0,4.8,2.8,4.1,5.4c-0.5,2.1-2.1,3.3-4.2,3.3c-2,0-3.6-1.3-4.1-3.4C617.9,367.7,620.1,364.9,622.7,365"/><path d="M1063.3,431.9c0.5,2.1-0.9,4.4-2.7,4c-1-0.2-2.2-1.2-2.7-2.2c-0.8-1.9,0.8-4.3,2.6-4C1061.6,430,1062.4,431.2,1063.3,431.9"/><path d="M2500.3,2534.4c-1.9,0-3.4-2.3-2.5-4.2c0.4-1,1.8-2.1,2.7-2c0.9,0,2.2,1.2,2.6,2.2 C2503.9,2532.4,2502.2,2534.5,2500.3,2534.4"/><path d="M375.3,369.4c-0.3,2.1-1.9,3.4-4,3.3c-2,0-3.6-2-3.3-4c0.3-2.1,1.8-3.3,4-3.3C374,365.4,375.6,367.4,375.3,369.4"/><path d="M2500.4,2019.5c1.9,0,3.5,2.1,2.7,4.1c-0.4,1-1.6,2-2.7,2.2c-1.8,0.4-3.4-2-2.6-4 C2498.2,2020.8,2499.5,2020.3,2500.4,2019.5"/><path d="M813.3,433.3c-1,2.4-2.5,3.4-4.6,3.2c-2.1-0.2-3.5-2.4-2.9-4.4c0.6-2,2.3-3,4.4-2.7C812.3,429.7,813.8,431.9,813.3,433.3"/><path d="M1000.4,368.3c0.5,2.1-1,4.3-2.8,3.9c-1-0.2-2.2-1.3-2.6-2.2c-0.8-1.9,0.9-4.3,2.7-3.9 C998.7,366.3,999.5,367.5,1000.4,368.3"/><path d="M2563.3,2470.7c-0.9-0.8-2.2-1.3-2.6-2.3c-0.8-1.9,0.8-4.1,2.7-4c1.9,0,3.4,2.2,2.6,4.1 C2565.5,2469.4,2564.2,2470,2563.3,2470.7"/><path d="M2315.9,1958.2c0.6,1.9-0.9,4-3,4.3c-2.2,0.3-3.8-0.8-4.4-2.8c-0.6-2,0.9-4.1,3-4.3 C2313.6,1955.1,2315.2,1956.1,2315.9,1958.2"/><path d="M497.3,244.7c-0.9-0.6-2.3-1.1-2.7-1.9c-0.8-1.6,0.9-4,2.7-3.7c1,0.2,2.2,1,2.7,1.9C500.9,242.6,499.3,244.7,497.3,244.7"/><path d="M2500.7,2407c-0.9-0.7-2.2-1.2-2.7-2.1c-0.8-1.7,0.9-4.1,2.6-3.8c1,0.2,2.2,1.1,2.6,2 C2504.1,2404.9,2502.6,2406.9,2500.7,2407"/><path d="M562.8,306.5c-0.9,0.7-1.7,1.8-2.8,2c-1.9,0.4-3.4-1.9-2.6-3.7c0.5-0.9,1.6-1.9,2.6-2.1 C561.9,302.3,563.4,304.7,562.8,306.5"/><path d="M685.5,302.6c1.8,0.1,3.4,2.3,2.5,4c-0.5,0.9-1.8,1.8-2.8,1.9c-2,0.2-3.5-2.1-2.5-3.8C683.2,303.7,684.5,303.3,685.5,302.6"/><path d="M1939.8,1067.9c-0.4,1.1-0.5,2.5-1.3,3.1c-1.4,1.3-3.8,0.5-4.2-1.6c-0.2-1,0.3-2.5,1.1-3.1 C1936.7,1065.2,1939.2,1066.2,1939.8,1067.9"/><path d="M2002.5,1004.2c0.5,1.9-1.2,4.2-2.9,3.7c-1-0.3-2.2-1.3-2.4-2.2c-0.3-0.9,0.3-2.4,1-3.1 C1999.6,1001.2,2002,1002.3,2002.5,1004.2"/><path d="M2437.8,1834.5c-0.9-0.6-2.3-1.1-2.7-1.9c-0.8-1.6,0.9-4,2.7-3.7c1,0.2,2.2,1,2.7,1.9 C2441.5,1832.4,2439.9,1834.5,2437.8,1834.5"/><path d="M2189.9,1197.2c-1.2,1.5-3.5,1.7-4.7,0c-0.5-0.7-0.6-2.5-0.1-3.2c1.1-1.7,3.5-1.8,4.6-0.1 C2190.2,1194.7,2189.9,1196.1,2189.9,1197.2"/><path d="M2065.7,1196.1c-0.2,1.8-2.2,3.1-4,2.7c-1.9-0.4-3.2-2.7-2.2-4.2c0.6-0.9,1.8-1.8,2.8-2 C2064.1,1192.2,2065.9,1194.3,2065.7,1196.1"/><path d="M2437.5,1707.8c-1.9-0.1-3.6-2.1-3-3.8c0.4-1,1.4-2,2.4-2.4c1.8-0.6,3.9,0.9,4.1,2.7 C2441.2,1706.1,2439.4,1707.9,2437.5,1707.8"/><path d="M2127.8,1260c-0.9,0.6-1.8,1.7-2.8,1.8c-2,0.2-3.6-2-2.7-3.6c0.5-0.9,1.7-1.8,2.7-2 C2126.8,1255.9,2128.4,1258.2,2127.8,1260"/><path d="M1624.1,747.5c1.8,0.1,3.5,2.3,2.6,3.9c-0.5,0.9-1.8,1.7-2.8,1.8c-2,0.2-3.5-2.1-2.6-3.7 C1621.9,748.6,1623.2,748.2,1624.1,747.5"/><path d="M2437.5,2216.4c-1.9-0.1-3.6-2.1-3-3.8c0.4-1,1.4-2,2.4-2.4c1.8-0.6,3.9,0.9,4.1,2.7 C2441.2,2214.7,2439.4,2216.5,2437.5,2216.4"/><path d="M1438.8,559.4c-0.4,1.1-0.6,2.4-1.3,3.1c-1.5,1.3-3.8,0.4-4.2-1.6c-0.2-1,0.4-2.5,1.1-3.1 C1435.9,556.6,1438.3,557.6,1438.8,559.4"/><path d="M2440.6,2085.3c0.5,1.8-1.1,4.1-2.9,3.7c-1-0.2-2.3-1.2-2.5-2.1c-0.3-0.9,0.3-2.5,1-3.1 C2437.6,2082.5,2440.1,2083.5,2440.6,2085.3"/><path d="M2000.3,1128.9c1.9,0.4,3.2,2.7,2.2,4.2c-0.6,0.9-1.8,1.7-2.8,2c-1.8,0.4-3.6-1.6-3.4-3.5S1998.4,1128.5,2000.3,1128.9"/><path d="M2125.8,1128.9c1.9,0.3,3.3,2.5,2.4,4.1c-0.5,0.9-1.7,1.9-2.7,2.1c-1.8,0.5-3.8-1.5-3.7-3.2 C2121.9,1130,2123.9,1128.6,2125.8,1128.9"/><path d="M1498.1,626.5c-1.8-0.3-3.2-2.3-2.6-4.1c0.6-1.8,2.7-2.8,4.4-1.9c0.9,0.5,1.8,1.8,2,2.8 C1502.2,625.2,1499.9,626.8,1498.1,626.5"/><path d="M1627.6,623.5c-0.2,1.9-2,3.3-3.9,2.9c-1.9-0.4-3.4-2.6-2.4-4.1c0.6-0.9,1.7-1.8,2.8-2.1 C1626,619.8,1627.8,621.6,1627.6,623.5"/><path d="M2503.7,2277.5c-0.3,1.8-2.3,3-4.2,2.5c-1.8-0.5-3-2.8-1.9-4.3c0.6-0.9,1.9-1.7,2.9-1.9 C2502.3,2273.6,2504,2275.8,2503.7,2277.5"/><path d="M1560.6,684.1c1.8-0.5,3.8,0.8,4.1,2.6c0.3,1.8-1.4,3.9-3.2,3.6c-1.1-0.2-2.3-1-2.9-1.9 C1557.5,686.9,1558.8,684.6,1560.6,684.1"/><path d="M1685.8,689.6c-0.8-0.8-1.9-1.6-2.2-2.6c-0.5-1.7,1.9-3.5,3.7-2.7c0.9,0.4,1.9,1.5,2.2,2.5 C1689.9,688.7,1687.8,690.1,1685.8,689.6"/><path d="M2565.8,2593.7c0.5,1.8-0.9,4.2-2.6,3.9c-1-0.1-2.2-1.1-2.7-2c-0.9-1.7,0.6-4,2.5-3.8 C2564,2592,2564.9,2593.1,2565.8,2593.7"/><path d="M2374.5,1770.9c-0.7-0.9-1.8-1.7-2-2.7c-0.3-1.8,2-3.3,3.8-2.5c0.9,0.4,1.9,1.6,2.1,2.6 C2378.7,1770,2376.4,1771.4,2374.5,1770.9"/><path d="M2314.9,1449.5c-0.4,1-0.7,2.5-1.4,2.8c-0.7,0.3-1.9-0.7-2.9-1.1c0.4-1,0.9-2,1.3-3 C2313,1448.6,2313.9,1449.1,2314.9,1449.5"/><path d="M374.5,241c0.5,1.4,0,2.6-1.4,2.7c-1,0.1-2-0.7-3-1.1c0.5-1,0.8-2.5,1.5-2.8C372.3,239.6,373.5,240.6,374.5,241"/><path d="M2189.4,1449.4c0.2,1.6-0.5,2.7-1.9,2.7c-1.5,0.1-2.3-1-2.1-2.5c0.1-0.6,0.5-1.3,1-1.5 C2187.8,1447.2,2188.9,1447.8,2189.4,1449.4"/><path d="M2503.2,2149.7c-0.8,0.9-1.3,2.3-2.3,2.7c-1.8,0.7-4-1.9-3-3.5c0.5-0.9,2.1-1.8,3-1.6 C2501.8,2147.3,2502.4,2148.8,2503.2,2149.7"/><path d="M2249.2,1384.1c1,0.4,2.5,0.7,2.7,1.4c0.3,0.7-0.7,1.9-1.1,2.9c-1-0.4-2-0.9-2.9-1.3 C2248.3,1386.1,2248.8,1385.1,2249.2,1384.1"/><path d="M1375.8,495.5c-0.4,1-0.6,2.5-1.3,2.8c-0.7,0.3-2.4-0.5-2.7-1.2c-0.3-0.7,0.5-2.5,1.1-2.7 C1373.6,494.2,1374.8,495.1,1375.8,495.5"/><path d="M2502.9,2659.4c-1,0.5-2.1,1.6-3.1,1.5c-1.9-0.1-2.9-3.2-1.3-4.4c0.8-0.6,2.4-0.8,3.4-0.4 C2503.4,2656.5,2503.6,2657.9,2502.9,2659.4"/><path d="M2189.5,1321.9c-0.4,1-0.8,2-1.2,2.9c-1-0.4-2-0.9-2.9-1.3c0.4-1,0.6-2.5,1.3-2.8 C2187.3,1320.4,2188.5,1321.4,2189.5,1321.9"/><path d="M1120.6,369.5c0-1.5,0.7-2.6,2.2-2.4c1.4,0.1,2.1,1.3,1.8,2.8c-0.1,0.6-0.7,1.3-1.1,1.5 C1121.9,371.8,1121,371,1120.6,369.5"/><path d="M622.4,244.9c-0.8-0.8-2.1-1.6-2.4-2.6c-0.5-1.9,2.2-3.7,3.7-2.6c0.9,0.6,1.7,2.3,1.4,3.1 C625,243.7,623.4,244.2,622.4,244.9"/><path d="M2563.9,2337.8c0.7,1,1.9,1.9,2,2.9c0.2,2-2.2,3.2-4.1,2.1c-1.4-0.8-1.9-2.1-0.9-3.3 C2561.5,2338.6,2562.9,2338.3,2563.9,2337.8"/><path d="M1313.2,559.3c-0.5,1-0.7,2.5-1.4,2.8c-0.8,0.3-2.3-0.4-2.9-1.1c-0.9-1.2-0.2-2.6,1.2-2.7 C1311.1,558.1,1312.1,558.9,1313.2,559.3"/><path d="M2065.1,1068.4c-0.8,0.9-1.3,2.3-2.3,2.7c-1.8,0.7-4-1.9-3-3.5c0.5-0.9,2.1-1.8,3-1.6 C2063.7,1066,2064.4,1067.5,2065.1,1068.4"/><path d="M1876.5,1006.2c-1,1.2-2.2,1.4-3.3,0.4c-1.1-1.1-1-2.4,0.3-3.2c0.4-0.3,1.3-0.4,1.8-0.2 C1876.9,1003.6,1877.3,1004.7,1876.5,1006.2"/><path d="M1937,939.1c1.5,0,2.4,0.8,2.3,2.4c-0.1,1.5-1.1,2.3-2.6,2c-0.5-0.1-1.1-0.8-1.3-1.3C1934.9,940.6,1935.6,939.6,1937,939.1"/><path d="M1814,940.5c-0.4,1-0.7,2.5-1.4,2.8c-0.7,0.3-2.4-0.5-2.7-1.2c-0.3-0.7,0.5-2.5,1.2-2.7 C1811.9,939.1,1813,940.1,1814,940.5"/><path d="M1874.4,875.6c1.5,0.2,2.4,1,2.1,2.6c-0.2,1.5-1.4,2.2-2.9,1.7c-0.5-0.2-1-0.9-1.1-1.5 C1872.2,876.8,1873,875.9,1874.4,875.6"/><path d="M1751.3,876.9c-0.4,1-0.9,2-1.3,3c-1-0.4-2-0.9-2.9-1.3c0.4-1,0.7-2.5,1.4-2.8C1749.1,875.4,1750.3,876.4,1751.3,876.9"/><path d="M1250.3,497.4c-1,0.4-2.2,1.3-2.9,1c-0.7-0.3-0.9-1.8-1.3-2.8c1-0.4,2.2-1.3,3-1C1249.8,494.8,1250,496.4,1250.3,497.4"/><path d="M1812.7,816.2c-1-0.4-2-0.8-3-1.2c0.4-1,0.7-2.5,1.4-2.8c0.8-0.3,2.3,0.4,2.8,1.2C1814.7,814.5,1814,815.7,1812.7,816.2"/><path d="M1688.5,813.3c-0.4,1-0.8,2-1.3,2.9c-1-0.4-2-0.9-2.9-1.3c0.4-1,0.6-2.5,1.3-2.8C1686.4,811.9,1687.6,812.8,1688.5,813.3"/><path d="M1746.8,751.3c0.5-1,0.7-2.5,1.5-2.8c0.8-0.3,2.3,0.4,2.9,1.2c0.8,1.2,0.2,2.6-1.2,2.7 C1748.9,752.5,1747.9,751.7,1746.8,751.3"/><path d="M2310.6,1578.6c0.4-1,0.7-2.6,1.4-2.7c0.8-0.2,1.9,0.7,2.9,1.1c-0.5,1-0.7,2.5-1.4,2.8 C2312.8,1580,2311.6,1579,2310.6,1578.6"/><path d="M2376.3,1897.5c-1-0.4-2-0.8-2.9-1.2c0.4-1,0.7-2.5,1.4-2.8c0.7-0.3,1.9,0.7,2.9,1.1 C2377.2,1895.5,2376.8,1896.5,2376.3,1897.5"/><path d="M874.7,370.3c-1,1.2-2.2,1.5-3.2,0.4c-1-1-0.9-2.4,0.3-3.3c0.4-0.3,1.2-0.5,1.8-0.3C875,367.7,875.4,368.8,874.7,370.3"/><path d="M311.7,306.5c-1,0.4-2.2,1.2-3,0.9c-0.7-0.2-0.8-1.8-1.2-2.8c1-0.4,2.2-1.3,2.9-1C311.1,304,311.3,305.5,311.7,306.5"/><path d="M437,305.4c-0.1,1.5-1,2.4-2.5,2.1c-1.5-0.2-2.1-1.4-1.6-3c0.2-0.5,0.9-1.1,1.4-1.2C435.9,303.1,436.8,303.9,437,305.4"/><path d="M812.5,304.7c-0.4,1-0.7,2.6-1.3,2.7c-0.8,0.2-2-0.7-3-1.1c0.5-1,0.7-2.5,1.4-2.8C810.3,303.2,811.5,304.2,812.5,304.7"/><path d="M749.4,368.3c-0.4,1-0.9,2-1.3,3c-1-0.4-2-0.9-2.9-1.3c0.4-1,0.7-2.5,1.4-2.8C747.3,366.8,748.5,367.8,749.4,368.3"/><path d="M937.9,305.4c-0.1,1.5-1,2.4-2.5,2.1c-1.5-0.2-2.1-1.4-1.6-3c0.2-0.5,0.9-1.1,1.4-1.2C936.8,303.1,937.7,303.9,937.9,305.4"/><path d="M2377.7,1640.5c-0.4,1-0.7,2.5-1.4,2.8c-0.8,0.3-2.3-0.4-2.8-1.1c-0.9-1.2-0.2-2.6,1.2-2.7 C2375.6,1639.3,2376.7,1640.1,2377.7,1640.5"/><path d="M2315.1,1704.3c-0.5,1-0.8,2.5-1.5,2.7c-0.8,0.3-2.3-0.4-2.9-1.1c-0.9-1.2-0.2-2.5,1.3-2.7 C2313,1703.2,2314,1704,2315.1,1704.3"/><path d="M2252.2,1512.7c-0.5,1-0.7,2.5-1.4,2.8c-0.8,0.3-2.3-0.4-2.8-1.2c-0.8-1.1-0.2-2.6,1.2-2.8 C2250.1,1511.5,2251.2,1512.3,2252.2,1512.7"/><path d="M2440.2,1960.1c-1,1.2-2.3,1.6-3.1,0.4c-0.5-0.8,0-2.2,0.3-3.3c0.1-0.2,1.2-0.4,1.7-0.3 C2440.5,1957.5,2440.9,1958.7,2440.2,1960.1"/><path d="M1187.5,432.7c-0.1,1.6-1,2.4-2.4,2.2c-1.5-0.3-2.1-1.5-1.6-3c0.2-0.5,0.9-1.1,1.4-1.2 C1186.4,430.4,1187.3,431.1,1187.5,432.7"/></g></svg>