<?xml version="1.0" encoding="UTF-8" standalone="no"?><svg xmlns="http://www.w3.org/2000/svg" xmlns:xlink="http://www.w3.org/1999/xlink" contentScriptType="text/ecmascript" fill="#000000" width="2736" zoomAndPan="magnify" contentStyleType="text/css" viewBox="129.9 669.4 2735.6 1636.1" height="1636" preserveAspectRatio="xMidYMid meet" version="1"><g id="change1_1"><path fill="#f26111" d="M2853.3,872.4c-0.7,1.9-1.4,3.7-2.2,5.6c-0.3,0.8-0.7,1.6-1,2.4l-4.9,11.2l-5.6,12.6l-26.5,60.3l-2.5,5.6 l-38.1,86.5l-2.4,5.6l-16.6,37.6l-5.6,12.6l-16,36.3l-2.5,5.6l-38.1,86.5l-2.5,5.6l-27.1,61.6l-5.6,12.6l-5.4,12.3l-2.5,5.6 l-38.1,86.5l-2.4,5.6l-37.7,85.6l-5.6,12.6l-35.4,80.4l-2.4,5.5l-38.1,86.5l-2.4,5.6l-7.7,17.5l-5.6,12.6l-24.8,56.4l-2.5,5.6 l-38.1,86.5l-2.4,5.6l-18.3,41.5l-5.5,12.6l-14.3,32.4l-2.4,5.6l-38.1,86.5l-2.4,5.5l-28.9,65.6l0,0c-1.8,4-3.6,7.9-5.5,11.8 c-1.5,3.1-3.1,6.1-4.8,9.1c-1,1.9-2,3.7-3.1,5.5c-19.9,34.5-46.7,63.9-78.2,86.5c-2.6,1.9-5.3,3.7-8,5.5 c-25.4,17-53.7,29.7-83.6,37.5c-1.8,0.5-3.7,0.9-5.6,1.4c-20.7,4.9-42.2,7.5-64,7.5h-1761c-0.7,0-1.4,0-2.1,0 c-1.9,0-3.7-0.1-5.6-0.2c-33.1-1.6-62.6-13.7-86.1-32.5c-1.9-1.5-3.7-3.1-5.6-4.7c-3.3-2.9-6.4-5.9-9.4-9c-1.7-1.8-3.4-3.7-5-5.5 c-20.7-24-33.7-54.3-36.3-86.5c-0.2-1.8-0.3-3.7-0.4-5.5c-0.9-22,3-44.7,12.8-66.8l8.7-19.7l2.4-5.5l27.2-61.7l5.6-12.6l5.4-12.2 l2.5-5.6l38.1-86.5l2.4-5.6l37.7-85.7l5.6-12.6l35.3-80.3l2.4-5.6l38.1-86.5l2.4-5.5l7.8-17.6l5.6-12.6l24.8-56.3l2.4-5.6l38.1-86.5 l2.4-5.6l18.3-41.6l5.6-12.6l14.2-32.3l2.5-5.6l38.1-86.5l2.4-5.6l28.9-65.6l5.6-12.6l3.7-8.3l2.4-5.6l38.1-86.5l2.4-5.6L639,970 l6.9-15.7l33.6-76.4l2.4-5.6l16.7-37.9c7.6-17.3,16.9-33.6,27.6-48.6c1.3-1.9,2.7-3.7,4-5.6c0.6-0.8,1.1-1.5,1.7-2.3 c1.8-2.4,3.7-4.7,5.6-7c23.8-29.1,53.1-52.9,86.1-70.1c1.8-1,3.7-1.9,5.6-2.8c3-1.5,6-2.9,9.1-4.3c4.4-2,8.8-3.8,13.3-5.6 c20.3-7.9,41.7-13.4,63.7-16.3c1.8-0.2,3.7-0.5,5.6-0.7c10.1-1.1,20.4-1.7,30.7-1.7h1761c12.3,0,24.1,1.4,35.4,4.1 c1.9,0.4,3.7,0.9,5.6,1.4c11.3,3.2,22.1,7.6,32,13.2c3.1,1.8,6.2,3.6,9.2,5.6c18.2,11.9,33.4,27.6,44.9,45.7c2,3.1,3.8,6.3,5.6,9.5 c5.3,9.9,9.5,20.4,12.5,31.3c0.5,1.8,1,3.7,1.4,5.6C2865.5,813.4,2864.3,843.3,2853.3,872.4z"/></g><g id="change2_1"><path fill="#f26111" d="M2845.1,785.9h13.9c-0.4-1.9-0.9-3.7-1.4-5.6h-12.5V749c-1.7-3.2-3.6-6.4-5.6-9.5v40.8h-86.1v-86.5h41.2 c-3-2-6-3.8-9.2-5.6h-32V675c-1.8-0.5-3.7-1-5.6-1.4v14.6h-86.1v-18.7h-5.6v18.7h-86.1v-18.7h-5.6v18.7h-86.1v-18.7h-5.6v18.7H2387 v-18.7h-5.5v18.7h-86.1v-18.7h-5.5v18.7h-86.1v-18.7h-5.6v18.7h-86.1v-18.7h-5.6v18.7h-86.1v-18.7h-5.6v18.7h-86.1v-18.7h-5.5v18.7 h-86.1v-18.7h-5.6v18.7h-86.1v-18.7h-5.6v18.7h-86.1v-18.7h-5.6v18.7h-86.1v-18.7h-5.6v18.7h-86.1v-18.7h-5.6v18.7H1379v-18.7h-5.6 v18.7h-86.1v-18.7h-5.6v18.7h-86.1v-18.7h-5.6v18.7h-86.1v-18.7h-5.5v18.7h-86.1v-18.7h-5.6v18.7h-86.1v-17 c-1.9,0.2-3.7,0.4-5.6,0.7v16.3h-63.7c-4.5,1.7-8.9,3.6-13.3,5.6h77v86.5h-86.1v-82.2c-1.9,0.9-3.7,1.9-5.6,2.8v79.4h-86.1V771 c-1.9,2.3-3.7,4.7-5.6,7v2.3h-1.7c-1.4,1.8-2.7,3.7-4,5.6h5.8v86.5h-50l-2.4,5.6H732v86.5h-86.1v-10.1L639,970h1.4v86.5h-39.4 l-2.4,5.6h41.9v86.5h-80l-2.4,5.6h82.4v86.5h-86.1v-78.2l-5.6,12.6v65.6h-28.9l-2.4,5.6h31.3v86.5h-69.4l-2.5,5.6h71.9v86.5h-86.1 v-54.2l-5.6,12.6v41.6h-18.3l-2.4,5.6h20.8v86.5h-58.9l-2.4,5.6h61.3v86.5H371v-30.2l-5.6,12.6v17.6h-7.8l-2.4,5.5h10.2v86.5h-48.3 l-2.4,5.6h50.7v86.5h-86.1v-6.2l-5.6,12.6v85.7h-37.7l-2.4,5.6h40.2v86.5h-78.3l-2.5,5.6h80.7v86.5h-86.1v-74.3l-5.6,12.6v61.7H155 l-2.4,5.5h29.6v86.5h-51.1c0.1,1.9,0.2,3.7,0.4,5.5h50.7v86.5h-14.4c1.6,1.9,3.3,3.7,5,5.5h9.4v9c1.8,1.6,3.7,3.2,5.6,4.7v-13.7 h86.1v46.2c1.8,0.1,3.7,0.1,5.6,0.2v-46.4h86.1v46.4h5.6v-46.4h86.1v46.4h5.6v-46.4h86.1v46.4h5.6v-46.4h86.1v46.4h5.6v-46.4H732 v46.4h5.6v-46.4h86.1v46.4h5.6v-46.4h86.1v46.4h5.6v-46.4h86.1v46.4h5.6v-46.4h86.1v46.4h5.5v-46.4h86.1v46.4h5.6v-46.4h86.1v46.4 h5.6v-46.4h86.1v46.4h5.6v-46.4h86.1v46.4h5.6v-46.4h86.1v46.4h5.6v-46.4h86.1v46.4h5.6v-46.4h86.1v46.4h5.6v-46.4h86.1v46.4h5.6 v-46.4h86.1v46.4h5.5v-46.4h86.1v46.4h5.6v-46.4h86.1v38.9c1.9-0.4,3.7-0.9,5.6-1.4v-37.5h83.6c2.7-1.8,5.4-3.6,8-5.5V2167h78.2 c1.1-1.8,2.1-3.7,3.1-5.5h-81.3V2075h86.1v77.4c1.9-3.9,3.8-7.8,5.5-11.8l0,0V2075h28.9l2.4-5.5h-31.3v-86.5h69.4l2.4-5.6h-71.8 v-86.5h86.1v54.2l5.5-12.6v-41.5h18.3l2.4-5.6H2387v-86.5h58.8l2.5-5.6H2387v-86.5h86.1v30.2l5.6-12.6v-17.5h7.7l2.4-5.6h-10.2 v-86.5h48.3l2.4-5.5h-50.7v-86.5h86.1v6.1l5.6-12.6v-85.6h37.7l2.4-5.6h-40.1v-86.5h78.2l2.5-5.6h-80.7v-86.5h86.1v74.3l5.6-12.6 v-61.6h27.1l2.5-5.6h-29.6v-86.5h67.7l2.5-5.6h-70.1v-86.5h86.1v50.3l5.6-12.6v-37.6h16.6l2.4-5.6h-19V970h57.1l2.5-5.6h-59.6v-86.5 h86.1v26.3l5.6-12.6v-13.6h6c0.8-1.9,1.5-3.7,2.2-5.6h-8.2V785.9z M273.8,2253.6h-86.1V2167h86.1V2253.6z M273.8,2161.5h-86.1V2075 h86.1V2161.5z M365.4,2253.6h-86.1V2167h86.1V2253.6z M365.4,2161.5h-86.1V2075h86.1V2161.5z M365.4,2069.4h-86.1v-86.5h86.1V2069.4 z M365.4,1977.3h-86.1v-86.5h86.1V1977.3z M365.4,1885.3h-86.1v-86.5h86.1V1885.3z M457.1,2253.6H371V2167h86.1V2253.6z M457.1,2161.5H371V2075h86.1V2161.5z M457.1,2069.4H371v-86.5h86.1V2069.4z M457.1,1977.3H371v-86.5h86.1V1977.3z M457.1,1885.3 H371v-86.5h86.1V1885.3z M457.1,1793.2H371v-86.5h86.1V1793.2z M457.1,1701.1H371v-86.5h86.1V1701.1z M548.7,2253.6h-86.1V2167h86.1 V2253.6z M548.7,2161.5h-86.1V2075h86.1V2161.5z M548.7,2069.4h-86.1v-86.5h86.1V2069.4z M548.7,1977.3h-86.1v-86.5h86.1V1977.3z M548.7,1885.3h-86.1v-86.5h86.1V1885.3z M548.7,1793.2h-86.1v-86.5h86.1V1793.2z M548.7,1701.1h-86.1v-86.5h86.1V1701.1z M548.7,1609h-86.1v-86.5h86.1V1609z M548.7,1516.9h-86.1v-86.5h86.1V1516.9z M640.4,2253.6h-86.1V2167h86.1V2253.6z M640.4,2161.5 h-86.1V2075h86.1V2161.5z M640.4,2069.4h-86.1v-86.5h86.1V2069.4z M640.4,1977.3h-86.1v-86.5h86.1V1977.3z M640.4,1885.3h-86.1 v-86.5h86.1V1885.3z M640.4,1793.2h-86.1v-86.5h86.1V1793.2z M640.4,1701.1h-86.1v-86.5h86.1V1701.1z M640.4,1609h-86.1v-86.5h86.1 V1609z M640.4,1516.9h-86.1v-86.5h86.1V1516.9z M640.4,1424.9h-86.1v-86.5h86.1V1424.9z M640.4,1332.8h-86.1v-86.5h86.1V1332.8z M732,2253.6h-86.1V2167H732V2253.6z M732,2161.5h-86.1V2075H732V2161.5z M732,2069.4h-86.1v-86.5H732V2069.4z M732,1977.3h-86.1 v-86.5H732V1977.3z M732,1885.3h-86.1v-86.5H732V1885.3z M732,1793.2h-86.1v-86.5H732V1793.2z M732,1701.1h-86.1v-86.5H732V1701.1z M732,1609h-86.1v-86.5H732V1609z M732,1516.9h-86.1v-86.5H732V1516.9z M732,1424.9h-86.1v-86.5H732V1424.9z M732,1332.8h-86.1 v-86.5H732V1332.8z M732,1240.7h-86.1v-86.5H732V1240.7z M732,1148.6h-86.1v-86.5H732V1148.6z M732,1056.5h-86.1V970H732V1056.5z M823.6,2253.6h-86.1V2167h86.1V2253.6z M823.6,2161.5h-86.1V2075h86.1V2161.5z M823.6,2069.4h-86.1v-86.5h86.1V2069.4z M823.6,1977.3h-86.1v-86.5h86.1V1977.3z M823.6,1885.3h-86.1v-86.5h86.1V1885.3z M823.6,1793.2h-86.1v-86.5h86.1V1793.2z M823.6,1701.1h-86.1v-86.5h86.1V1701.1z M823.6,1609h-86.1v-86.5h86.1V1609z M823.6,1516.9h-86.1v-86.5h86.1V1516.9z M823.6,1424.9 h-86.1v-86.5h86.1V1424.9z M823.6,1332.8h-86.1v-86.5h86.1V1332.8z M823.6,1240.7h-86.1v-86.5h86.1V1240.7z M823.6,1148.6h-86.1 v-86.5h86.1V1148.6z M823.6,1056.5h-86.1V970h86.1V1056.5z M823.6,964.5h-86.1v-86.5h86.1V964.5z M823.6,872.4h-86.1v-86.5h86.1 V872.4z M915.3,2253.6h-86.1V2167h86.1V2253.6z M915.3,2161.5h-86.1V2075h86.1V2161.5z M915.3,2069.4h-86.1v-86.5h86.1V2069.4z M915.3,1977.3h-86.1v-86.5h86.1V1977.3z M915.3,1885.3h-86.1v-86.5h86.1V1885.3z M915.3,1793.2h-86.1v-86.5h86.1V1793.2z M915.3,1701.1h-86.1v-86.5h86.1V1701.1z M915.3,1609h-86.1v-86.5h86.1V1609z M915.3,1516.9h-86.1v-86.5h86.1V1516.9z M915.3,1424.9 h-86.1v-86.5h86.1V1424.9z M915.3,1332.8h-86.1v-86.5h86.1V1332.8z M915.3,1240.7h-86.1v-86.5h86.1V1240.7z M915.3,1148.6h-86.1 v-86.5h86.1V1148.6z M915.3,1056.5h-86.1V970h86.1V1056.5z M915.3,964.5h-86.1v-86.5h86.1V964.5z M915.3,872.4h-86.1v-86.5h86.1 V872.4z M1006.9,2253.6h-86.1V2167h86.1V2253.6z M1006.9,2161.5h-86.1V2075h86.1V2161.5z M1006.9,2069.4h-86.1v-86.5h86.1V2069.4z M1006.9,1977.3h-86.1v-86.5h86.1V1977.3z M1006.9,1885.3h-86.1v-86.5h86.1V1885.3z M1006.9,1793.2h-86.1v-86.5h86.1V1793.2z M1006.9,1701.1h-86.1v-86.5h86.1V1701.1z M1006.9,1609h-86.1v-86.5h86.1V1609z M1006.9,1516.9h-86.1v-86.5h86.1V1516.9z M1006.9,1424.9h-86.1v-86.5h86.1V1424.9z M1006.9,1332.8h-86.1v-86.5h86.1V1332.8z M1006.9,1240.7h-86.1v-86.5h86.1V1240.7z M1006.9,1148.6h-86.1v-86.5h86.1V1148.6z M1006.9,1056.5h-86.1V970h86.1V1056.5z M1006.9,964.5h-86.1v-86.5h86.1V964.5z M1006.9,872.4h-86.1v-86.5h86.1V872.4z M1006.9,780.3h-86.1v-86.5h86.1V780.3z M1098.5,2253.6h-86.1V2167h86.1V2253.6z M1098.5,2161.5h-86.1V2075h86.1V2161.5z M1098.5,2069.4h-86.1v-86.5h86.1V2069.4z M1098.5,1977.3h-86.1v-86.5h86.1V1977.3z M1098.5,1885.3h-86.1v-86.5h86.1V1885.3z M1098.5,1793.2h-86.1v-86.5h86.1V1793.2z M1098.5,1701.1h-86.1v-86.5h86.1V1701.1z M1098.5,1609h-86.1v-86.5h86.1V1609z M1098.5,1516.9h-86.1v-86.5h86.1V1516.9z M1098.5,1424.9h-86.1v-86.5h86.1V1424.9z M1098.5,1332.8h-86.1v-86.5h86.1V1332.8z M1098.5,1240.7h-86.1v-86.5h86.1V1240.7z M1098.5,1148.6h-86.1v-86.5h86.1V1148.6z M1098.5,1056.5h-86.1V970h86.1V1056.5z M1098.5,964.5h-86.1v-86.5h86.1V964.5z M1098.5,872.4h-86.1v-86.5h86.1V872.4z M1098.5,780.3h-86.1v-86.5h86.1V780.3z M1190.2,2253.6h-86.1V2167h86.1V2253.6z M1190.2,2161.5h-86.1V2075h86.1V2161.5z M1190.2,2069.4h-86.1v-86.5h86.1V2069.4z M1190.2,1977.3h-86.1v-86.5h86.1V1977.3z M1190.2,1885.3h-86.1v-86.5h86.1V1885.3z M1190.2,1793.2h-86.1v-86.5h86.1V1793.2z M1190.2,1701.1h-86.1v-86.5h86.1V1701.1z M1190.2,1609h-86.1v-86.5h86.1V1609z M1190.2,1516.9h-86.1v-86.5h86.1V1516.9z M1190.2,1424.9h-86.1v-86.5h86.1V1424.9z M1190.2,1332.8h-86.1v-86.5h86.1V1332.8z M1190.2,1240.7h-86.1v-86.5h86.1V1240.7z M1190.2,1148.6h-86.1v-86.5h86.1V1148.6z M1190.2,1056.5h-86.1V970h86.1V1056.5z M1190.2,964.5h-86.1v-86.5h86.1V964.5z M1190.2,872.4h-86.1v-86.5h86.1V872.4z M1190.2,780.3h-86.1v-86.5h86.1V780.3z M1281.8,2253.6h-86.1V2167h86.1V2253.6z M1281.8,2161.5h-86.1V2075h86.1V2161.5z M1281.8,2069.4h-86.1v-86.5h86.1V2069.4z M1281.8,1977.3h-86.1v-86.5h86.1V1977.3z M1281.8,1885.3h-86.1v-86.5h86.1V1885.3z M1281.8,1793.2h-86.1v-86.5h86.1V1793.2z M1281.8,1701.1h-86.1v-86.5h86.1V1701.1z M1281.8,1609h-86.1v-86.5h86.1V1609z M1281.8,1516.9h-86.1v-86.5h86.1V1516.9z M1281.8,1424.9h-86.1v-86.5h86.1V1424.9z M1281.8,1332.8h-86.1v-86.5h86.1V1332.8z M1281.8,1240.7h-86.1v-86.5h86.1V1240.7z M1281.8,1148.6h-86.1v-86.5h86.1V1148.6z M1281.8,1056.5h-86.1V970h86.1V1056.5z M1281.8,964.5h-86.1v-86.5h86.1V964.5z M1281.8,872.4h-86.1v-86.5h86.1V872.4z M1281.8,780.3h-86.1v-86.5h86.1V780.3z M1373.4,2253.6h-86.1V2167h86.1V2253.6z M1373.4,2161.5h-86.1V2075h86.1V2161.5z M1373.4,2069.4h-86.1v-86.5h86.1V2069.4z M1373.4,1977.3h-86.1v-86.5h86.1V1977.3z M1373.4,1885.3h-86.1v-86.5h86.1V1885.3z M1373.4,1793.2h-86.1v-86.5h86.1V1793.2z M1373.4,1701.1h-86.1v-86.5h86.1V1701.1z M1373.4,1609h-86.1v-86.5h86.1V1609z M1373.4,1516.9h-86.1v-86.5h86.1V1516.9z M1373.4,1424.9h-86.1v-86.5h86.1V1424.9z M1373.4,1332.8h-86.1v-86.5h86.1V1332.8z M1373.4,1240.7h-86.1v-86.5h86.1V1240.7z M1373.4,1148.6h-86.1v-86.5h86.1V1148.6z M1373.4,1056.5h-86.1V970h86.1V1056.5z M1373.4,964.5h-86.1v-86.5h86.1V964.5z M1373.4,872.4h-86.1v-86.5h86.1V872.4z M1373.4,780.3h-86.1v-86.5h86.1V780.3z M1465.1,2253.6H1379V2167h86.1V2253.6z M1465.1,2161.5H1379V2075h86.1V2161.5z M1465.1,2069.4H1379v-86.5h86.1V2069.4z M1465.1,1977.3H1379v-86.5h86.1V1977.3z M1465.1,1885.3H1379v-86.5h86.1V1885.3z M1465.1,1793.2H1379v-86.5h86.1V1793.2z M1465.1,1701.1H1379v-86.5h86.1V1701.1z M1465.1,1609H1379v-86.5h86.1V1609z M1465.1,1516.9H1379v-86.5h86.1V1516.9z M1465.1,1424.9H1379v-86.5h86.1V1424.9z M1465.1,1332.8H1379v-86.5h86.1V1332.8z M1465.1,1240.7H1379v-86.5h86.1V1240.7z M1465.1,1148.6H1379v-86.5h86.1V1148.6z M1465.1,1056.5H1379V970h86.1V1056.5z M1465.1,964.5H1379v-86.5h86.1V964.5z M1465.1,872.4H1379v-86.5h86.1V872.4z M1465.1,780.3H1379v-86.5h86.1V780.3z M1556.7,2253.6 h-86.1V2167h86.1V2253.6z M1556.7,2161.5h-86.1V2075h86.1V2161.5z M1556.7,2069.4h-86.1v-86.5h86.1V2069.4z M1556.7,1977.3h-86.1 v-86.5h86.1V1977.3z M1556.7,1885.3h-86.1v-86.5h86.1V1885.3z M1556.7,1793.2h-86.1v-86.5h86.1V1793.2z M1556.7,1701.1h-86.1v-86.5 h86.1V1701.1z M1556.7,1609h-86.1v-86.5h86.1V1609z M1556.7,1516.9h-86.1v-86.5h86.1V1516.9z M1556.7,1424.9h-86.1v-86.5h86.1 V1424.9z M1556.7,1332.8h-86.1v-86.5h86.1V1332.8z M1556.7,1240.7h-86.1v-86.5h86.1V1240.7z M1556.7,1148.6h-86.1v-86.5h86.1V1148.6 z M1556.7,1056.5h-86.1V970h86.1V1056.5z M1556.7,964.5h-86.1v-86.5h86.1V964.5z M1556.7,872.4h-86.1v-86.5h86.1V872.4z M1556.7,780.3h-86.1v-86.5h86.1V780.3z M1648.3,2253.6h-86.1V2167h86.1V2253.6z M1648.3,2161.5h-86.1V2075h86.1V2161.5z M1648.3,2069.4h-86.1v-86.5h86.1V2069.4z M1648.3,1977.3h-86.1v-86.5h86.1V1977.3z M1648.3,1885.3h-86.1v-86.5h86.1V1885.3z M1648.3,1793.2h-86.1v-86.5h86.1V1793.2z M1648.3,1701.1h-86.1v-86.5h86.1V1701.1z M1648.3,1609h-86.1v-86.5h86.1V1609z M1648.3,1516.9h-86.1v-86.5h86.1V1516.9z M1648.3,1424.9h-86.1v-86.5h86.1V1424.9z M1648.3,1332.8h-86.1v-86.5h86.1V1332.8z M1648.3,1240.7h-86.1v-86.5h86.1V1240.7z M1648.3,1148.6h-86.1v-86.5h86.1V1148.6z M1648.3,1056.5h-86.1V970h86.1V1056.5z M1648.3,964.5h-86.1v-86.5h86.1V964.5z M1648.3,872.4h-86.1v-86.5h86.1V872.4z M1648.3,780.3h-86.1v-86.5h86.1V780.3z M1740,2253.6 h-86.1V2167h86.1V2253.6z M1740,2161.5h-86.1V2075h86.1V2161.5z M1740,2069.4h-86.1v-86.5h86.1V2069.4z M1740,1977.3h-86.1v-86.5 h86.1V1977.3z M1740,1885.3h-86.1v-86.5h86.1V1885.3z M1740,1793.2h-86.1v-86.5h86.1V1793.2z M1740,1701.1h-86.1v-86.5h86.1V1701.1z M1740,1609h-86.1v-86.5h86.1V1609z M1740,1516.9h-86.1v-86.5h86.1V1516.9z M1740,1424.9h-86.1v-86.5h86.1V1424.9z M1740,1332.8 h-86.1v-86.5h86.1V1332.8z M1740,1240.7h-86.1v-86.5h86.1V1240.7z M1740,1148.6h-86.1v-86.5h86.1V1148.6z M1740,1056.5h-86.1V970 h86.1V1056.5z M1740,964.5h-86.1v-86.5h86.1V964.5z M1740,872.4h-86.1v-86.5h86.1V872.4z M1740,780.3h-86.1v-86.5h86.1V780.3z M1831.6,2253.6h-86.1V2167h86.1V2253.6z M1831.6,2161.5h-86.1V2075h86.1V2161.5z M1831.6,2069.4h-86.1v-86.5h86.1V2069.4z M1831.6,1977.3h-86.1v-86.5h86.1V1977.3z M1831.6,1885.3h-86.1v-86.5h86.1V1885.3z M1831.6,1793.2h-86.1v-86.5h86.1V1793.2z M1831.6,1701.1h-86.1v-86.5h86.1V1701.1z M1831.6,1609h-86.1v-86.5h86.1V1609z M1831.6,1516.9h-86.1v-86.5h86.1V1516.9z M1831.6,1424.9h-86.1v-86.5h86.1V1424.9z M1831.6,1332.8h-86.1v-86.5h86.1V1332.8z M1831.6,1240.7h-86.1v-86.5h86.1V1240.7z M1831.6,1148.6h-86.1v-86.5h86.1V1148.6z M1831.6,1056.5h-86.1V970h86.1V1056.5z M1831.6,964.5h-86.1v-86.5h86.1V964.5z M1831.6,872.4h-86.1v-86.5h86.1V872.4z M1831.6,780.3h-86.1v-86.5h86.1V780.3z M1923.2,2253.6h-86.1V2167h86.1V2253.6z M1923.2,2161.5h-86.1V2075h86.1V2161.5z M1923.2,2069.4h-86.1v-86.5h86.1V2069.4z M1923.2,1977.3h-86.1v-86.5h86.1V1977.3z M1923.2,1885.3h-86.1v-86.5h86.1V1885.3z M1923.2,1793.2h-86.1v-86.5h86.1V1793.2z M1923.2,1701.1h-86.1v-86.5h86.1V1701.1z M1923.2,1609h-86.1v-86.5h86.1V1609z M1923.2,1516.9h-86.1v-86.5h86.1V1516.9z M1923.2,1424.9h-86.1v-86.5h86.1V1424.9z M1923.2,1332.8h-86.1v-86.5h86.1V1332.8z M1923.2,1240.7h-86.1v-86.5h86.1V1240.7z M1923.2,1148.6h-86.1v-86.5h86.1V1148.6z M1923.2,1056.5h-86.1V970h86.1V1056.5z M1923.2,964.5h-86.1v-86.5h86.1V964.5z M1923.2,872.4h-86.1v-86.5h86.1V872.4z M1923.2,780.3h-86.1v-86.5h86.1V780.3z M2014.9,2253.6h-86.1V2167h86.1V2253.6z M2014.9,2161.5h-86.1V2075h86.1V2161.5z M2014.9,2069.4h-86.1v-86.5h86.1V2069.4z M2014.9,1977.3h-86.1v-86.5h86.1V1977.3z M2014.9,1885.3h-86.1v-86.5h86.1V1885.3z M2014.9,1793.2h-86.1v-86.5h86.1V1793.2z M2014.9,1701.1h-86.1v-86.5h86.1V1701.1z M2014.9,1609h-86.1v-86.5h86.1V1609z M2014.9,1516.9h-86.1v-86.5h86.1V1516.9z M2014.9,1424.9h-86.1v-86.5h86.1V1424.9z M2014.9,1332.8h-86.1v-86.5h86.1V1332.8z M2014.9,1240.7h-86.1v-86.5h86.1V1240.7z M2014.9,1148.6h-86.1v-86.5h86.1V1148.6z M2014.9,1056.5h-86.1V970h86.1V1056.5z M2014.9,964.5h-86.1v-86.5h86.1V964.5z M2014.9,872.4h-86.1v-86.5h86.1V872.4z M2014.9,780.3h-86.1v-86.5h86.1V780.3z M2106.5,2253.6h-86.1V2167h86.1V2253.6z M2106.5,2161.5h-86.1V2075h86.1V2161.5z M2106.5,2069.4h-86.1v-86.5h86.1V2069.4z M2106.5,1977.3h-86.1v-86.5h86.1V1977.3z M2106.5,1885.3h-86.1v-86.5h86.1V1885.3z M2106.5,1793.2h-86.1v-86.5h86.1V1793.2z M2106.5,1701.1h-86.1v-86.5h86.1V1701.1z M2106.5,1609h-86.1v-86.5h86.1V1609z M2106.5,1516.9h-86.1v-86.5h86.1V1516.9z M2106.5,1424.9h-86.1v-86.5h86.1V1424.9z M2106.5,1332.8h-86.1v-86.5h86.1V1332.8z M2106.5,1240.7h-86.1v-86.5h86.1V1240.7z M2106.5,1148.6h-86.1v-86.5h86.1V1148.6z M2106.5,1056.5h-86.1V970h86.1V1056.5z M2106.5,964.5h-86.1v-86.5h86.1V964.5z M2106.5,872.4h-86.1v-86.5h86.1V872.4z M2106.5,780.3h-86.1v-86.5h86.1V780.3z M2198.1,2253.6h-86.1V2167h86.1V2253.6z M2198.1,2161.5h-86.1V2075h86.1V2161.5z M2198.1,2069.4h-86.1v-86.5h86.1V2069.4z M2198.1,1977.3h-86.1v-86.5h86.1V1977.3z M2198.1,1885.3h-86.1v-86.5h86.1V1885.3z M2198.1,1793.2h-86.1v-86.5h86.1V1793.2z M2198.1,1701.1h-86.1v-86.5h86.1V1701.1z M2198.1,1609h-86.1v-86.5h86.1V1609z M2198.1,1516.9h-86.1v-86.5h86.1V1516.9z M2198.1,1424.9h-86.1v-86.5h86.1V1424.9z M2198.1,1332.8h-86.1v-86.5h86.1V1332.8z M2198.1,1240.7h-86.1v-86.5h86.1V1240.7z M2198.1,1148.6h-86.1v-86.5h86.1V1148.6z M2198.1,1056.5h-86.1V970h86.1V1056.5z M2198.1,964.5h-86.1v-86.5h86.1V964.5z M2198.1,872.4h-86.1v-86.5h86.1V872.4z M2198.1,780.3h-86.1v-86.5h86.1V780.3z M2289.8,2069.4h-86.1v-86.5h86.1V2069.4z M2289.8,1977.3h-86.1v-86.5h86.1V1977.3z M2289.8,1885.3h-86.1v-86.5h86.1V1885.3z M2289.8,1793.2h-86.1v-86.5h86.1V1793.2z M2289.8,1701.1h-86.1v-86.5h86.1V1701.1z M2289.8,1609h-86.1v-86.5h86.1V1609z M2289.8,1516.9h-86.1v-86.5h86.1V1516.9z M2289.8,1424.9h-86.1v-86.5h86.1V1424.9z M2289.8,1332.8h-86.1v-86.5h86.1V1332.8z M2289.8,1240.7h-86.1v-86.5h86.1V1240.7z M2289.8,1148.6h-86.1v-86.5h86.1V1148.6z M2289.8,1056.5h-86.1V970h86.1V1056.5z M2289.8,964.5h-86.1v-86.5h86.1V964.5z M2289.8,872.4h-86.1v-86.5h86.1V872.4z M2289.8,780.3h-86.1v-86.5h86.1V780.3z M2381.4,1885.3h-86.1v-86.5h86.1V1885.3z M2381.4,1793.2h-86.1v-86.5h86.1V1793.2z M2381.4,1701.1h-86.1v-86.5h86.1V1701.1z M2381.4,1609h-86.1v-86.5h86.1V1609z M2381.4,1516.9h-86.1v-86.5h86.1V1516.9z M2381.4,1424.9h-86.1v-86.5h86.1V1424.9z M2381.4,1332.8h-86.1v-86.5h86.1V1332.8z M2381.4,1240.7h-86.1v-86.5h86.1V1240.7z M2381.4,1148.6h-86.1v-86.5h86.1V1148.6z M2381.4,1056.5h-86.1V970h86.1V1056.5z M2381.4,964.5h-86.1v-86.5h86.1V964.5z M2381.4,872.4h-86.1v-86.5h86.1V872.4z M2381.4,780.3h-86.1v-86.5h86.1V780.3z M2473,1701.1H2387v-86.5h86.1V1701.1z M2473,1609 H2387v-86.5h86.1V1609z M2473,1516.9H2387v-86.5h86.1V1516.9z M2473,1424.9H2387v-86.5h86.1V1424.9z M2473,1332.8H2387v-86.5h86.1 V1332.8z M2473,1240.7H2387v-86.5h86.1V1240.7z M2473,1148.6H2387v-86.5h86.1V1148.6z M2473,1056.5H2387V970h86.1V1056.5z M2473,964.5H2387v-86.5h86.1V964.5z M2473,872.4H2387v-86.5h86.1V872.4z M2473,780.3H2387v-86.5h86.1V780.3z M2564.7,1516.9h-86.1 v-86.5h86.1V1516.9z M2564.7,1424.9h-86.1v-86.5h86.1V1424.9z M2564.7,1332.8h-86.1v-86.5h86.1V1332.8z M2564.7,1240.7h-86.1v-86.5 h86.1V1240.7z M2564.7,1148.6h-86.1v-86.5h86.1V1148.6z M2564.7,1056.5h-86.1V970h86.1V1056.5z M2564.7,964.5h-86.1v-86.5h86.1 V964.5z M2564.7,872.4h-86.1v-86.5h86.1V872.4z M2564.7,780.3h-86.1v-86.5h86.1V780.3z M2656.3,1240.7h-86.1v-86.5h86.1V1240.7z M2656.3,1148.6h-86.1v-86.5h86.1V1148.6z M2656.3,1056.5h-86.1V970h86.1V1056.5z M2656.3,964.5h-86.1v-86.5h86.1V964.5z M2656.3,872.4h-86.1v-86.5h86.1V872.4z M2656.3,780.3h-86.1v-86.5h86.1V780.3z M2748,1056.5h-86.1V970h86.1V1056.5z M2748,964.5 h-86.1v-86.5h86.1V964.5z M2748,872.4h-86.1v-86.5h86.1V872.4z M2748,780.3h-86.1v-86.5h86.1V780.3z M2839.6,872.4h-86.1v-86.5h86.1 V872.4z"/></g></svg>