<?xml version="1.0" encoding="UTF-8" standalone="no"?><svg xmlns="http://www.w3.org/2000/svg" xmlns:xlink="http://www.w3.org/1999/xlink" contentScriptType="text/ecmascript" fill="#000000" width="119" zoomAndPan="magnify" contentStyleType="text/css" viewBox="0.0 0.0 118.6 122.2" height="122" data-name="Layer 2" preserveAspectRatio="xMidYMid meet" version="1"><g data-name="Layer 1"><g fill="#ffffff"><g id="change1_1"><path d="M0 0L38.22 0 38.22 38.19 0 0z"/><path d="M40.17 0L78.4 0 78.4 38.19 40.17 0z"/><path d="M80.35 0L118.57 0 118.57 38.19 80.35 0z"/></g><g id="change1_2"><path d="M0 42.01L38.22 42.01 38.22 80.21 0 42.01z"/><path d="M40.17 42.01L78.4 42.01 78.4 80.21 40.17 42.01z"/><path d="M80.35 42.01L118.57 42.01 118.57 80.21 80.35 42.01z"/></g><g id="change1_3"><path d="M0 84.02L38.22 84.02 38.22 122.22 0 84.02z"/><path d="M40.17 84.02L78.4 84.02 78.4 122.22 40.17 84.02z"/><path d="M80.35 84.02L118.57 84.02 118.57 122.22 80.35 84.02z"/></g></g></g></svg>