<?xml version="1.0" encoding="UTF-8" standalone="no"?><svg xmlns="http://www.w3.org/2000/svg" xmlns:xlink="http://www.w3.org/1999/xlink" contentScriptType="text/ecmascript" fill="#ffffff" width="434" zoomAndPan="magnify" contentStyleType="text/css" viewBox="42.5 25.4 434.3 465.4" height="465" preserveAspectRatio="xMidYMid meet" version="1"><g id="change1_1"><path d="M229.96,179.74c-3.88,0-7-3.12-7-7v-30.87h-56.24v30.87c0,3.88-3.15,7-7,7h-17.89v156.67h147.49h0.17c0.06,0,0.11,0,0.17,0 l0,0c0.06,0,0.11,0.03,0.2,0.03h0.17c0.06,0,0.11,0.03,0.17,0.03l0.17,0.03l0.17,0.03l0.17,0.03c0.06,0,0.11,0.03,0.17,0.03 l0.17,0.06l0.17,0.03l0.17,0.06l0.17,0.06l0.14,0.06l0.17,0.06l0.17,0.06c0.03,0.03,0.09,0.06,0.14,0.09l0,0 c0.06,0.03,0.11,0.03,0.17,0.06l0.14,0.09l0.14,0.08l0.14,0.08l0.17,0.08l0.14,0.08l0.14,0.09l0.11,0.11 c0.06,0.03,0.11,0.06,0.14,0.08l0.14,0.11l0.14,0.08l0.11,0.11l0.14,0.11c0.03,0.03,0.06,0.08,0.11,0.11l0.11,0.11l1.5,2.24 c0.11,0.51,0.54,1.08,0.54,2.72v30.87h56.24v-31.04c0.06-2.95,2.07-4.76,2.07-4.79l0.11-0.11l0.11-0.11l0.14-0.11l0.11-0.11 c0.06-0.03,0.09-0.06,0.14-0.08l0.14-0.11l0.11-0.08c0.06-0.06,0.11-0.09,0.14-0.11l0.14-0.09l0.14-0.08l0.14-0.08l0.17-0.08 l0.14-0.08l0.14-0.09c0.06-0.03,0.11-0.03,0.17-0.06l0.14-0.09l0.17-0.06c0.06-0.03,0.11-0.03,0.14-0.06l0.17-0.06l0.17-0.06 l0.17-0.06c0.06,0,0.11-0.03,0.17-0.03l0.17-0.06c0.06,0,0.11-0.03,0.17-0.03l0.17-0.03l0.17-0.03l0.17-0.03 c0.06,0,0.11-0.03,0.17-0.03H359c0.06,0,0.14-0.03,0.2-0.03h0.17h0.17h17.89V179.74H229.96z M201.85,87.24c0,3.86-3.15,7-7,7 c-3.88,0-7-3.15-7-7V49.97l-9.38,9.38c-2.72,2.72-7.14,2.72-9.89,0c-2.72-2.75-2.72-7.17,0-9.92l22-21.88 c2.81-2.18,6.75-1.9,9.27,0.62l21.26,21.26c2.75,2.75,2.75,7.17,0,9.92c-2.72,2.72-7.17,2.72-9.89,0l-9.35-9.38V87.24z M317.41,428.93c0-3.88,3.15-7,7-7c3.88,0,7,3.12,7,7v37.25l9.38-9.35c2.72-2.75,7.17-2.75,9.89,0c2.72,2.72,2.72,7.14,0,9.89 l-21.97,21.88c-2.83,2.18-6.77,1.93-9.3-0.62l-21.26-21.26c-2.75-2.75-2.75-7.17,0-9.89c2.72-2.75,7.17-2.75,9.89,0l9.35,9.35 V428.93z M320.62,488.94 M258.85,250.52c-2.72,2.78-7.2,2.81-9.98,0l-11.51-11.48c-5.3-5.33,0.45-14.17,7.46-11.51 c-5.33-9.67-18.4-11.71-26.33-3.77c-3,3-4.88,7.17-4.88,11.74v10.12c0,3.85-3.15,7-7,7s-7-3.15-7-7v-10.12 c0-16.87,13.78-30.64,30.61-30.64c14.66,0,27.13,10.43,30.02,24.49c3-2.98,7.31-3,10.12-0.23c2.72,2.75,2.72,7.17,0,9.92 L258.85,250.52z M250.03,251.48 M331.87,297.88c-2.72-2.72-2.72-7.17,0-9.89c2.61-2.61,6.75-2.72,9.5-0.4v-52.3 c0-14.54-17.8-22.31-28.35-11.74c-3.03,3.03-4.9,7.17-4.9,11.74v10.15c0,3.86-3.15,7-7,7c-3.86,0-7-3.15-7-7V235.3 c0-16.84,13.78-30.61,30.64-30.61c16.84,0,30.61,13.78,30.61,30.61v52.3c2.75-2.32,6.89-2.21,9.5,0.4c2.72,2.72,2.72,7.17,0,9.89 l-12.22,12.13c-2.81,2.18-6.75,1.9-9.27-0.62L331.87,297.88z M292.07,288.81c-7,2.64-12.76-6.18-7.46-11.51l12.22-12.13 c2.83-2.15,6.77-1.9,9.27,0.65l11.51,11.48c2.72,2.75,2.72,7.17,0,9.89c-2.78,2.81-7.14,2.78-10.12-0.2 c-4.85,23.56-34.21,32.91-51.65,15.48c-5.53-5.53-8.99-13.21-8.99-21.63v-10.12c0-3.88,3.15-7,7-7s7,3.12,7,7v10.12 c0,14.57,17.8,22.31,28.37,11.74C290.34,291.48,291.31,290.2,292.07,288.81L292.07,288.81z M197.56,288.81 c-7,2.64-12.76-6.18-7.46-11.51l12.22-12.13c2.83-2.15,6.77-1.9,9.27,0.65l11.51,11.48c2.72,2.75,2.72,7.17,0,9.89 c-2.81,2.81-7.14,2.78-10.12-0.2c-4.85,23.56-34.21,32.91-51.65,15.48c-5.56-5.53-8.99-13.21-8.99-21.63v-68.77c0-3.88,3.15-7,7-7 s7,3.12,7,7v68.77c0,14.57,17.8,22.31,28.37,11.74C195.84,291.48,196.8,290.2,197.56,288.81L197.56,288.81z M304.94,264.86 M210.43,264.86 M163.75,350.41v35.49h21.32v-35.49H163.75z M199.04,350.41v36c0,7.4-6.04,13.49-13.49,13.49h-22.31 c-7.43,0-13.49-6.07-13.49-13.49v-36h-14.91c-50.8,0-92.32-41.53-92.32-92.32s41.53-92.35,92.32-92.35h17.89v-23.87 c-6.41,0-11.62-5.24-11.62-11.65v-16.81c0-6.43,5.24-11.65,11.65-11.65h84.16c6.43,0,11.65,5.22,11.65,11.65v16.81 c0,3.2-1.3,6.09-3.43,8.22l0.03,0.03c-2.1,2.1-5.02,3.4-8.19,3.4v23.87h147.46c50.8,0,92.35,41.56,92.35,92.35 s-41.56,92.32-92.35,92.32h-17.89v23.87c6.38,0.03,11.62,5.27,11.62,11.65v16.84c0,6.41-5.22,11.62-11.65,11.62h-84.16 c-6.43,0-11.65-5.22-11.65-11.62v-16.84c0-3.2,1.3-6.12,3.4-8.22h0.03c2.13-2.1,5.02-3.43,8.19-3.43v-23.87h-16.84v36 c0,7.4-6.07,13.49-13.49,13.49h-22.34c-7.43,0-13.49-6.07-13.49-13.49v-36H199.04z M230.16,350.41v35.49h21.32v-35.49H230.16z M289.32,388.28h-4.62v12.13h79.46v-12.13C339.21,388.28,314.27,388.28,289.32,388.28L289.32,388.28z M229.94,127.86h4.62v-12.1 H155.1v12.1H229.94z M391.43,336.1c39.97-3.6,71.35-37.47,71.35-78.01c0-40.56-31.38-74.44-71.35-78.04V336.1z M127.83,336.1V180.05 c-39.97,3.6-71.35,37.47-71.35,78.04C56.48,298.62,87.86,332.5,127.83,336.1L127.83,336.1z"/></g></svg>