<?xml version="1.0" encoding="UTF-8" standalone="no"?><svg xmlns="http://www.w3.org/2000/svg" xmlns:xlink="http://www.w3.org/1999/xlink" contentScriptType="text/ecmascript" fill="#000000" width="45" zoomAndPan="magnify" contentStyleType="text/css" viewBox="1.5 1.5 45.0 45.0" height="45" preserveAspectRatio="xMidYMid meet" version="1"><g id="change1_1"><path fill="#ffffff" d="M 7.5 1.5 C 5.824219 1.5 4.5 2.851562 4.5 4.5 L 4.5 16.992188 C 3.421875 17.347656 2.691406 18.027344 2.226562 18.789062 C 1.679688 19.6875 1.5 20.667969 1.5 21.492188 L 1.5 27.875 C 1.5 29.203125 2.105469 30.835938 2.667969 32.421875 C 2.953125 33.214844 3.230469 33.984375 3.433594 34.625 C 3.636719 35.265625 3.75 35.746094 3.75 35.996094 L 3.75 38.824219 C 3.292969 39.234375 3 39.824219 3 40.5 L 3 44.253906 C 3 45.503906 4.015625 46.5 5.25 46.5 L 15.75 46.5 C 16.984375 46.5 18 45.519531 18 44.253906 L 18 40.5 C 18 39.609375 17.484375 38.824219 16.707031 38.460938 C 16.832031 37.945312 17.101562 37.261719 17.394531 36.433594 C 17.738281 35.46875 18.097656 34.316406 18.207031 33.003906 L 27.667969 33.003906 L 29.671875 37.023438 C 28.972656 37.40625 28.5 38.132812 28.5 39 L 28.5 42.753906 C 28.5 43.988281 29.496094 45 30.75 45 L 41.25 45 C 42.503906 45 43.5 43.988281 43.5 42.753906 L 43.5 39 C 43.5 38.097656 42.972656 37.316406 42.1875 36.953125 L 43.316406 33.003906 L 43.5 33.003906 C 45.148438 33.003906 46.5 31.667969 46.5 30 L 46.5 4.5 C 46.5 2.851562 45.179688 1.5 43.5 1.5 Z M 7.5 3 L 43.5 3 C 44.328125 3 45 3.65625 45 4.5 L 45 30 C 45 30.84375 44.320312 31.503906 43.5 31.503906 L 43.5 6.75 C 43.5 5.515625 42.507812 4.5 41.25 4.5 L 9.75 4.5 C 8.488281 4.5 7.5 5.515625 7.5 6.75 L 7.5 19.5 C 6.953125 19.5 6.445312 19.640625 6 19.902344 L 6 4.5 C 6 3.65625 6.671875 3 7.5 3 Z M 9.75 6 L 41.25 6 C 41.65625 6 42 6.320312 42 6.75 L 42 24.128906 C 41.761719 24.042969 41.515625 24 41.25 24 C 40.878906 24 40.691406 24.058594 40.417969 24.15625 C 40.277344 23.464844 39.484375 22.492188 38.25 22.5 C 37.691406 22.503906 37.34375 22.683594 37.144531 22.789062 C 36.882812 22.367188 36.277344 21.753906 35.25 21.753906 C 34.914062 21.753906 34.695312 21.808594 34.496094 21.878906 L 34.496094 19.5 L 39.761719 19.5 C 40.761719 19.5 40.761719 18 39.761719 18 L 34.496094 18 L 34.496094 15.75 C 34.496094 15.484375 34.457031 15.234375 34.371094 15 L 36.128906 15 C 36.433594 15.867188 37.257812 16.5 38.246094 16.5 C 39.507812 16.5 40.5 15.484375 40.5 14.25 C 40.5 13.015625 39.496094 12 38.246094 12 C 37.265625 12 36.441406 12.632812 36.128906 13.496094 L 23.246094 13.496094 C 22.246094 13.496094 22.246094 15 23.246094 15 L 30.128906 15 C 30.042969 15.234375 30 15.488281 30 15.75 L 30 18 L 28.371094 18 C 28.058594 17.132812 27.246094 16.503906 26.246094 16.503906 C 25.246094 16.503906 24.4375 17.132812 24.128906 18 L 23.257812 18 C 22.257812 18 22.257812 19.5 23.257812 19.5 L 24.125 19.5 C 24.433594 20.367188 25.238281 20.996094 26.246094 20.996094 C 27.257812 20.996094 28.066406 20.367188 28.371094 19.5 L 30 19.5 L 30 25.707031 L 29.117188 24.167969 C 28.394531 22.917969 26.796875 22.476562 25.527344 23.210938 C 24.242188 23.953125 23.929688 25.511719 24.546875 26.753906 L 25.421875 28.5 L 12.101562 28.5 C 11.554688 27.804688 11.015625 27.257812 10.503906 26.601562 L 10.503906 22.5 C 10.503906 21.398438 9.914062 20.433594 9.003906 19.898438 L 9.003906 6.75 C 9.003906 6.335938 9.320312 6 9.75 6 Z M 26.25 7.5 C 25.265625 7.5 24.433594 8.132812 24.125 9.003906 L 23.25 9.003906 C 22.25 9.003906 22.25 10.503906 23.25 10.503906 L 24.128906 10.503906 C 24.4375 11.367188 25.261719 12 26.25 12 C 27.238281 12 28.0625 11.367188 28.371094 10.503906 L 39.761719 10.503906 C 40.761719 10.503906 40.761719 9.003906 39.761719 9.003906 L 28.371094 9.003906 C 28.074219 8.136719 27.234375 7.5 26.25 7.5 Z M 15.75 8.25 C 15.570312 8.25 15.402344 8.3125 15.269531 8.425781 L 10.769531 12.175781 C 10 12.816406 10.964844 13.96875 11.730469 13.324219 L 11.996094 13.105469 L 11.996094 15.75 C 11 15.753906 11 17.25 12 17.25 L 19.5 17.25 C 20.5 17.25 20.5 15.75 19.5 15.75 L 19.5 13.101562 L 19.769531 13.324219 C 20.535156 13.96875 21.5 12.816406 20.730469 12.175781 L 16.230469 8.425781 C 16.097656 8.3125 15.929688 8.25 15.75 8.25 Z M 26.25 9 C 26.65625 9 27.003906 9.320312 27.003906 9.746094 C 27.003906 10.175781 26.660156 10.5 26.25 10.5 C 25.839844 10.5 25.503906 10.175781 25.503906 9.746094 C 25.503906 9.320312 25.84375 9 26.25 9 Z M 15.75 9.976562 L 18 11.851562 L 18 15.75 L 16.5 15.75 L 16.5 14.25 C 16.476562 13.273438 15.019531 13.273438 15 14.25 L 15 15.75 L 13.496094 15.75 L 13.496094 11.855469 Z M 38.246094 13.5 C 38.65625 13.5 39 13.820312 39 14.25 C 39 14.679688 38.644531 15.003906 38.246094 15.003906 C 37.847656 15.003906 37.5 14.679688 37.5 14.25 C 37.5 13.820312 37.839844 13.5 38.246094 13.5 Z M 32.25 15 C 32.652344 15 33.003906 15.324219 33.003906 15.75 L 33.003906 27 C 33.003906 27.984375 34.496094 28.023438 34.496094 27 L 34.496094 24 C 34.496094 23.570312 34.855469 23.246094 35.25 23.246094 C 35.644531 23.246094 35.996094 23.570312 35.996094 24 L 35.996094 27 C 35.996094 28 37.5 28 37.5 27 L 37.5 24.746094 C 37.5 24.320312 37.847656 24 38.25 24 C 38.65625 24 39 24.320312 39 24.746094 L 39 27 C 39 28 40.5 28 40.5 27 L 40.5 26.25 C 40.5 25.820312 40.84375 25.5 41.25 25.5 C 41.660156 25.5 42 25.820312 42 26.25 L 42 32.144531 L 40.679688 36.75 L 31.214844 36.75 L 25.886719 26.082031 C 25.578125 25.464844 25.765625 24.800781 26.277344 24.503906 C 26.789062 24.207031 27.484375 24.347656 27.816406 24.917969 L 30.101562 28.871094 C 30.484375 29.539062 31.5 29.269531 31.503906 28.5 L 31.503906 15.75 C 31.503906 15.324219 31.847656 15 32.25 15 Z M 26.246094 18.003906 C 26.65625 18.003906 27 18.320312 27 18.75 C 27 19.179688 26.640625 19.503906 26.246094 19.503906 C 25.855469 19.503906 25.5 19.179688 25.5 18.75 C 25.5 18.320312 25.839844 18.003906 26.246094 18.003906 Z M 4.5 18.613281 L 4.5 27 C 4.523438 27.980469 5.980469 27.980469 6 27 L 6 22.5 C 6 21.65625 6.6875 21 7.5 21 C 8.316406 21 9.003906 21.65625 9.003906 22.5 L 9.003906 26.78125 C 9.003906 27.039062 9.117188 27.222656 9.148438 27.277344 C 9.542969 27.882812 10.359375 28.757812 10.800781 29.28125 C 11.40625 29.992188 12 30.871094 12 31.144531 L 12 33.75 C 11.976562 34.773438 13.523438 34.773438 13.5 33.75 L 13.5 33.003906 L 16.707031 33.003906 C 16.601562 34.066406 16.300781 35.039062 15.984375 35.929688 C 15.6875 36.765625 15.347656 37.578125 15.21875 38.25 L 5.25 38.25 L 5.25 35.996094 C 5.25 35.457031 5.078125 34.859375 4.859375 34.171875 C 4.640625 33.480469 4.359375 32.703125 4.082031 31.917969 C 3.519531 30.347656 3 28.675781 3 27.875 L 3 21.492188 C 3 20.902344 3.144531 20.160156 3.503906 19.566406 C 3.734375 19.183594 4.078125 18.839844 4.5 18.613281 Z M 13.160156 30 L 26.167969 30 L 26.917969 31.503906 L 13.5 31.503906 L 13.5 31.101562 C 13.5 30.660156 13.261719 30.171875 13.160156 30 Z M 30.75 38.25 L 41.25 38.25 C 41.65625 38.25 42 38.570312 42 39 L 42 42.753906 C 42 43.179688 41.652344 43.5 41.25 43.5 L 30.75 43.5 C 30.339844 43.5 30 43.179688 30 42.753906 L 30 39 C 30 38.570312 30.339844 38.25 30.75 38.25 Z M 5.25 39.75 L 15.75 39.75 C 16.160156 39.75 16.5 40.070312 16.5 40.5 L 16.5 44.253906 C 16.5 44.679688 16.152344 45 15.75 45 L 5.25 45 C 4.832031 45 4.5 44.664062 4.5 44.253906 L 4.5 40.5 C 4.5 40.070312 4.835938 39.75 5.25 39.75 Z M 32.25 40.5 C 31.835938 40.5 31.5 40.835938 31.5 41.25 C 31.5 41.664062 31.835938 42 32.25 42 C 32.664062 42 33 41.664062 33 41.25 C 33 40.835938 32.664062 40.5 32.25 40.5 Z M 6.75 42 C 6.335938 42 6 42.335938 6 42.75 C 6 43.164062 6.335938 43.5 6.75 43.5 C 7.164062 43.5 7.5 43.164062 7.5 42.75 C 7.5 42.335938 7.164062 42 6.75 42"/></g></svg>