<?xml version="1.0" encoding="UTF-8" standalone="no"?><svg xmlns="http://www.w3.org/2000/svg" xmlns:xlink="http://www.w3.org/1999/xlink" contentScriptType="text/ecmascript" fill="#000000" width="2867" zoomAndPan="magnify" contentStyleType="text/css" viewBox="72.0 1048.8 2867.0 750.7" height="751" preserveAspectRatio="xMidYMid meet" version="1"><g id="change1_1"><path fill="#ffffff" d="M2939 1048.8L2938.6 1049.6 2936.9 1053.7 2909 1117 2907.2 1121 2893.8 1151.5 2889.7 1160.7 2879.3 1184.3 2877.5 1188.4 2849.7 1251.7 2847.9 1255.8 2826.8 1303.8 2822.7 1313 2820 1319 2818.2 1323.1 2790.4 1386.4 2788.6 1390.5 2760.7 1453.8 2755.7 1465.3 2731.1 1521.1 2729.3 1525.2 2701.4 1588.5 2699.7 1592.5 2692.7 1608.3 2688.6 1617.5 2671.8 1655.8 2670 1659.9 2642.1 1723.2 2640.4 1727.2 2625.7 1760.6 2621.6 1769.8 2612.5 1790.5 2610.7 1794.6 2608.7 1799.2 72 1799.2 74 1794.6 78.6 1784.2 103.7 1727.2 105.5 1723.2 133.3 1659.9 135.1 1655.8 141.6 1641.1 145.6 1631.9 163 1592.5 164.8 1588.5 192.6 1525.2 194.4 1521.1 208.6 1488.9 212.7 1479.6 222.3 1457.8 224.1 1453.8 251.9 1390.5 253.7 1386.4 275.6 1336.6 279.7 1327.4 281.6 1323.1 283.4 1319 311.2 1255.8 313 1251.7 340.9 1188.4 342.7 1184.3 346.7 1175.1 370.5 1121 372.3 1117 400.2 1053.7 402 1049.6 402.3 1048.8z"/></g><g id="change2_1"><path fill="#ffffff" d="M2936.9,1053.7l1.8-4.1h-44.8v-0.8h-4.1v0.8h-63v-0.8h-4.1v0.8h-63v-0.8h-4.1v0.8h-63v-0.8h-4.1v0.8h-63v-0.8 h-4.1v0.8h-63v-0.8h-4.1v0.8h-63v-0.8h-4.1v0.8h-63v-0.8h-4.1v0.8h-63v-0.8h-4.1v0.8h-63v-0.8h-4.1v0.8h-63v-0.8h-4.1v0.8h-63v-0.8 h-4.1v0.8h-63v-0.8h-4.1v0.8h-63v-0.8h-4.1v0.8h-63v-0.8h-4.1v0.8h-63v-0.8h-4.1v0.8h-63v-0.8h-4.1v0.8h-63v-0.8h-4.1v0.8h-63v-0.8 h-4.1v0.8h-63v-0.8h-4.1v0.8h-63v-0.8h-4.1v0.8h-63v-0.8h-4.1v0.8h-63v-0.8h-4.1v0.8h-63v-0.8h-4.1v0.8h-63v-0.8h-4.1v0.8h-63v-0.8 h-4.1v0.8h-63v-0.8h-4.1v0.8h-63v-0.8h-4.1v0.8h-63v-0.8h-4.1v0.8h-63v-0.8h-4.1v0.8h-63v-0.8h-4.1v0.8h-63v-0.8h-4.1v0.8h-63v-0.8 h-4.1v0.8h-63v-0.8h-4.1v0.8h-63v-0.8h-4.1v0.8h-63v-0.8h-4.1v0.8h-63v-0.8h-4.1v0.8h-63v-0.8h-4.1v0.8H402l-1.8,4.1h9.5v63.3h-37.4 l-1.8,4.1h39.2v63.3h-63v-9.2l-4.1,9.2l-1.8,4.1h1.8v63.3H313l-1.8,4.1h31.4v63.3h-59.3l-1.8,4.1h61.1v63.3h-63v-59l-4.1,9.2v49.8 h-21.9l-1.8,4.1h23.7v63.3h-51.6l-1.8,4.1h53.4v63.3h-63v-41.5l-4.1,9.2v32.2h-14.2l-1.8,4.1h16v63.3h-43.8l-1.8,4.1h45.6v63.3h-63 v-23.9l-4.1,9.2v14.7h-6.5l-1.8,4.1h8.3v63.3h-36.1l-1.8,4.1h37.9v63.3h-63v-6.4l-4.6,10.4h0.5v4.6h4.1v-4.6h63v4.6h4.1v-4.6h63v4.6 h4.1v-4.6h63v4.6h4.1v-4.6h63v4.6h4.1v-4.6h63v4.6h4.1v-4.6h63v4.6h4.1v-4.6h63v4.6h4.1v-4.6h63v4.6h4.1v-4.6h63v4.6h4.1v-4.6h63 v4.6h4.1v-4.6h63v4.6h4.1v-4.6h63v4.6h4.1v-4.6h63v4.6h4.1v-4.6h63v4.6h4.1v-4.6h63v4.6h4.1v-4.6h63v4.6h4.1v-4.6h63v4.6h4.1v-4.6 h63v4.6h4.1v-4.6h63v4.6h4.1v-4.6h63v4.6h4.1v-4.6h63v4.6h4.1v-4.6h63v4.6h4.1v-4.6h63v4.6h4.1v-4.6h63v4.6h4.1v-4.6h63v4.6h4.1 v-4.6h63v4.6h4.1v-4.6h63v4.6h4.1v-4.6h63v4.6h4.1v-4.6h63v4.6h4.1v-4.6h63v4.6h4.1v-4.6h63v4.6h4.1v-4.6h63v4.6h4.1v-4.6h63v4.6 h4.1v-4.6h63v4.6h4.1v-4.6h63v4.6h4.1v-4.6h63v4.6h4.1v-4.6h63v4.6h4.1v-4.6h52l1.8-4.1h-53.8v-63.3h63v42.6l4.1-9.2v-33.3h14.7 l1.8-4.1h-16.5v-63.3h44.3l1.8-4.1h-46.1v-63.3h63v25l4.1-9.2v-15.8h6.9l1.8-4.1h-8.7v-63.3h36.6l1.8-4.1h-38.4v-63.3h63v7.4 l5.1-11.5h-1v-63.3h28.9l1.8-4.1h-30.7v-63.3h58.5l1.8-4.1h-60.3v-63.3h63v57.3l4.1-9.2v-48h21.1l1.8-4.1h-22.9v-63.3h50.8l1.8-4.1 h-52.6V1121h63v39.7l4.1-9.2V1121h13.4l1.8-4.1h-15.2v-63.3H2936.9z M208.6,1790.5h-63v-63.3h63V1790.5z M208.6,1723.2h-63v-63.3h63 V1723.2z M275.6,1790.5h-63v-63.3h63V1790.5z M275.6,1723.2h-63v-63.3h63V1723.2z M275.6,1655.8h-63v-63.3h63V1655.8z M275.6,1588.5 h-63v-63.3h63V1588.5z M342.7,1790.5h-63v-63.3h63V1790.5z M342.7,1723.2h-63v-63.3h63V1723.2z M342.7,1655.8h-63v-63.3h63V1655.8z M342.7,1588.5h-63v-63.3h63V1588.5z M342.7,1521.1h-63v-63.3h63V1521.1z M342.7,1453.8h-63v-63.3h63V1453.8z M409.7,1790.5h-63 v-63.3h63V1790.5z M409.7,1723.2h-63v-63.3h63V1723.2z M409.7,1655.8h-63v-63.3h63V1655.8z M409.7,1588.5h-63v-63.3h63V1588.5z M409.7,1521.1h-63v-63.3h63V1521.1z M409.7,1453.8h-63v-63.3h63V1453.8z M409.7,1386.4h-63v-63.3h63V1386.4z M409.7,1319h-63v-63.3 h63V1319z M409.7,1251.7h-63v-63.3h63V1251.7z M476.7,1790.5h-63v-63.3h63V1790.5z M476.7,1723.2h-63v-63.3h63V1723.2z M476.7,1655.8h-63v-63.3h63V1655.8z M476.7,1588.5h-63v-63.3h63V1588.5z M476.7,1521.1h-63v-63.3h63V1521.1z M476.7,1453.8h-63 v-63.3h63V1453.8z M476.7,1386.4h-63v-63.3h63V1386.4z M476.7,1319h-63v-63.3h63V1319z M476.7,1251.7h-63v-63.3h63V1251.7z M476.7,1184.3h-63V1121h63V1184.3z M476.7,1117h-63v-63.3h63V1117z M543.8,1790.5h-63v-63.3h63V1790.5z M543.8,1723.2h-63v-63.3h63 V1723.2z M543.8,1655.8h-63v-63.3h63V1655.8z M543.8,1588.5h-63v-63.3h63V1588.5z M543.8,1521.1h-63v-63.3h63V1521.1z M543.8,1453.8 h-63v-63.3h63V1453.8z M543.8,1386.4h-63v-63.3h63V1386.4z M543.8,1319h-63v-63.3h63V1319z M543.8,1251.7h-63v-63.3h63V1251.7z M543.8,1184.3h-63V1121h63V1184.3z M543.8,1117h-63v-63.3h63V1117z M610.8,1790.5h-63v-63.3h63V1790.5z M610.8,1723.2h-63v-63.3h63 V1723.2z M610.8,1655.8h-63v-63.3h63V1655.8z M610.8,1588.5h-63v-63.3h63V1588.5z M610.8,1521.1h-63v-63.3h63V1521.1z M610.8,1453.8 h-63v-63.3h63V1453.8z M610.8,1386.4h-63v-63.3h63V1386.4z M610.8,1319h-63v-63.3h63V1319z M610.8,1251.7h-63v-63.3h63V1251.7z M610.8,1184.3h-63V1121h63V1184.3z M610.8,1117h-63v-63.3h63V1117z M677.8,1790.5h-63v-63.3h63V1790.5z M677.8,1723.2h-63v-63.3h63 V1723.2z M677.8,1655.8h-63v-63.3h63V1655.8z M677.8,1588.5h-63v-63.3h63V1588.5z M677.8,1521.1h-63v-63.3h63V1521.1z M677.8,1453.8 h-63v-63.3h63V1453.8z M677.8,1386.4h-63v-63.3h63V1386.4z M677.8,1319h-63v-63.3h63V1319z M677.8,1251.7h-63v-63.3h63V1251.7z M677.8,1184.3h-63V1121h63V1184.3z M677.8,1117h-63v-63.3h63V1117z M744.8,1790.5h-63v-63.3h63V1790.5z M744.8,1723.2h-63v-63.3h63 V1723.2z M744.8,1655.8h-63v-63.3h63V1655.8z M744.8,1588.5h-63v-63.3h63V1588.5z M744.8,1521.1h-63v-63.3h63V1521.1z M744.8,1453.8 h-63v-63.3h63V1453.8z M744.8,1386.4h-63v-63.3h63V1386.4z M744.8,1319h-63v-63.3h63V1319z M744.8,1251.7h-63v-63.3h63V1251.7z M744.8,1184.3h-63V1121h63V1184.3z M744.8,1117h-63v-63.3h63V1117z M811.9,1790.5h-63v-63.3h63V1790.5z M811.9,1723.2h-63v-63.3h63 V1723.2z M811.9,1655.8h-63v-63.3h63V1655.8z M811.9,1588.5h-63v-63.3h63V1588.5z M811.9,1521.1h-63v-63.3h63V1521.1z M811.9,1453.8 h-63v-63.3h63V1453.8z M811.9,1386.4h-63v-63.3h63V1386.4z M811.9,1319h-63v-63.3h63V1319z M811.9,1251.7h-63v-63.3h63V1251.7z M811.9,1184.3h-63V1121h63V1184.3z M811.9,1117h-63v-63.3h63V1117z M878.9,1790.5h-63v-63.3h63V1790.5z M878.9,1723.2h-63v-63.3h63 V1723.2z M878.9,1655.8h-63v-63.3h63V1655.8z M878.9,1588.5h-63v-63.3h63V1588.5z M878.9,1521.1h-63v-63.3h63V1521.1z M878.9,1453.8 h-63v-63.3h63V1453.8z M878.9,1386.4h-63v-63.3h63V1386.4z M878.9,1319h-63v-63.3h63V1319z M878.9,1251.7h-63v-63.3h63V1251.7z M878.9,1184.3h-63V1121h63V1184.3z M878.9,1117h-63v-63.3h63V1117z M945.9,1790.5h-63v-63.3h63V1790.5z M945.9,1723.2h-63v-63.3h63 V1723.2z M945.9,1655.8h-63v-63.3h63V1655.8z M945.9,1588.5h-63v-63.3h63V1588.5z M945.9,1521.1h-63v-63.3h63V1521.1z M945.9,1453.8 h-63v-63.3h63V1453.8z M945.9,1386.4h-63v-63.3h63V1386.4z M945.9,1319h-63v-63.3h63V1319z M945.9,1251.7h-63v-63.3h63V1251.7z M945.9,1184.3h-63V1121h63V1184.3z M945.9,1117h-63v-63.3h63V1117z M1012.9,1790.5h-63v-63.3h63V1790.5z M1012.9,1723.2h-63v-63.3 h63V1723.2z M1012.9,1655.8h-63v-63.3h63V1655.8z M1012.9,1588.5h-63v-63.3h63V1588.5z M1012.9,1521.1h-63v-63.3h63V1521.1z M1012.9,1453.8h-63v-63.3h63V1453.8z M1012.9,1386.4h-63v-63.3h63V1386.4z M1012.9,1319h-63v-63.3h63V1319z M1012.9,1251.7h-63 v-63.3h63V1251.7z M1012.9,1184.3h-63V1121h63V1184.3z M1012.9,1117h-63v-63.3h63V1117z M1080,1790.5h-63v-63.3h63V1790.5z M1080,1723.2h-63v-63.3h63V1723.2z M1080,1655.8h-63v-63.3h63V1655.8z M1080,1588.5h-63v-63.3h63V1588.5z M1080,1521.1h-63v-63.3 h63V1521.1z M1080,1453.8h-63v-63.3h63V1453.8z M1080,1386.4h-63v-63.3h63V1386.4z M1080,1319h-63v-63.3h63V1319z M1080,1251.7h-63 v-63.3h63V1251.7z M1080,1184.3h-63V1121h63V1184.3z M1080,1117h-63v-63.3h63V1117z M1147,1790.5h-63v-63.3h63V1790.5z M1147,1723.2 h-63v-63.3h63V1723.2z M1147,1655.8h-63v-63.3h63V1655.8z M1147,1588.5h-63v-63.3h63V1588.5z M1147,1521.1h-63v-63.3h63V1521.1z M1147,1453.8h-63v-63.3h63V1453.8z M1147,1386.4h-63v-63.3h63V1386.4z M1147,1319h-63v-63.3h63V1319z M1147,1251.7h-63v-63.3h63 V1251.7z M1147,1184.3h-63V1121h63V1184.3z M1147,1117h-63v-63.3h63V1117z M1214,1790.5h-63v-63.3h63V1790.5z M1214,1723.2h-63 v-63.3h63V1723.2z M1214,1655.8h-63v-63.3h63V1655.8z M1214,1588.5h-63v-63.3h63V1588.5z M1214,1521.1h-63v-63.3h63V1521.1z M1214,1453.8h-63v-63.3h63V1453.8z M1214,1386.4h-63v-63.3h63V1386.4z M1214,1319h-63v-63.3h63V1319z M1214,1251.7h-63v-63.3h63 V1251.7z M1214,1184.3h-63V1121h63V1184.3z M1214,1117h-63v-63.3h63V1117z M1281.1,1790.5h-63v-63.3h63V1790.5z M1281.1,1723.2h-63 v-63.3h63V1723.2z M1281.1,1655.8h-63v-63.3h63V1655.8z M1281.1,1588.5h-63v-63.3h63V1588.5z M1281.1,1521.1h-63v-63.3h63V1521.1z M1281.1,1453.8h-63v-63.3h63V1453.8z M1281.1,1386.4h-63v-63.3h63V1386.4z M1281.1,1319h-63v-63.3h63V1319z M1281.1,1251.7h-63 v-63.3h63V1251.7z M1281.1,1184.3h-63V1121h63V1184.3z M1281.1,1117h-63v-63.3h63V1117z M1348.1,1790.5h-63v-63.3h63V1790.5z M1348.1,1723.2h-63v-63.3h63V1723.2z M1348.1,1655.8h-63v-63.3h63V1655.8z M1348.1,1588.5h-63v-63.3h63V1588.5z M1348.1,1521.1h-63 v-63.3h63V1521.1z M1348.1,1453.8h-63v-63.3h63V1453.8z M1348.1,1386.4h-63v-63.3h63V1386.4z M1348.1,1319h-63v-63.3h63V1319z M1348.1,1251.7h-63v-63.3h63V1251.7z M1348.1,1184.3h-63V1121h63V1184.3z M1348.1,1117h-63v-63.3h63V1117z M1415.1,1790.5h-63 v-63.3h63V1790.5z M1415.1,1723.2h-63v-63.3h63V1723.2z M1415.1,1655.8h-63v-63.3h63V1655.8z M1415.1,1588.5h-63v-63.3h63V1588.5z M1415.1,1521.1h-63v-63.3h63V1521.1z M1415.1,1453.8h-63v-63.3h63V1453.8z M1415.1,1386.4h-63v-63.3h63V1386.4z M1415.1,1319h-63 v-63.3h63V1319z M1415.1,1251.7h-63v-63.3h63V1251.7z M1415.1,1184.3h-63V1121h63V1184.3z M1415.1,1117h-63v-63.3h63V1117z M1482.1,1790.5h-63v-63.3h63V1790.5z M1482.1,1723.2h-63v-63.3h63V1723.2z M1482.1,1655.8h-63v-63.3h63V1655.8z M1482.1,1588.5h-63 v-63.3h63V1588.5z M1482.1,1521.1h-63v-63.3h63V1521.1z M1482.1,1453.8h-63v-63.3h63V1453.8z M1482.1,1386.4h-63v-63.3h63V1386.4z M1482.1,1319h-63v-63.3h63V1319z M1482.1,1251.7h-63v-63.3h63V1251.7z M1482.1,1184.3h-63V1121h63V1184.3z M1482.1,1117h-63v-63.3 h63V1117z M1549.2,1790.5h-63v-63.3h63V1790.5z M1549.2,1723.2h-63v-63.3h63V1723.2z M1549.2,1655.8h-63v-63.3h63V1655.8z M1549.2,1588.5h-63v-63.3h63V1588.5z M1549.2,1521.1h-63v-63.3h63V1521.1z M1549.2,1453.8h-63v-63.3h63V1453.8z M1549.2,1386.4h-63 v-63.3h63V1386.4z M1549.2,1319h-63v-63.3h63V1319z M1549.2,1251.7h-63v-63.3h63V1251.7z M1549.2,1184.3h-63V1121h63V1184.3z M1549.2,1117h-63v-63.3h63V1117z M1616.2,1790.5h-63v-63.3h63V1790.5z M1616.2,1723.2h-63v-63.3h63V1723.2z M1616.2,1655.8h-63 v-63.3h63V1655.8z M1616.2,1588.5h-63v-63.3h63V1588.5z M1616.2,1521.1h-63v-63.3h63V1521.1z M1616.2,1453.8h-63v-63.3h63V1453.8z M1616.2,1386.4h-63v-63.3h63V1386.4z M1616.2,1319h-63v-63.3h63V1319z M1616.2,1251.7h-63v-63.3h63V1251.7z M1616.2,1184.3h-63 V1121h63V1184.3z M1616.2,1117h-63v-63.3h63V1117z M1683.2,1790.5h-63v-63.3h63V1790.5z M1683.2,1723.2h-63v-63.3h63V1723.2z M1683.2,1655.8h-63v-63.3h63V1655.8z M1683.2,1588.5h-63v-63.3h63V1588.5z M1683.2,1521.1h-63v-63.3h63V1521.1z M1683.2,1453.8h-63 v-63.3h63V1453.8z M1683.2,1386.4h-63v-63.3h63V1386.4z M1683.2,1319h-63v-63.3h63V1319z M1683.2,1251.7h-63v-63.3h63V1251.7z M1683.2,1184.3h-63V1121h63V1184.3z M1683.2,1117h-63v-63.3h63V1117z M1750.3,1790.5h-63v-63.3h63V1790.5z M1750.3,1723.2h-63 v-63.3h63V1723.2z M1750.3,1655.8h-63v-63.3h63V1655.8z M1750.3,1588.5h-63v-63.3h63V1588.5z M1750.3,1521.1h-63v-63.3h63V1521.1z M1750.3,1453.8h-63v-63.3h63V1453.8z M1750.3,1386.4h-63v-63.3h63V1386.4z M1750.3,1319h-63v-63.3h63V1319z M1750.3,1251.7h-63 v-63.3h63V1251.7z M1750.3,1184.3h-63V1121h63V1184.3z M1750.3,1117h-63v-63.3h63V1117z M1817.3,1790.5h-63v-63.3h63V1790.5z M1817.3,1723.2h-63v-63.3h63V1723.2z M1817.3,1655.8h-63v-63.3h63V1655.8z M1817.3,1588.5h-63v-63.3h63V1588.5z M1817.3,1521.1h-63 v-63.3h63V1521.1z M1817.3,1453.8h-63v-63.3h63V1453.8z M1817.3,1386.4h-63v-63.3h63V1386.4z M1817.3,1319h-63v-63.3h63V1319z M1817.3,1251.7h-63v-63.3h63V1251.7z M1817.3,1184.3h-63V1121h63V1184.3z M1817.3,1117h-63v-63.3h63V1117z M1884.3,1790.5h-63 v-63.3h63V1790.5z M1884.3,1723.2h-63v-63.3h63V1723.2z M1884.3,1655.8h-63v-63.3h63V1655.8z M1884.3,1588.5h-63v-63.3h63V1588.5z M1884.3,1521.1h-63v-63.3h63V1521.1z M1884.3,1453.8h-63v-63.3h63V1453.8z M1884.3,1386.4h-63v-63.3h63V1386.4z M1884.3,1319h-63 v-63.3h63V1319z M1884.3,1251.7h-63v-63.3h63V1251.7z M1884.3,1184.3h-63V1121h63V1184.3z M1884.3,1117h-63v-63.3h63V1117z M1951.3,1790.5h-63v-63.3h63V1790.5z M1951.3,1723.2h-63v-63.3h63V1723.2z M1951.3,1655.8h-63v-63.3h63V1655.8z M1951.3,1588.5h-63 v-63.3h63V1588.5z M1951.3,1521.1h-63v-63.3h63V1521.1z M1951.3,1453.8h-63v-63.3h63V1453.8z M1951.3,1386.4h-63v-63.3h63V1386.4z M1951.3,1319h-63v-63.3h63V1319z M1951.3,1251.7h-63v-63.3h63V1251.7z M1951.3,1184.3h-63V1121h63V1184.3z M1951.3,1117h-63v-63.3 h63V1117z M2018.4,1790.5h-63v-63.3h63V1790.5z M2018.4,1723.2h-63v-63.3h63V1723.2z M2018.4,1655.8h-63v-63.3h63V1655.8z M2018.4,1588.5h-63v-63.3h63V1588.5z M2018.4,1521.1h-63v-63.3h63V1521.1z M2018.4,1453.8h-63v-63.3h63V1453.8z M2018.4,1386.4h-63 v-63.3h63V1386.4z M2018.4,1319h-63v-63.3h63V1319z M2018.4,1251.7h-63v-63.3h63V1251.7z M2018.4,1184.3h-63V1121h63V1184.3z M2018.4,1117h-63v-63.3h63V1117z M2085.4,1790.5h-63v-63.3h63V1790.5z M2085.4,1723.2h-63v-63.3h63V1723.2z M2085.4,1655.8h-63 v-63.3h63V1655.8z M2085.4,1588.5h-63v-63.3h63V1588.5z M2085.4,1521.1h-63v-63.3h63V1521.1z M2085.4,1453.8h-63v-63.3h63V1453.8z M2085.4,1386.4h-63v-63.3h63V1386.4z M2085.4,1319h-63v-63.3h63V1319z M2085.4,1251.7h-63v-63.3h63V1251.7z M2085.4,1184.3h-63 V1121h63V1184.3z M2085.4,1117h-63v-63.3h63V1117z M2152.4,1790.5h-63v-63.3h63V1790.5z M2152.4,1723.2h-63v-63.3h63V1723.2z M2152.4,1655.8h-63v-63.3h63V1655.8z M2152.4,1588.5h-63v-63.3h63V1588.5z M2152.4,1521.1h-63v-63.3h63V1521.1z M2152.4,1453.8h-63 v-63.3h63V1453.8z M2152.4,1386.4h-63v-63.3h63V1386.4z M2152.4,1319h-63v-63.3h63V1319z M2152.4,1251.7h-63v-63.3h63V1251.7z M2152.4,1184.3h-63V1121h63V1184.3z M2152.4,1117h-63v-63.3h63V1117z M2219.5,1790.5h-63v-63.3h63V1790.5z M2219.5,1723.2h-63 v-63.3h63V1723.2z M2219.5,1655.8h-63v-63.3h63V1655.8z M2219.5,1588.5h-63v-63.3h63V1588.5z M2219.5,1521.1h-63v-63.3h63V1521.1z M2219.5,1453.8h-63v-63.3h63V1453.8z M2219.5,1386.4h-63v-63.3h63V1386.4z M2219.5,1319h-63v-63.3h63V1319z M2219.5,1251.7h-63 v-63.3h63V1251.7z M2219.5,1184.3h-63V1121h63V1184.3z M2219.5,1117h-63v-63.3h63V1117z M2286.5,1790.5h-63v-63.3h63V1790.5z M2286.5,1723.2h-63v-63.3h63V1723.2z M2286.5,1655.8h-63v-63.3h63V1655.8z M2286.5,1588.5h-63v-63.3h63V1588.5z M2286.5,1521.1h-63 v-63.3h63V1521.1z M2286.5,1453.8h-63v-63.3h63V1453.8z M2286.5,1386.4h-63v-63.3h63V1386.4z M2286.5,1319h-63v-63.3h63V1319z M2286.5,1251.7h-63v-63.3h63V1251.7z M2286.5,1184.3h-63V1121h63V1184.3z M2286.5,1117h-63v-63.3h63V1117z M2353.5,1790.5h-63 v-63.3h63V1790.5z M2353.5,1723.2h-63v-63.3h63V1723.2z M2353.5,1655.8h-63v-63.3h63V1655.8z M2353.5,1588.5h-63v-63.3h63V1588.5z M2353.5,1521.1h-63v-63.3h63V1521.1z M2353.5,1453.8h-63v-63.3h63V1453.8z M2353.5,1386.4h-63v-63.3h63V1386.4z M2353.5,1319h-63 v-63.3h63V1319z M2353.5,1251.7h-63v-63.3h63V1251.7z M2353.5,1184.3h-63V1121h63V1184.3z M2353.5,1117h-63v-63.3h63V1117z M2420.5,1790.5h-63v-63.3h63V1790.5z M2420.5,1723.2h-63v-63.3h63V1723.2z M2420.5,1655.8h-63v-63.3h63V1655.8z M2420.5,1588.5h-63 v-63.3h63V1588.5z M2420.5,1521.1h-63v-63.3h63V1521.1z M2420.5,1453.8h-63v-63.3h63V1453.8z M2420.5,1386.4h-63v-63.3h63V1386.4z M2420.5,1319h-63v-63.3h63V1319z M2420.5,1251.7h-63v-63.3h63V1251.7z M2420.5,1184.3h-63V1121h63V1184.3z M2420.5,1117h-63v-63.3 h63V1117z M2487.6,1790.5h-63v-63.3h63V1790.5z M2487.6,1723.2h-63v-63.3h63V1723.2z M2487.6,1655.8h-63v-63.3h63V1655.8z M2487.6,1588.5h-63v-63.3h63V1588.5z M2487.6,1521.1h-63v-63.3h63V1521.1z M2487.6,1453.8h-63v-63.3h63V1453.8z M2487.6,1386.4h-63 v-63.3h63V1386.4z M2487.6,1319h-63v-63.3h63V1319z M2487.6,1251.7h-63v-63.3h63V1251.7z M2487.6,1184.3h-63V1121h63V1184.3z M2487.6,1117h-63v-63.3h63V1117z M2554.6,1790.5h-63v-63.3h63V1790.5z M2554.6,1723.2h-63v-63.3h63V1723.2z M2554.6,1655.8h-63 v-63.3h63V1655.8z M2554.6,1588.5h-63v-63.3h63V1588.5z M2554.6,1521.1h-63v-63.3h63V1521.1z M2554.6,1453.8h-63v-63.3h63V1453.8z M2554.6,1386.4h-63v-63.3h63V1386.4z M2554.6,1319h-63v-63.3h63V1319z M2554.6,1251.7h-63v-63.3h63V1251.7z M2554.6,1184.3h-63 V1121h63V1184.3z M2554.6,1117h-63v-63.3h63V1117z M2621.6,1723.2h-63v-63.3h63V1723.2z M2621.6,1655.8h-63v-63.3h63V1655.8z M2621.6,1588.5h-63v-63.3h63V1588.5z M2621.6,1521.1h-63v-63.3h63V1521.1z M2621.6,1453.8h-63v-63.3h63V1453.8z M2621.6,1386.4h-63 v-63.3h63V1386.4z M2621.6,1319h-63v-63.3h63V1319z M2621.6,1251.7h-63v-63.3h63V1251.7z M2621.6,1184.3h-63V1121h63V1184.3z M2621.6,1117h-63v-63.3h63V1117z M2688.6,1588.5h-63v-63.3h63V1588.5z M2688.6,1521.1h-63v-63.3h63V1521.1z M2688.6,1453.8h-63 v-63.3h63V1453.8z M2688.6,1386.4h-63v-63.3h63V1386.4z M2688.6,1319h-63v-63.3h63V1319z M2688.6,1251.7h-63v-63.3h63V1251.7z M2688.6,1184.3h-63V1121h63V1184.3z M2688.6,1117h-63v-63.3h63V1117z M2755.7,1453.8h-63v-63.3h63V1453.8z M2755.7,1386.4h-63 v-63.3h63V1386.4z M2755.7,1319h-63v-63.3h63V1319z M2755.7,1251.7h-63v-63.3h63V1251.7z M2755.7,1184.3h-63V1121h63V1184.3z M2755.7,1117h-63v-63.3h63V1117z M2822.7,1251.7h-63v-63.3h63V1251.7z M2822.7,1184.3h-63V1121h63V1184.3z M2822.7,1117h-63v-63.3 h63V1117z M2889.7,1117h-63v-63.3h63V1117z"/></g></svg>