<?xml version="1.0" encoding="UTF-8" standalone="no"?><svg xmlns="http://www.w3.org/2000/svg" xmlns:xlink="http://www.w3.org/1999/xlink" contentScriptType="text/ecmascript" fill="#f26111" width="37.5" zoomAndPan="magnify" contentStyleType="text/css" viewBox="13.0 2.0 37.5 60.0" height="60" preserveAspectRatio="xMidYMid meet" version="1"><g id="change1_1"><path fill="inherit" d="M 43.894531 17.449219 L 46 13.234375 L 48.101562 17.4375 C 48.429688 18.113281 48.253906 18.648438 48.050781 18.976562 C 47.660156 19.597656 46.855469 20 46 20 C 45.144531 20 44.339844 19.597656 43.949219 18.976562 C 43.746094 18.648438 43.570312 18.113281 43.894531 17.449219 Z M 46 22 C 47.550781 22 48.984375 21.246094 49.742188 20.035156 C 50.402344 18.984375 50.460938 17.71875 49.894531 16.550781 L 46.894531 10.550781 C 46.554688 9.875 45.445312 9.875 45.105469 10.550781 L 42.101562 16.5625 C 41.539062 17.71875 41.597656 18.984375 42.257812 20.035156 C 43.015625 21.246094 44.449219 22 46 22"/><path fill="inherit" d="M 25.171875 6 C 25.585938 4.835938 26.695312 4 28 4 L 43 4 L 43 6 Z M 32 26 L 32 31 C 32 32.65625 33.34375 34 35 34 C 37.207031 34 39 35.792969 39 38 L 39 40.886719 C 38.671875 40.957031 38.34375 41 38 41 C 36.34375 41 35.628906 40.253906 34.722656 39.308594 C 33.738281 38.28125 32.511719 37 30 37 L 30 24 C 31.101562 24 32 24.898438 32 26 Z M 39 58 C 39 59.101562 38.101562 60 37 60 L 17 60 C 15.898438 60 15 59.101562 15 58 L 15 39.113281 C 15.988281 39.355469 16.578125 39.964844 17.277344 40.691406 C 18.261719 41.71875 19.488281 43 21.996094 43 C 22.785156 43 23.433594 42.863281 24 42.660156 L 24 46 C 24 46.378906 24.214844 46.722656 24.550781 46.894531 L 28.550781 48.894531 C 28.695312 48.964844 28.847656 49 29 49 C 29.183594 49 29.363281 48.949219 29.527344 48.851562 C 29.820312 48.667969 30 48.347656 30 48 L 30 39 C 31.65625 39 32.371094 39.746094 33.277344 40.691406 C 34.261719 41.71875 35.488281 43 38 43 C 38.339844 43 38.671875 42.964844 39 42.914062 Z M 19 34 C 20.65625 34 22 32.65625 22 31 L 22 26.042969 C 22 24.929688 22.894531 24.027344 24 24.003906 L 24 40.453125 C 23.484375 40.789062 22.871094 41 21.996094 41 C 20.339844 41 19.625 40.253906 18.71875 39.308594 C 17.894531 38.445312 16.890625 37.417969 15.109375 37.101562 C 15.519531 35.328125 17.101562 34 19 34 Z M 28 39.546875 L 28 46.382812 L 26 45.382812 L 26 41.410156 C 26.257812 41.167969 26.496094 40.925781 26.71875 40.691406 C 27.148438 40.246094 27.535156 39.847656 28 39.546875 Z M 26 38.589844 L 26 24 L 28 24 L 28 37.339844 C 27.167969 37.636719 26.527344 38.097656 26 38.589844 Z M 25 20 L 29 20 L 29 22 L 25 22 Z M 25 8 L 29 8 L 29 18 L 25 18 Z M 31 8 L 44 8 C 44.550781 8 45 7.550781 45 7 L 45 3 C 45 2.449219 44.550781 2 44 2 L 28 2 C 25.242188 2 23 4.242188 23 7 L 23 22.152344 C 21.277344 22.617188 20 24.175781 20 26.042969 L 20 31 C 20 31.550781 19.550781 32 19 32 C 15.691406 32 13 34.691406 13 38 L 13 58 C 13 60.207031 14.792969 62 17 62 L 37 62 C 39.207031 62 41 60.207031 41 58 L 41 38 C 41 34.691406 38.308594 32 35 32 C 34.449219 32 34 31.550781 34 31 L 34 26 C 34 24.140625 32.71875 22.589844 31 22.140625 L 31 8"/><path fill="inherit" d="M 17 58 L 19 58 L 19 56 L 17 56 L 17 58"/><path fill="inherit" d="M 21 55 L 23 55 L 23 53 L 21 53 L 21 55"/><path fill="inherit" d="M 35 56 L 33 56 L 33 58 L 36 58 C 36.550781 58 37 57.550781 37 57 L 37 54 L 35 54 L 35 56"/><path fill="inherit" d="M 35 52 L 37 52 L 37 50 L 35 50 L 35 52"/></g></svg>