<?xml version="1.0" encoding="UTF-8" standalone="no"?><svg xmlns="http://www.w3.org/2000/svg" xmlns:xlink="http://www.w3.org/1999/xlink" contentScriptType="text/ecmascript" fill="#f26111" width="75" zoomAndPan="magnify" contentStyleType="text/css" viewBox="0.0 0.0 75.2 75.2" height="75" preserveAspectRatio="xMidYMid meet" version="1"><g id="change1_1"><path d="M75.24,37.62c0-5.21-1.07-10.18-2.99-14.7-.03-.08-.06-.15-.1-.22C66.35,9.35,53.06,0,37.62,0c0,0,0,0,0,0C22.18,0,8.89,9.35,3.1,22.69c-.04.08-.07.15-.1.23-1.93,4.52-2.99,9.49-2.99,14.7,0,20.74,16.88,37.62,37.62,37.62,15.32,0,28.52-9.21,34.38-22.38.58-.46.97-1.16.97-1.96,0-.11-.02-.21-.03-.32,1.49-4.04,2.3-8.41,2.3-12.96ZM5,37.62c0-3.98.72-7.79,2.03-11.32h10.6c-.9,3.63-1.38,7.43-1.38,11.32s.44,7.31,1.26,10.78H6.84c-1.19-3.38-1.84-7-1.84-10.78ZM21.25,37.62c0-3.91.55-7.72,1.56-11.32h12.31v22.09h-12.46c-.91-3.44-1.41-7.06-1.41-10.78ZM40.12,7.27c4.56,3.64,8.17,8.47,10.56,14.03h-10.56V7.27ZM35.12,7.27v14.03h-10.56c2.39-5.56,6-10.39,10.56-14.03ZM35.12,53.39v14.57c-4.7-3.75-8.39-8.78-10.77-14.57h10.77ZM40.12,67.96v-14.57h10.78c-2.39,5.78-6.07,10.82-10.78,14.57ZM40.12,48.39v-22.09h12.31c1.01,3.6,1.56,7.4,1.56,11.32s-.5,7.34-1.41,10.78h-12.46ZM57.61,26.3h10.6c1.31,3.53,2.03,7.34,2.03,11.32s-.65,7.4-1.84,10.78h-10.67c.82-3.47,1.26-7.08,1.26-10.78,0-3.89-.48-7.69-1.38-11.32ZM65.84,21.3h-9.79c-2.15-5.75-5.44-10.9-9.63-15.08,8.26,2.32,15.2,7.81,19.42,15.08ZM28.82,6.22c-4.2,4.19-7.48,9.34-9.63,15.09h-9.79c4.22-7.27,11.16-12.77,19.43-15.09ZM9.08,53.39h9.91c2.15,5.96,5.5,11.31,9.82,15.63-8.47-2.38-15.55-8.09-19.74-15.63ZM46.42,69.02c4.32-4.31,7.67-9.66,9.82-15.62h9.91c-4.18,7.54-11.27,13.25-19.73,15.62Z"/></g></svg>