<?xml version="1.0" encoding="UTF-8" standalone="no"?><svg xmlns="http://www.w3.org/2000/svg" xmlns:xlink="http://www.w3.org/1999/xlink" contentScriptType="text/ecmascript" fill="#ffffff" width="512" zoomAndPan="magnify" contentStyleType="text/css" viewBox="19.0 40.2 512.0 469.6" height="470" preserveAspectRatio="xMidYMid meet" version="1"><g><g><g><g><g><g id="change1_9"><path d="M479.875,509.807H205.94c-28.19,0-51.125-22.935-51.125-51.125v-138.86c0-28.19,22.935-51.125,51.125-51.125h273.935 c28.19,0,51.125,22.934,51.125,51.125v138.86C531,486.872,508.065,509.807,479.875,509.807z M205.94,280.696 c-21.574,0-39.125,17.552-39.125,39.125v138.86c0,21.573,17.551,39.125,39.125,39.125h273.935 c21.573,0,39.125-17.552,39.125-39.125v-138.86c0-21.573-17.552-39.125-39.125-39.125H205.94z"/></g></g></g><g><g><g id="change1_1"><path d="M479.545,489.585H206.27c-16.611,0-30.125-13.514-30.125-30.125V319.043c0-16.611,13.514-30.125,30.125-30.125 h273.275c16.611,0,30.125,13.514,30.125,30.125V459.46C509.67,476.071,496.156,489.585,479.545,489.585z M206.27,300.918 c-9.994,0-18.125,8.131-18.125,18.125V459.46c0,9.994,8.131,18.125,18.125,18.125h273.275c9.994,0,18.125-8.131,18.125-18.125 V319.043c0-9.994-8.131-18.125-18.125-18.125H206.27z"/></g></g></g><g><g><g><g id="change1_3"><path d="M390.385,388.713h-175.05c-3.313,0-6-2.687-6-6v-63.381c0-3.313,2.687-6,6-6h175.05c3.313,0,6,2.687,6,6v63.381 C396.385,386.026,393.698,388.713,390.385,388.713z M221.334,376.713h163.05v-51.381h-163.05V376.713z"/></g></g></g><g><g><g><g id="change1_2"><circle r="6.148" cx="281.845" cy="349.513"/></g></g></g><g><g><g id="change1_18"><circle r="6.148" cx="308.896" cy="349.513"/></g></g></g><g><g><g id="change1_11"><circle r="6.148" cx="335.947" cy="349.513"/></g></g></g></g><g><g><g><g><g id="change1_13"><path d="M470.48,383.683h-50.533c-2.057,0-3.971-1.054-5.07-2.792s-1.232-3.919-0.352-5.777l25.267-53.32 c0.992-2.095,3.104-3.431,5.422-3.431s4.43,1.336,5.422,3.431l25.267,53.32c0.881,1.858,0.748,4.039-0.352,5.777 S472.537,383.683,470.48,383.683z M429.43,371.683h31.568l-15.784-33.309L429.43,371.683z"/></g></g></g></g><g><g><g><g id="change1_19"><path d="M445.214,458.129c-2.318,0-4.43-1.336-5.422-3.431l-25.267-53.32c-0.881-1.858-0.748-4.039,0.352-5.777 s3.014-2.792,5.07-2.792h50.533c2.057,0,3.971,1.054,5.07,2.792s1.232,3.919,0.352,5.777l-25.267,53.32 C449.644,456.793,447.532,458.129,445.214,458.129z M429.43,404.809l15.784,33.309l15.784-33.309H429.43z"/></g></g></g></g></g><g><g><g><g id="change1_17"><path d="M243.504,465.171c-14.403,0-26.121-11.718-26.121-26.12c0-14.403,11.718-26.121,26.121-26.121 c14.403,0,26.121,11.718,26.121,26.121C269.625,453.453,257.907,465.171,243.504,465.171z M243.504,424.93 c-7.787,0-14.121,6.335-14.121,14.121s6.334,14.12,14.121,14.12c7.786,0,14.121-6.334,14.121-14.12 S251.29,424.93,243.504,424.93z"/></g></g></g><g><g><g id="change1_12"><path d="M302.859,465.171c-14.402,0-26.12-11.718-26.12-26.12c0-14.403,11.718-26.121,26.12-26.121 c14.403,0,26.121,11.718,26.121,26.121C328.98,453.453,317.263,465.171,302.859,465.171z M302.859,424.93 c-7.786,0-14.12,6.335-14.12,14.121s6.334,14.12,14.12,14.12s14.121-6.334,14.121-14.12S310.646,424.93,302.859,424.93z"/></g></g></g><g><g><g id="change1_8"><path d="M362.216,465.171c-14.402,0-26.12-11.718-26.12-26.12c0-14.403,11.718-26.121,26.12-26.121 c14.403,0,26.121,11.718,26.121,26.121C388.337,453.453,376.619,465.171,362.216,465.171z M362.216,424.93 c-7.786,0-14.12,6.335-14.12,14.121s6.334,14.12,14.12,14.12s14.121-6.334,14.121-14.12S370.002,424.93,362.216,424.93z"/></g></g></g></g></g></g><g><g><g><g id="change1_6"><path d="M117.555,237.304C63.211,237.304,19,193.092,19,138.749s44.211-98.555,98.555-98.555s98.556,44.211,98.556,98.555 S171.899,237.304,117.555,237.304z M117.555,52.193C69.829,52.193,31,91.022,31,138.749c0,47.727,38.829,86.556,86.555,86.556 c47.727,0,86.556-38.829,86.556-86.556C204.111,91.022,165.282,52.193,117.555,52.193z"/></g></g></g><g><g><g id="change1_14"><path d="M117.555,207.595c-37.962,0-68.846-30.884-68.846-68.846s30.884-68.846,68.846-68.846s68.846,30.884,68.846,68.846 S155.517,207.595,117.555,207.595z M117.555,81.902c-31.345,0-56.846,25.501-56.846,56.846s25.501,56.846,56.846,56.846 s56.846-25.501,56.846-56.846S148.9,81.902,117.555,81.902z"/></g></g></g></g><g><g><g id="change1_7"><path d="M117.555,159.032c-11.184,0-20.283-9.099-20.283-20.283s9.099-20.283,20.283-20.283s20.283,9.099,20.283,20.283 S128.739,159.032,117.555,159.032z M117.555,130.465c-4.567,0-8.283,3.716-8.283,8.283s3.716,8.283,8.283,8.283 s8.283-3.716,8.283-8.283S122.123,130.465,117.555,130.465z"/></g></g></g><g><g><g><g><g id="change1_4"><path d="M101.231,144.749H89.315c-3.313,0-6-2.687-6-6s2.687-6,6-6h11.916c3.313,0,6,2.687,6,6 S104.545,144.749,101.231,144.749z"/></g></g></g></g><g><g><g><g id="change1_10"><path d="M145.795,144.749h-11.917c-3.313,0-6-2.687-6-6s2.687-6,6-6h11.917c3.313,0,6,2.687,6,6 S149.109,144.749,145.795,144.749z"/></g></g></g></g></g><g><g><g id="change1_16"><path d="M432.444,236.298H253.846c-14.998,0-27.378-11.983-27.6-26.712c-0.111-7.405,2.709-14.365,7.941-19.597 c5.123-5.123,11.936-7.944,19.182-7.944c3.313,0,6,2.687,6,6s-2.687,6-6,6c-4.042,0-7.84,1.573-10.697,4.43 c-2.917,2.917-4.49,6.8-4.428,10.932c0.123,8.212,7.122,14.892,15.601,14.892h178.598c3.313,0,6,2.687,6,6 S435.758,236.298,432.444,236.298z"/></g></g></g><g><g><g id="change1_5"><path d="M464.638,280.694c-3.313,0-6-2.687-6-6v-23.562c0-0.295-0.008-0.588-0.023-0.879 c-0.43-7.829-7.154-13.956-15.311-13.956h-10.859c-3.313,0-6-2.687-6-6s2.687-6,6-6h10.859 c14.527,0,26.515,11.11,27.292,25.293c0.028,0.506,0.042,1.022,0.042,1.542v23.562 C470.638,278.008,467.951,280.694,464.638,280.694z"/></g></g></g><g><g><g id="change1_15"><path d="M450.051,194.044H253.37c-3.313,0-6-2.687-6-6s2.687-6,6-6h196.681c4.443,0,8.621-1.73,11.764-4.873 c3.142-3.142,4.872-7.32,4.872-11.763c0-9.173-7.463-16.636-16.636-16.636H210.02c-3.313,0-6-2.687-6-6s2.687-6,6-6h240.031 c15.79,0,28.636,12.846,28.636,28.636c0,7.649-2.979,14.84-8.388,20.249C464.891,191.066,457.699,194.044,450.051,194.044z"/></g></g></g></g></g></svg>