<?xml version="1.0" encoding="UTF-8" standalone="no"?><svg xmlns="http://www.w3.org/2000/svg" xmlns:xlink="http://www.w3.org/1999/xlink" contentScriptType="text/ecmascript" fill="#000000" width="2872" zoomAndPan="magnify" contentStyleType="text/css" viewBox="64.0 281.4 2872.0 2487.2" height="2487" preserveAspectRatio="xMidYMid meet" version="1"><g id="change1_1"><path fill="#f26111" d="M2936 1525L2914.4 1562.4 2910.3 1569.5 2863.3 1651 2856.2 1663.2 2846.9 1679.4 2842.8 1686.4 2779.3 1796.3 2775.3 1803.4 2746.8 1852.6 2739.8 1864.8 2711.8 1913.3 2707.8 1920.3 2644.3 2030.2 2640.2 2037.3 2630.5 2054.2 2623.4 2066.4 2576.8 2147.2 2572.7 2154.3 2514.1 2255.8 2505.2 2271.2 2441.7 2381.1 2437.6 2388.2 2397.7 2457.4 2390.6 2469.6 2374.2 2498.1 2370.1 2505.1 2306.7 2615 2302.6 2622.1 2281.3 2659 2274.2 2671.3 2239.1 2732 2235.1 2739.1 2218 2768.6 782 2768.6 768.1 2744.6 760.9 2732 697.4 2622.1 693.3 2615 651.7 2543 644.7 2530.7 629.9 2505.1 625.8 2498.1 562.4 2388.2 558.3 2381.1 535.3 2341.4 528.3 2329.1 494.8 2271.2 490.8 2264.2 427.3 2154.3 423.2 2147.2 418.9 2139.8 411.9 2127.5 359.8 2037.3 355.7 2030.2 302.5 1938.1 295.5 1925.9 292.3 1920.3 288.2 1913.3 224.7 1803.4 220.7 1796.3 186.1 1736.5 179.1 1724.3 157.2 1686.4 153.1 1679.4 89.7 1569.5 85.6 1562.4 69.7 1534.9 64 1525 69.7 1515.1 105.9 1452.5 109.9 1445.4 173.4 1335.5 177.5 1328.5 179.1 1325.7 186.1 1313.5 240.9 1218.6 245 1211.5 295.5 1124.1 302.5 1111.9 308.5 1101.6 312.5 1094.5 376 984.6 380 977.6 411.9 922.5 418.9 910.2 443.5 867.7 447.6 860.6 511 750.7 515.1 743.7 528.3 720.9 535.3 708.6 578.6 633.8 582.6 626.7 644.7 519.3 651.7 507 713.6 399.8 717.7 392.8 761.1 317.7 768.1 305.4 781.2 282.9 782 281.4 2218 281.4 2218.8 282.9 2274.2 378.8 2281.3 391 2282.3 392.8 2286.4 399.8 2349.8 509.7 2353.9 516.8 2390.6 580.4 2397.7 592.6 2417.4 626.7 2421.4 633.8 2484.9 743.7 2489 750.7 2507 781.9 2514.1 794.2 2552.4 860.6 2556.5 867.7 2620 977.6 2630.5 995.8 2687.5 1094.5 2691.5 1101.6 2739.8 1185.2 2746.8 1197.4 2755 1211.5 2759.1 1218.6 2822.5 1328.5 2826.6 1335.5 2856.2 1386.8 2863.3 1399 2890.1 1445.4 2894.1 1452.5z"/></g><g id="change2_1"><path fill="#f26111" d="M64,1525l5.7,9.9v-19.9L64,1525z M2863.3,1562.4v-109.9h30.9l-4.1-7.1h-26.8V1399l-7.1-12.2v58.7h-109.3v-109.9 h79.8l-4.1-7.1h-75.7v-109.9h12.2l-4.1-7.1h-8.2v-14.1l-7-12.2v26.3h-109.3v-109.9h61.1l-4.1-7.1h-57v-98.8l-10.5-18.2h-105.9V867.7 h42.4l-4.1-7.1h-38.4v-66.4l-7.1-12.2v78.7h-109.3V750.7h91.3l-4.1-7.1h-87.2V633.8h23.8l-4.1-7.1h-19.7v-34.1l-7-12.2v46.3h-109.3 V516.8h72.6l-4.1-7.1h-68.6V399.8h5.1l-4.1-7.1h-1V391l-7.1-12.2v14h-109.3V282.9h54l-0.8-1.5H782l-0.8,1.5h96.3v109.9H768.1v-87.4 l-7.1,12.2v75.1h-43.4l-4.1,7.1h47.4v109.9H651.7V507l-7.1,12.2v107.4h-62l-4.1,7.1h66.1v109.9H535.3v-35l-7.1,12.2v22.8h-13.2 l-4.1,7.1h17.2v109.9h-80.7l-4.1,7.1h84.8v109.9H418.9v-67.3l-7.1,12.2v55.1H380l-4.1,7.1h35.9v109.9h-99.4l-4.1,7.1h103.4v109.9 H302.5v-99.7l-7,12.2v87.4H245l-4.1,7.1h54.6v109.9H186.1v-15l-7,12.2v2.8h-1.6l-4.1,7.1h5.7v109.9h-69.1l-4.1,7.1h73.2v109.9H85.6 l4.1,7.1h89.4v109.9h-26l4.1,7.1h21.9v37.9l7,12.2v-50.1h109.4v109.9h-74.8l4.1,7.1h70.8v109.9h-7.3l4.1,7.1h3.2v5.6l7,12.2v-17.8 h109.3v109.9h-56.2l4.1,7.1h52.1v90.2l7.1,12.2v-102.5h109.3v109.9h-105l4.1,7.1h101v109.9h-37.5l4.1,7h33.4v57.9l7.1,12.2v-70.1 h109.3v109.9h-86.4l4.1,7.1h82.3v109.9h-18.9l4.1,7.1h14.8v25.6l7.1,12.2v-37.8h109.3V2615h-67.7l4.1,7.1h63.6V2732h-0.2l7.3,12.6 v-5.5h109.3v29.5h7v-29.5h109.3v29.5h7.1v-29.5h109.3v29.5h7v-29.5h109.4v29.5h7v-29.5H1343v29.5h7.1v-29.5h109.3v29.5h7v-29.5 h109.3v29.5h7.1v-29.5h109.3v29.5h7v-29.5h109.3v29.5h7v-29.5H1925v29.5h7.1v-29.5h109.3v29.5h7v-29.5h109.3v29.5h7.1v-29.5h70.2 l4.1-7.1h-74.3v-109.9h109.3v49.1l7.1-12.2v-36.9h21.3l4.1-7.1h-25.4v-109.9h88.8l4.1-7.1h-92.9v-109.9h109.3v81.5l7-12.2v-69.3h40 l4.1-7.1h-44v-109.9h107.5l8.9-15.4v-101.6h58.6l4.1-7.1h-62.7v-109.9h109.3v29.1l7-12.2v-16.9h9.8l4.1-7.1h-13.8v-109.9h77.3 l4.1-7.1h-81.4v-109.9h109.3v61.5l7-12.2v-49.3h28.4l4.1-7.1h-32.5v-109.9h96l4.1-7.1h-100v-109.9h109.3v93.8l7.1-12.2v-81.6h47.1 l4.1-7.1H2863.3z M295.5,1679.4H186.1v-109.9h109.4V1679.4z M295.5,1562.4H186.1v-109.9h109.4V1562.4z M295.5,1445.4H186.1v-109.9 h109.4V1445.4z M411.9,1913.3H302.5v-109.9h109.3V1913.3z M411.9,1796.3H302.5v-109.9h109.3V1796.3z M411.9,1679.4H302.5v-109.9 h109.3V1679.4z M411.9,1562.4H302.5v-109.9h109.3V1562.4z M411.9,1445.4H302.5v-109.9h109.3V1445.4z M411.9,1328.5H302.5v-109.9 h109.3V1328.5z M528.3,2030.2H418.9v-109.9h109.3V2030.2z M528.3,1913.3H418.9v-109.9h109.3V1913.3z M528.3,1796.3H418.9v-109.9 h109.3V1796.3z M528.3,1679.4H418.9v-109.9h109.3V1679.4z M528.3,1562.4H418.9v-109.9h109.3V1562.4z M528.3,1445.4H418.9v-109.9 h109.3V1445.4z M528.3,1328.5H418.9v-109.9h109.3V1328.5z M528.3,1211.5H418.9v-109.9h109.3V1211.5z M528.3,1094.5H418.9V984.6 h109.3V1094.5z M644.7,2264.2H535.3v-109.9h109.3V2264.2z M644.7,2147.2H535.3v-109.9h109.3V2147.2z M644.7,2030.2H535.3v-109.9 h109.3V2030.2z M644.7,1913.3H535.3v-109.9h109.3V1913.3z M644.7,1796.3H535.3v-109.9h109.3V1796.3z M644.7,1679.4H535.3v-109.9 h109.3V1679.4z M644.7,1562.4H535.3v-109.9h109.3V1562.4z M644.7,1445.4H535.3v-109.9h109.3V1445.4z M644.7,1328.5H535.3v-109.9 h109.3V1328.5z M644.7,1211.5H535.3v-109.9h109.3V1211.5z M644.7,1094.5H535.3V984.6h109.3V1094.5z M644.7,977.6H535.3V867.7h109.3 V977.6z M644.7,860.6H535.3V750.7h109.3V860.6z M761.1,2498.1H651.7v-109.9h109.3V2498.1z M761.1,2381.1H651.7v-109.9h109.3V2381.1z M761.1,2264.2H651.7v-109.9h109.3V2264.2z M761.1,2147.2H651.7v-109.9h109.3V2147.2z M761.1,2030.2H651.7v-109.9h109.3V2030.2z M761.1,1913.3H651.7v-109.9h109.3V1913.3z M761.1,1796.3H651.7v-109.9h109.3V1796.3z M761.1,1679.4H651.7v-109.9h109.3V1679.4z M761.1,1562.4H651.7v-109.9h109.3V1562.4z M761.1,1445.4H651.7v-109.9h109.3V1445.4z M761.1,1328.5H651.7v-109.9h109.3V1328.5z M761.1,1211.5H651.7v-109.9h109.3V1211.5z M761.1,1094.5H651.7V984.6h109.3V1094.5z M761.1,977.6H651.7V867.7h109.3V977.6z M761.1,860.6H651.7V750.7h109.3V860.6z M761.1,743.7H651.7V633.8h109.3V743.7z M761.1,626.7H651.7V516.8h109.3V626.7z M877.5,2732 H768.1v-109.9h109.3V2732z M877.5,2615H768.1v-109.9h109.3V2615z M877.5,2498.1H768.1v-109.9h109.3V2498.1z M877.5,2381.1H768.1 v-109.9h109.3V2381.1z M877.5,2264.2H768.1v-109.9h109.3V2264.2z M877.5,2147.2H768.1v-109.9h109.3V2147.2z M877.5,2030.2H768.1 v-109.9h109.3V2030.2z M877.5,1913.3H768.1v-109.9h109.3V1913.3z M877.5,1796.3H768.1v-109.9h109.3V1796.3z M877.5,1679.4H768.1 v-109.9h109.3V1679.4z M877.5,1562.4H768.1v-109.9h109.3V1562.4z M877.5,1445.4H768.1v-109.9h109.3V1445.4z M877.5,1328.5H768.1 v-109.9h109.3V1328.5z M877.5,1211.5H768.1v-109.9h109.3V1211.5z M877.5,1094.5H768.1V984.6h109.3V1094.5z M877.5,977.6H768.1V867.7 h109.3V977.6z M877.5,860.6H768.1V750.7h109.3V860.6z M877.5,743.7H768.1V633.8h109.3V743.7z M877.5,626.7H768.1V516.8h109.3V626.7z M877.5,509.7H768.1V399.8h109.3V509.7z M993.8,2732H884.5v-109.9h109.3V2732z M993.8,2615H884.5v-109.9h109.3V2615z M993.8,2498.1 H884.5v-109.9h109.3V2498.1z M993.8,2381.1H884.5v-109.9h109.3V2381.1z M993.8,2264.2H884.5v-109.9h109.3V2264.2z M993.8,2147.2 H884.5v-109.9h109.3V2147.2z M993.8,2030.2H884.5v-109.9h109.3V2030.2z M993.8,1913.3H884.5v-109.9h109.3V1913.3z M993.8,1796.3 H884.5v-109.9h109.3V1796.3z M993.8,1679.4H884.5v-109.9h109.3V1679.4z M993.8,1562.4H884.5v-109.9h109.3V1562.4z M993.8,1445.4 H884.5v-109.9h109.3V1445.4z M993.8,1328.5H884.5v-109.9h109.3V1328.5z M993.8,1211.5H884.5v-109.9h109.3V1211.5z M993.8,1094.5 H884.5V984.6h109.3V1094.5z M993.8,977.6H884.5V867.7h109.3V977.6z M993.8,860.6H884.5V750.7h109.3V860.6z M993.8,743.7H884.5V633.8 h109.3V743.7z M993.8,626.7H884.5V516.8h109.3V626.7z M993.8,509.7H884.5V399.8h109.3V509.7z M993.8,392.8H884.5V282.9h109.3V392.8z M1110.3,2732h-109.3v-109.9h109.3V2732z M1110.3,2615h-109.3v-109.9h109.3V2615z M1110.3,2498.1h-109.3v-109.9h109.3V2498.1z M1110.3,2381.1h-109.3v-109.9h109.3V2381.1z M1110.3,2264.2h-109.3v-109.9h109.3V2264.2z M1110.3,2147.2h-109.3v-109.9h109.3 V2147.2z M1110.3,2030.2h-109.3v-109.9h109.3V2030.2z M1110.3,1913.3h-109.3v-109.9h109.3V1913.3z M1110.3,1796.3h-109.3v-109.9 h109.3V1796.3z M1110.3,1679.4h-109.3v-109.9h109.3V1679.4z M1110.3,1562.4h-109.3v-109.9h109.3V1562.4z M1110.3,1445.4h-109.3 v-109.9h109.3V1445.4z M1110.3,1328.5h-109.3v-109.9h109.3V1328.5z M1110.3,1211.5h-109.3v-109.9h109.3V1211.5z M1110.3,1094.5 h-109.3V984.6h109.3V1094.5z M1110.3,977.6h-109.3V867.7h109.3V977.6z M1110.3,860.6h-109.3V750.7h109.3V860.6z M1110.3,743.7 h-109.3V633.8h109.3V743.7z M1110.3,626.7h-109.3V516.8h109.3V626.7z M1110.3,509.7h-109.3V399.8h109.3V509.7z M1110.3,392.8h-109.3 V282.9h109.3V392.8z M1226.7,2732h-109.4v-109.9h109.4V2732z M1226.7,2615h-109.4v-109.9h109.4V2615z M1226.7,2498.1h-109.4v-109.9 h109.4V2498.1z M1226.7,2381.1h-109.4v-109.9h109.4V2381.1z M1226.7,2264.2h-109.4v-109.9h109.4V2264.2z M1226.7,2147.2h-109.4 v-109.9h109.4V2147.2z M1226.7,2030.2h-109.4v-109.9h109.4V2030.2z M1226.7,1913.3h-109.4v-109.9h109.4V1913.3z M1226.7,1796.3 h-109.4v-109.9h109.4V1796.3z M1226.7,1679.4h-109.4v-109.9h109.4V1679.4z M1226.7,1562.4h-109.4v-109.9h109.4V1562.4z M1226.7,1445.4h-109.4v-109.9h109.4V1445.4z M1226.7,1328.5h-109.4v-109.9h109.4V1328.5z M1226.7,1211.5h-109.4v-109.9h109.4 V1211.5z M1226.7,1094.5h-109.4V984.6h109.4V1094.5z M1226.7,977.6h-109.4V867.7h109.4V977.6z M1226.7,860.6h-109.4V750.7h109.4 V860.6z M1226.7,743.7h-109.4V633.8h109.4V743.7z M1226.7,626.7h-109.4V516.8h109.4V626.7z M1226.7,509.7h-109.4V399.8h109.4V509.7z M1226.7,392.8h-109.4V282.9h109.4V392.8z M1343,2732h-109.3v-109.9H1343V2732z M1343,2615h-109.3v-109.9H1343V2615z M1343,2498.1 h-109.3v-109.9H1343V2498.1z M1343,2381.1h-109.3v-109.9H1343V2381.1z M1343,2264.2h-109.3v-109.9H1343V2264.2z M1343,2147.2h-109.3 v-109.9H1343V2147.2z M1343,2030.2h-109.3v-109.9H1343V2030.2z M1343,1913.3h-109.3v-109.9H1343V1913.3z M1343,1796.3h-109.3v-109.9 H1343V1796.3z M1343,1679.4h-109.3v-109.9H1343V1679.4z M1343,1562.4h-109.3v-109.9H1343V1562.4z M1343,1445.4h-109.3v-109.9H1343 V1445.4z M1343,1328.5h-109.3v-109.9H1343V1328.5z M1343,1211.5h-109.3v-109.9H1343V1211.5z M1343,1094.5h-109.3V984.6H1343V1094.5z M1343,977.6h-109.3V867.7H1343V977.6z M1343,860.6h-109.3V750.7H1343V860.6z M1343,743.7h-109.3V633.8H1343V743.7z M1343,626.7 h-109.3V516.8H1343V626.7z M1343,509.7h-109.3V399.8H1343V509.7z M1343,392.8h-109.3V282.9H1343V392.8z M1459.4,2732h-109.3v-109.9 h109.3V2732z M1459.4,2615h-109.3v-109.9h109.3V2615z M1459.4,2498.1h-109.3v-109.9h109.3V2498.1z M1459.4,2381.1h-109.3v-109.9 h109.3V2381.1z M1459.4,2264.2h-109.3v-109.9h109.3V2264.2z M1459.4,2147.2h-109.3v-109.9h109.3V2147.2z M1459.4,2030.2h-109.3 v-109.9h109.3V2030.2z M1459.4,1913.3h-109.3v-109.9h109.3V1913.3z M1459.4,1796.3h-109.3v-109.9h109.3V1796.3z M1459.4,1679.4 h-109.3v-109.9h109.3V1679.4z M1459.4,1562.4h-109.3v-109.9h109.3V1562.4z M1459.4,1445.4h-109.3v-109.9h109.3V1445.4z M1459.4,1328.5h-109.3v-109.9h109.3V1328.5z M1459.4,1211.5h-109.3v-109.9h109.3V1211.5z M1459.4,1094.5h-109.3V984.6h109.3V1094.5 z M1459.4,977.6h-109.3V867.7h109.3V977.6z M1459.4,860.6h-109.3V750.7h109.3V860.6z M1459.4,743.7h-109.3V633.8h109.3V743.7z M1459.4,626.7h-109.3V516.8h109.3V626.7z M1459.4,509.7h-109.3V399.8h109.3V509.7z M1459.4,392.8h-109.3V282.9h109.3V392.8z M1575.8,2732h-109.3v-109.9h109.3V2732z M1575.8,2615h-109.3v-109.9h109.3V2615z M1575.8,2498.1h-109.3v-109.9h109.3V2498.1z M1575.8,2381.1h-109.3v-109.9h109.3V2381.1z M1575.8,2264.2h-109.3v-109.9h109.3V2264.2z M1575.8,2147.2h-109.3v-109.9h109.3 V2147.2z M1575.8,2030.2h-109.3v-109.9h109.3V2030.2z M1575.8,1913.3h-109.3v-109.9h109.3V1913.3z M1575.8,1796.3h-109.3v-109.9 h109.3V1796.3z M1575.8,1679.4h-109.3v-109.9h109.3V1679.4z M1575.8,1562.4h-109.3v-109.9h109.3V1562.4z M1575.8,1445.4h-109.3 v-109.9h109.3V1445.4z M1575.8,1328.5h-109.3v-109.9h109.3V1328.5z M1575.8,1211.5h-109.3v-109.9h109.3V1211.5z M1575.8,1094.5 h-109.3V984.6h109.3V1094.5z M1575.8,977.6h-109.3V867.7h109.3V977.6z M1575.8,860.6h-109.3V750.7h109.3V860.6z M1575.8,743.7 h-109.3V633.8h109.3V743.7z M1575.8,626.7h-109.3V516.8h109.3V626.7z M1575.8,509.7h-109.3V399.8h109.3V509.7z M1575.8,392.8h-109.3 V282.9h109.3V392.8z M1692.2,2732h-109.3v-109.9h109.3V2732z M1692.2,2615h-109.3v-109.9h109.3V2615z M1692.2,2498.1h-109.3v-109.9 h109.3V2498.1z M1692.2,2381.1h-109.3v-109.9h109.3V2381.1z M1692.2,2264.2h-109.3v-109.9h109.3V2264.2z M1692.2,2147.2h-109.3 v-109.9h109.3V2147.2z M1692.2,2030.2h-109.3v-109.9h109.3V2030.2z M1692.2,1913.3h-109.3v-109.9h109.3V1913.3z M1692.2,1796.3 h-109.3v-109.9h109.3V1796.3z M1692.2,1679.4h-109.3v-109.9h109.3V1679.4z M1692.2,1562.4h-109.3v-109.9h109.3V1562.4z M1692.2,1445.4h-109.3v-109.9h109.3V1445.4z M1692.2,1328.5h-109.3v-109.9h109.3V1328.5z M1692.2,1211.5h-109.3v-109.9h109.3 V1211.5z M1692.2,1094.5h-109.3V984.6h109.3V1094.5z M1692.2,977.6h-109.3V867.7h109.3V977.6z M1692.2,860.6h-109.3V750.7h109.3 V860.6z M1692.2,743.7h-109.3V633.8h109.3V743.7z M1692.2,626.7h-109.3V516.8h109.3V626.7z M1692.2,509.7h-109.3V399.8h109.3V509.7z M1692.2,392.8h-109.3V282.9h109.3V392.8z M1808.6,2732h-109.3v-109.9h109.3V2732z M1808.6,2615h-109.3v-109.9h109.3V2615z M1808.6,2498.1h-109.3v-109.9h109.3V2498.1z M1808.6,2381.1h-109.3v-109.9h109.3V2381.1z M1808.6,2264.2h-109.3v-109.9h109.3 V2264.2z M1808.6,2147.2h-109.3v-109.9h109.3V2147.2z M1808.6,2030.2h-109.3v-109.9h109.3V2030.2z M1808.6,1913.3h-109.3v-109.9 h109.3V1913.3z M1808.6,1796.3h-109.3v-109.9h109.3V1796.3z M1808.6,1679.4h-109.3v-109.9h109.3V1679.4z M1808.6,1562.4h-109.3 v-109.9h109.3V1562.4z M1808.6,1445.4h-109.3v-109.9h109.3V1445.4z M1808.6,1328.5h-109.3v-109.9h109.3V1328.5z M1808.6,1211.5 h-109.3v-109.9h109.3V1211.5z M1808.6,1094.5h-109.3V984.6h109.3V1094.5z M1808.6,977.6h-109.3V867.7h109.3V977.6z M1808.6,860.6 h-109.3V750.7h109.3V860.6z M1808.6,743.7h-109.3V633.8h109.3V743.7z M1808.6,626.7h-109.3V516.8h109.3V626.7z M1808.6,509.7h-109.3 V399.8h109.3V509.7z M1808.6,392.8h-109.3V282.9h109.3V392.8z M1925,2732h-109.3v-109.9H1925V2732z M1925,2615h-109.3v-109.9H1925 V2615z M1925,2498.1h-109.3v-109.9H1925V2498.1z M1925,2381.1h-109.3v-109.9H1925V2381.1z M1925,2264.2h-109.3v-109.9H1925V2264.2z M1925,2147.2h-109.3v-109.9H1925V2147.2z M1925,2030.2h-109.3v-109.9H1925V2030.2z M1925,1913.3h-109.3v-109.9H1925V1913.3z M1925,1796.3h-109.3v-109.9H1925V1796.3z M1925,1679.4h-109.3v-109.9H1925V1679.4z M1925,1562.4h-109.3v-109.9H1925V1562.4z M1925,1445.4h-109.3v-109.9H1925V1445.4z M1925,1328.5h-109.3v-109.9H1925V1328.5z M1925,1211.5h-109.3v-109.9H1925V1211.5z M1925,1094.5h-109.3V984.6H1925V1094.5z M1925,977.6h-109.3V867.7H1925V977.6z M1925,860.6h-109.3V750.7H1925V860.6z M1925,743.7 h-109.3V633.8H1925V743.7z M1925,626.7h-109.3V516.8H1925V626.7z M1925,509.7h-109.3V399.8H1925V509.7z M1925,392.8h-109.3V282.9 H1925V392.8z M2041.4,2732h-109.3v-109.9h109.3V2732z M2041.4,2615h-109.3v-109.9h109.3V2615z M2041.4,2498.1h-109.3v-109.9h109.3 V2498.1z M2041.4,2381.1h-109.3v-109.9h109.3V2381.1z M2041.4,2264.2h-109.3v-109.9h109.3V2264.2z M2041.4,2147.2h-109.3v-109.9 h109.3V2147.2z M2041.4,2030.2h-109.3v-109.9h109.3V2030.2z M2041.4,1913.3h-109.3v-109.9h109.3V1913.3z M2041.4,1796.3h-109.3 v-109.9h109.3V1796.3z M2041.4,1679.4h-109.3v-109.9h109.3V1679.4z M2041.4,1562.4h-109.3v-109.9h109.3V1562.4z M2041.4,1445.4 h-109.3v-109.9h109.3V1445.4z M2041.4,1328.5h-109.3v-109.9h109.3V1328.5z M2041.4,1211.5h-109.3v-109.9h109.3V1211.5z M2041.4,1094.5h-109.3V984.6h109.3V1094.5z M2041.4,977.6h-109.3V867.7h109.3V977.6z M2041.4,860.6h-109.3V750.7h109.3V860.6z M2041.4,743.7h-109.3V633.8h109.3V743.7z M2041.4,626.7h-109.3V516.8h109.3V626.7z M2041.4,509.7h-109.3V399.8h109.3V509.7z M2041.4,392.8h-109.3V282.9h109.3V392.8z M2157.8,2732h-109.3v-109.9h109.3V2732z M2157.8,2615h-109.3v-109.9h109.3V2615z M2157.8,2498.1h-109.3v-109.9h109.3V2498.1z M2157.8,2381.1h-109.3v-109.9h109.3V2381.1z M2157.8,2264.2h-109.3v-109.9h109.3 V2264.2z M2157.8,2147.2h-109.3v-109.9h109.3V2147.2z M2157.8,2030.2h-109.3v-109.9h109.3V2030.2z M2157.8,1913.3h-109.3v-109.9 h109.3V1913.3z M2157.8,1796.3h-109.3v-109.9h109.3V1796.3z M2157.8,1679.4h-109.3v-109.9h109.3V1679.4z M2157.8,1562.4h-109.3 v-109.9h109.3V1562.4z M2157.8,1445.4h-109.3v-109.9h109.3V1445.4z M2157.8,1328.5h-109.3v-109.9h109.3V1328.5z M2157.8,1211.5 h-109.3v-109.9h109.3V1211.5z M2157.8,1094.5h-109.3V984.6h109.3V1094.5z M2157.8,977.6h-109.3V867.7h109.3V977.6z M2157.8,860.6 h-109.3V750.7h109.3V860.6z M2157.8,743.7h-109.3V633.8h109.3V743.7z M2157.8,626.7h-109.3V516.8h109.3V626.7z M2157.8,509.7h-109.3 V399.8h109.3V509.7z M2157.8,392.8h-109.3V282.9h109.3V392.8z M2274.2,2615h-109.3v-109.9h109.3V2615z M2274.2,2498.1h-109.3v-109.9 h109.3V2498.1z M2274.2,2381.1h-109.3v-109.9h109.3V2381.1z M2274.2,2264.2h-109.3v-109.9h109.3V2264.2z M2274.2,2147.2h-109.3 v-109.9h109.3V2147.2z M2274.2,2030.2h-109.3v-109.9h109.3V2030.2z M2274.2,1913.3h-109.3v-109.9h109.3V1913.3z M2274.2,1796.3 h-109.3v-109.9h109.3V1796.3z M2274.2,1679.4h-109.3v-109.9h109.3V1679.4z M2274.2,1562.4h-109.3v-109.9h109.3V1562.4z M2274.2,1445.4h-109.3v-109.9h109.3V1445.4z M2274.2,1328.5h-109.3v-109.9h109.3V1328.5z M2274.2,1211.5h-109.3v-109.9h109.3 V1211.5z M2274.2,1094.5h-109.3V984.6h109.3V1094.5z M2274.2,977.6h-109.3V867.7h109.3V977.6z M2274.2,860.6h-109.3V750.7h109.3 V860.6z M2274.2,743.7h-109.3V633.8h109.3V743.7z M2274.2,626.7h-109.3V516.8h109.3V626.7z M2274.2,509.7h-109.3V399.8h109.3V509.7z M2390.6,2381.1h-109.3v-109.9h109.3V2381.1z M2390.6,2264.2h-109.3v-109.9h109.3V2264.2z M2390.6,2147.2h-109.3v-109.9h109.3 V2147.2z M2390.6,2030.2h-109.3v-109.9h109.3V2030.2z M2390.6,1913.3h-109.3v-109.9h109.3V1913.3z M2390.6,1796.3h-109.3v-109.9 h109.3V1796.3z M2390.6,1679.4h-109.3v-109.9h109.3V1679.4z M2390.6,1562.4h-109.3v-109.9h109.3V1562.4z M2390.6,1445.4h-109.3 v-109.9h109.3V1445.4z M2390.6,1328.5h-109.3v-109.9h109.3V1328.5z M2390.6,1211.5h-109.3v-109.9h109.3V1211.5z M2390.6,1094.5 h-109.3V984.6h109.3V1094.5z M2390.6,977.6h-109.3V867.7h109.3V977.6z M2390.6,860.6h-109.3V750.7h109.3V860.6z M2390.6,743.7 h-109.3V633.8h109.3V743.7z M2507,2264.2h-109.3v-109.9H2507V2264.2z M2507,2147.2h-109.3v-109.9H2507V2147.2z M2507,2030.2h-109.3 v-109.9H2507V2030.2z M2507,1913.3h-109.3v-109.9H2507V1913.3z M2507,1796.3h-109.3v-109.9H2507V1796.3z M2507,1679.4h-109.3v-109.9 H2507V1679.4z M2507,1562.4h-109.3v-109.9H2507V1562.4z M2507,1445.4h-109.3v-109.9H2507V1445.4z M2507,1328.5h-109.3v-109.9H2507 V1328.5z M2507,1211.5h-109.3v-109.9H2507V1211.5z M2507,1094.5h-109.3V984.6H2507V1094.5z M2507,977.6h-109.3V867.7H2507V977.6z M2623.4,2030.2h-109.3v-109.9h109.3V2030.2z M2623.4,1913.3h-109.3v-109.9h109.3V1913.3z M2623.4,1796.3h-109.3v-109.9h109.3 V1796.3z M2623.4,1679.4h-109.3v-109.9h109.3V1679.4z M2623.4,1562.4h-109.3v-109.9h109.3V1562.4z M2623.4,1445.4h-109.3v-109.9 h109.3V1445.4z M2623.4,1328.5h-109.3v-109.9h109.3V1328.5z M2623.4,1211.5h-109.3v-109.9h109.3V1211.5z M2623.4,1094.5h-109.3 V984.6h109.3V1094.5z M2739.8,1796.3h-109.3v-109.9h109.3V1796.3z M2739.8,1679.4h-109.3v-109.9h109.3V1679.4z M2739.8,1562.4 h-109.3v-109.9h109.3V1562.4z M2739.8,1445.4h-109.3v-109.9h109.3V1445.4z M2739.8,1328.5h-109.3v-109.9h109.3V1328.5z M2856.2,1562.4h-109.3v-109.9h109.3V1562.4z"/></g></svg>