<?xml version="1.0" encoding="UTF-8" standalone="no"?><svg xmlns="http://www.w3.org/2000/svg" xmlns:xlink="http://www.w3.org/1999/xlink" contentScriptType="text/ecmascript" fill="#000000" width="2603" zoomAndPan="magnify" contentStyleType="text/css" viewBox="191.5 193.5 2603.1 2572.0" height="2572" preserveAspectRatio="xMidYMid meet" version="1"><g><g id="change1_1"><path fill="#f26111" d="M2710.5,1868.5c-2.6,0-5.2-0.2-8-0.5l-648.5-74.9c-0.5-0.1-1-0.1-1.5-0.1c-9.5,0-15.4,11-9.5,19l388.7,528.3 c32.5,44.2-4.1,97.4-48.4,97.4c-11.8,0-24.1-3.8-35.9-12.5l-524.3-391.4c-2.2-1.7-4.7-2.4-7.1-2.4c-6.6,0-12.8,5.7-11.9,13.3 l74.4,653.1c4.8,41.8-28,67.7-60.8,67.7c-21.6,0-43.3-11.3-54.2-36.7l-259.8-603c-2.1-4.8-6.5-7.2-11-7.2s-8.9,2.4-11,7.2 l-259.8,603c-11,25.4-32.6,36.7-54.2,36.7c-32.8,0-65.6-25.9-60.8-67.7l74.4-653.1c0.9-7.6-5.3-13.3-11.9-13.3 c-2.4,0-4.8,0.7-7.1,2.4l-524.3,391.4c-11.7,8.8-24.1,12.5-35.9,12.5c-44.2,0-80.9-53.1-48.4-97.4L942.8,1812c5.9-8,0-19-9.5-19 c-0.5,0-1,0-1.5,0.1L283.4,1868c-2.7,0.3-5.4,0.5-8,0.5c-62.7,0-83.9-89.7-22.9-116.3l598.9-261.7c9.5-4.2,9.5-17.7,0-21.8 l-598.9-261.7c-61-26.7-39.8-116.3,22.9-116.3c2.6,0,5.2,0.2,8,0.5l648.5,74.9c0.5,0.1,1,0.1,1.5,0.1c9.5,0,15.4-11,9.5-19 L554.1,618.7c-32.5-44.2,4.1-97.4,48.4-97.4c11.8,0,24.1,3.8,35.9,12.5l524.3,391.4c2.2,1.7,4.7,2.4,7.1,2.4 c6.6,0,12.8-5.7,11.9-13.3l-74.4-653.1c-4.8-41.8,28-67.7,60.8-67.7c21.6,0,43.3,11.3,54.2,36.7l259.8,603c2.1,4.8,6.5,7.2,11,7.2 s8.9-2.4,11-7.2l259.8-603c11-25.4,32.6-36.7,54.2-36.7c32.8,0,65.6,25.9,60.8,67.7l-74.4,653.1c-0.9,7.6,5.3,13.3,11.9,13.3 c2.4,0,4.8-0.7,7.1-2.4l524.3-391.4c11.7-8.8,24.1-12.5,35.9-12.5c44.2,0,80.9,53.1,48.4,97.4L2043.2,1147c-5.9,8,0,19,9.5,19 c0.5,0,1,0,1.5-0.1l648.5-74.9c2.7-0.3,5.4-0.5,8-0.5c62.7,0,83.9,89.7,22.9,116.3l-598.9,261.7c-9.5,4.2-9.5,17.7,0,21.8 l598.9,261.7C2794.4,1778.8,2773.2,1868.5,2710.5,1868.5z"/></g><g id="change2_1"><path fill="#f26111" d="M1980.5,1768.5c-13.9,27.4-11.2,59.7,7,84.5l295.6,401.7c10.1,13.8-7.2,30.9-20.8,20.7l-397.7-296.9 c-14.1-10.5-30.8-16.1-48.3-16.1c-23.1,0-45.1,9.9-60.5,27.1c-15.3,17.1-22.6,40.1-20,63l56.3,494.5c1.9,17-21.6,23.2-28.4,7.6 l-196.4-456c-12.8-29.7-42-48.9-74.3-48.9s-61.5,19.2-74.3,48.9l-196.4,456c-6.8,15.7-30.3,9.4-28.4-7.6l56.3-494.5 c2.6-22.9-4.7-45.8-20-63c-15.4-17.2-37.4-27.1-60.5-27.1c-17.5,0-34.2,5.6-48.3,16.1l-397.7,296.9c-13.7,10.2-31-6.9-20.8-20.7 l295.6-401.7c18.2-24.7,20.9-57.1,7-84.5c-13.8-27.4-41.5-44.4-72.1-44.4c-3.1,0-6.3,0.2-9.4,0.5l-494,57.1 c-16.9,2-23.3-21.5-7.6-28.4l456.8-199.6c29.5-12.9,48.5-42,48.5-74.2s-19-61.3-48.5-74.2l-456.8-199.6 c-15.6-6.8-9.3-30.3,7.6-28.4l494,57.1c3.1,0.4,6.3,0.5,9.4,0.5c30.6,0,58.3-17,72.1-44.4c13.9-27.4,11.2-59.7-7-84.5L702.8,704.4 c-10.1-13.8,7.2-30.9,20.8-20.7l397.7,296.9c14.1,10.5,30.8,16.1,48.3,16.1c23.1,0,45.1-9.9,60.5-27.1c15.3-17.1,22.6-40.1,20-63 L1193.9,412c-1.9-17,21.6-23.2,28.4-7.6l196.4,456c12.8,29.7,42,48.9,74.3,48.9s61.5-19.2,74.3-48.9l196.4-456 c6.8-15.7,30.3-9.4,28.4,7.6l-56.3,494.5c-2.6,22.9,4.7,45.8,20,63c15.4,17.2,37.4,27.1,60.5,27.1c17.5,0,34.2-5.6,48.3-16.1 l397.7-296.9c13.7-10.2,31,6.9,20.8,20.7l-295.6,401.7c-18.2,24.7-20.9,57.1-7,84.5c13.8,27.4,41.5,44.4,72.1,44.4 c3.1,0,6.3-0.2,9.4-0.5l494-57.1c16.9-2,23.3,21.5,7.6,28.4l-456.8,199.6c-29.5,12.9-48.5,42-48.5,74.2s19,61.3,48.5,74.2 l456.8,199.6c15.6,6.8,9.3,30.3-7.6,28.4l-494-57.1c-3.1-0.4-6.3-0.5-9.4-0.5C2022,1724,1994.4,1741,1980.5,1768.5z"/></g></g></svg>