<?xml version="1.0" encoding="UTF-8" standalone="no"?><svg xmlns="http://www.w3.org/2000/svg" xmlns:xlink="http://www.w3.org/1999/xlink" contentScriptType="text/ecmascript" fill="#000000" width="133" zoomAndPan="magnify" contentStyleType="text/css" viewBox="0.0 0.0 133.0 128.6" height="129" data-name="Layer 2" preserveAspectRatio="xMidYMid meet" version="1"><g data-name="Layer 1"><g fill="#ffffff" id="change1_1"><path d="M0,.1C1.09.04,2.19,0,3.3,0c31.49.02,57.01,25.56,56.99,57.06,0,2.2-.14,4.37-.38,6.5l-59.91-.04V.1Z"/><path d="M72.67,1.1c1.09-.06,2.19-.1,3.3-.1,31.49.02,57.01,25.56,56.99,57.06,0,2.2-.14,4.37-.38,6.5l-59.91-.04V1.1Z"/><path d="M0,64.1c1.09-.06,2.19-.1,3.3-.1,31.49.02,57.01,25.56,56.99,57.06,0,2.2-.14,4.37-.38,6.5l-59.91-.04v-63.42Z"/><path d="M72.67,65.1c1.09-.06,2.19-.1,3.3-.1,31.49.02,57.01,25.56,56.99,57.06,0,2.2-.14,4.37-.38,6.5l-59.91-.04v-63.42Z"/></g></g></svg>