<?xml version="1.0" encoding="UTF-8" standalone="no"?><svg xmlns="http://www.w3.org/2000/svg" xmlns:xlink="http://www.w3.org/1999/xlink" contentScriptType="text/ecmascript" fill="#ffffff" width="512" zoomAndPan="magnify" contentStyleType="text/css" viewBox="-0.0 0.0 512.0 471.0" height="471" data-name="Layer 2" preserveAspectRatio="xMidYMid meet" version="1"><g data-name="ICONS"><g id="change1_1" data-name="Foley Catheter"><path d="M237.668,284.848c-1.397,0-2.812-.366-4.1-1.136-6.146-3.677-12.254-7.6-18.154-11.659-6.014-4.137-11.979-8.531-17.729-13.063-3.471-2.734-4.067-7.765-1.332-11.234,2.735-3.473,7.767-4.065,11.234-1.332,5.48,4.318,11.164,8.507,16.895,12.448,5.623,3.868,11.443,7.606,17.301,11.11,3.791,2.269,5.026,7.181,2.758,10.973-1.499,2.505-4.151,3.894-6.873,3.894Z"/><path d="M204.365,313.066c-1.656,0-3.325-.513-4.758-1.574l-35.176-26.07c-3.55-2.63-4.294-7.641-1.663-11.19,2.632-3.55,7.641-4.293,11.19-1.663l35.176,26.07c3.55,2.63,4.294,7.641,1.663,11.19-1.569,2.117-3.985,3.237-6.433,3.237Z"/><path d="M385.665,456.362c-.754,0-1.521-.107-2.281-.333l-60.43-17.95c-10.399-3.092-17.662-12.817-17.662-23.649,0-.645.031-1.315.1-2.109l4.224-49.575c-11.294-3.597-22.444-7.576-33.228-11.86-25.845-10.265-49.943-22.407-71.715-36.132-5.506,3.978-11.198,7.868-16.979,11.605-14.269,9.234-32.517,18.938-54.233,28.841-4.021,1.83-8.766.059-10.599-3.96-1.833-4.021-.06-8.766,3.96-10.599,21.009-9.578,38.565-18.904,52.183-27.717,7.066-4.568,13.989-9.372,20.579-14.28,2.624-1.954,6.411-2.072,9.152-.289,22.088,14.377,46.837,27.048,73.559,37.66,12.342,4.903,25.184,9.396,38.169,13.353,3.609,1.1,5.959,4.572,5.639,8.331l-4.77,55.98c-.021.247-.041.499-.041.751,0,3.806,2.558,7.224,6.221,8.312l60.428,17.949c4.235,1.258,6.648,5.712,5.391,9.947-1.032,3.475-4.216,5.724-7.666,5.724ZM393.175,423.812c-.755,0-1.521-.107-2.282-.334l-37.28-11.08c-8.326-2.458-13.842-10.547-13.101-19.229l2.358-27.991c.195-2.318,1.391-4.438,3.274-5.804,1.885-1.367,4.271-1.846,6.534-1.311,13.44,3.171,27.173,5.81,39.713,7.63.499.072.991.192,1.468.357l15.279,5.29c3.219,1.113,6.547,1.896,9.891,2.324l70.552,8.969c1.314.174,2.535-.771,2.705-2.098l3.689-29.064c.105-.825-.204-1.426-.483-1.785-.28-.362-.788-.815-1.614-.921l-71.404-9.079c-2.874-.362-5.795-.475-8.68-.326l-16.886.858c-.523.026-1.054.003-1.576-.075-19.904-2.941-59.968-10.547-104.643-28.427-20.505-8.201-39.719-17.621-57.107-27.997-2.136-1.274-3.557-3.47-3.846-5.94-.29-2.47.587-4.935,2.37-6.667,10.573-10.273,20.089-21.103,28.282-32.188,25.472-34.486,39.04-72.545,40.327-113.119,1.548-48.209-19.84-85.165-58.679-101.395-13.338-5.582-27.9-8.411-43.285-8.411-32.884,0-65.186,13.342-86.409,35.689-30.658,32.262-34.893,78.603-11.617,127.142,17.017,35.49,41.79,67.133,73.632,94.05,1.904,1.609,2.949,4.016,2.825,6.506-.124,2.491-1.401,4.781-3.456,6.194-2.62,1.803-5.252,3.564-7.823,5.236-11.786,7.671-26.82,15.781-44.683,24.104-4.001,1.865-8.764.133-10.631-3.873-1.865-4.005-.132-8.765,3.873-10.631,16.609-7.738,30.592-15.231,41.587-22.283-29.766-26.838-53.203-57.873-69.752-92.386-26.305-54.86-21.04-107.74,14.445-145.08C124.927,15.204,161.567,0,198.752,0c17.517,0,34.157,3.247,49.458,9.65,45.303,18.931,70.271,61.455,68.498,116.667-1.393,43.879-16.012,84.965-43.451,122.116-6.74,9.119-14.307,18.061-22.572,26.68,14.257,7.941,29.669,15.238,45.948,21.75,42.58,17.041,80.795,24.416,100.259,27.337l16.094-.818c3.816-.195,7.683-.048,11.495.432l71.42,9.081c10.082,1.288,17.233,10.529,15.947,20.6l-3.689,29.064c-.624,4.886-3.108,9.231-6.994,12.241-3.891,3.014-8.718,4.333-13.605,3.707l-70.556-8.97c-4.438-.569-8.841-1.604-13.096-3.075l-14.569-5.044c-9.968-1.467-20.63-3.423-31.296-5.735l-1.588,18.84c-.099,1.152.618,2.215,1.703,2.535l37.294,11.084c4.235,1.259,6.647,5.713,5.39,9.948-1.033,3.475-4.217,5.723-7.666,5.723ZM16.958,398.722c-3.483,0-6.688-2.293-7.689-5.809-1.211-4.246,1.247-8.669,5.49-9.884,2.556-.743,26.039-8.119,54.901-18.912,4.137-1.55,8.747.552,10.295,4.691,1.548,4.138-.553,8.747-4.691,10.295-32.164,12.027-55.92,19.256-56.108,19.31-.732.209-1.472.309-2.197.309ZM8,357.862c-3.388,0-6.534-2.169-7.619-5.569-1.344-4.21.979-8.711,5.188-10.054,6.309-2.014,23.279-7.542,44.578-15.386,4.146-1.528,8.745.596,10.271,4.742,1.527,4.146-.596,8.745-4.742,10.271-21.597,7.954-38.834,13.569-45.242,15.614-.81.259-1.629.381-2.435.381ZM202.639,260.704c-1.758,0-3.519-.576-4.98-1.74-32.223-25.642-57.044-56.337-73.774-91.233-23.943-49.939-9.37-81.048,7.072-98.351,16.492-17.373,41.803-27.747,67.703-27.747,11.938,0,23.202,2.178,33.48,6.475,14.634,6.113,25.764,15.972,33.079,29.301,7.12,12.974,10.428,28.98,9.832,47.575-1.59,49.708-24.142,94.67-67.031,133.64-1.521,1.382-3.448,2.079-5.381,2.079ZM198.659,57.633c-21.597,0-42.57,8.51-56.103,22.765-23.513,24.744-15.286,57.387-4.245,80.415,14.744,30.753,36.247,58.066,63.976,81.277,36.294-34.819,55.389-74.361,56.771-117.618,1.003-31.285-10.13-52.01-33.089-61.602-8.197-3.427-17.641-5.238-27.311-5.238Z"/><path d="M391.247,381.606c-.336,0-.676-.021-1.019-.064-4.384-.558-7.484-4.562-6.928-8.945l5.262-41.377c.559-4.383,4.558-7.474,8.945-6.928,4.384.558,7.484,4.562,6.928,8.945l-5.262,41.377c-.515,4.041-3.958,6.992-7.927,6.992Z"/><path d="M409.994,471.011c-1.342,0-2.692-.15-4.032-.456h0l-14.394-3.28c-9.677-2.206-15.755-11.873-13.551-21.549l6.886-30.213c2.204-9.677,11.871-15.757,21.548-13.551l14.395,3.28c9.677,2.206,15.755,11.873,13.551,21.549l-6.886,30.213c-1.067,4.688-3.897,8.679-7.968,11.238-2.906,1.828-6.197,2.769-9.548,2.769ZM409.516,454.955c1.078.236,2.148-.431,2.395-1.505l6.886-30.213c.245-1.075-.431-2.15-1.507-2.396l-14.393-3.28c-.667-.148-1.188.056-1.51.258-.319.201-.732.58-.885,1.247l-6.886,30.213c-.245,1.075.431,2.15,1.507,2.396l14.393,3.28Z"/><path d="M92.161,384.887c-26.122,0-47.373-21.251-47.373-47.373s21.251-47.373,47.373-47.373,47.374,21.251,47.374,47.373-21.252,47.373-47.374,47.373ZM92.161,306.141c-17.299,0-31.373,14.074-31.373,31.373s14.074,31.373,31.373,31.373,31.374-14.074,31.374-31.373-14.074-31.373-31.374-31.373Z"/></g></g></svg>