<?xml version="1.0" encoding="UTF-8" standalone="no"?><svg xmlns="http://www.w3.org/2000/svg" xmlns:xlink="http://www.w3.org/1999/xlink" contentScriptType="text/ecmascript" fill="#f26111" width="54" zoomAndPan="magnify" contentStyleType="text/css" viewBox="5.0 18.5 54.1 27.0" height="27" preserveAspectRatio="xMidYMid meet" version="1"><g id="change1_1"><path d="M55.48033,38.4318a3.52286,3.52286,0,0,0-3.375,2.55538H48.13248a.9671.9671,0,0,0-.96428.96429v.7328H45.10467V40.264a.96092.96092,0,0,0-.96429-.96429H40.83283a11.399,11.399,0,0,0,2.58434-6.33536h3.76068a3.51973,3.51973,0,1,0,0-1.92858H43.41717a11.39886,11.39886,0,0,0-2.58434-6.33536h3.30755a.961.961,0,0,0,.96429-.96429V21.31573H47.1682v.73286a.96714.96714,0,0,0,.96428.96429h3.97285a3.52937,3.52937,0,1,0,0-1.92857H49.09677v-.73287a.9671.9671,0,0,0-.96429-.96428h-3.9921a.96709.96709,0,0,0-.96428.96428v2.42037H38.779a11.3893,11.3893,0,0,0-13.55792,0H20.8239V20.35144a.96709.96709,0,0,0-.96428-.96428h-3.9921a.9671.9671,0,0,0-.96429.96428v.73287H11.89467a3.51962,3.51962,0,1,0,0,1.92857h3.97285a.96714.96714,0,0,0,.96428-.96429v-.73286h2.06353v2.42036a.961.961,0,0,0,.96429.96429h3.30755a11.39886,11.39886,0,0,0-2.58434,6.33536H16.82215a3.51966,3.51966,0,1,0,0,1.92858h3.76068a11.399,11.399,0,0,0,2.58434,6.33536H19.85962a.96092.96092,0,0,0-.96429.96429v2.4203H16.8318v-.7328a.9671.9671,0,0,0-.96428-.96429H11.89467a3.52931,3.52931,0,1,0,0,1.92857h3.00856v.73281a.96706.96706,0,0,0,.96429.96428h3.9921a.96706.96706,0,0,0,.96428-.96428V41.22825H25.221a11.3893,11.3893,0,0,0,13.55792,0H43.1761v2.42031a.96706.96706,0,0,0,.96428.96428h3.9921a.96706.96706,0,0,0,.96429-.96428v-.73281h3.00856a3.51537,3.51537,0,1,0,3.375-4.48395Zm0-17.984a1.5959,1.5959,0,1,1-1.591,1.60074A1.59476,1.59476,0,0,1,55.48033,20.44785ZM15.01894,32.30861a1.5911,1.5911,0,1,1,0-.61716.7391.7391,0,0,0,0,.61716Zm22.61251-.15432c-.00965.0193,0,.03861-.00965.06751,0,.00965,0,.00965-.00965.0193a.74372.74372,0,0,1-.09646.24107c-.0096.00965-.0096.0289-.01925.0482l-4.69607,7.10679a.95508.95508,0,0,1-1.60074,0l-4.69607-7.10679a.82913.82913,0,0,1-.11571-.28927.02989.02989,0,0,1-.00965-.0193c-.00965-.0289,0-.04821-.00965-.06751a1.1801,1.1801,0,0,1,0-.26032.39555.39555,0,0,1,.00965-.10611,1.42148,1.42148,0,0,1,.09646-.26032.2111.2111,0,0,0,.0289-.04826v-.0096l4.69607-7.10684a.99337.99337,0,0,1,1.60074,0l4.69607,7.10684v.0096a.2111.2111,0,0,0,.0289.04826,1.42148,1.42148,0,0,1,.09646.26032.39555.39555,0,0,1,.00965.10611A1.1801,1.1801,0,0,1,37.63145,32.15429ZM55.48033,43.55215a1.5959,1.5959,0,1,1,1.5911-1.60068A1.59469,1.59469,0,0,1,55.48033,43.55215Z"/></g><g id="change1_2"><path d="M28.885 32.627L32 37.352 35.115 32.627 32 31.904 28.885 32.627z"/></g><g id="change1_3"><path d="M32.22177,29.975l2.33361.54L32,26.64826,29.44462,30.515l2.33361-.54A1.14576,1.14576,0,0,1,32.22177,29.975Z"/></g></svg>