<?xml version="1.0" encoding="UTF-8" standalone="no"?><svg xmlns="http://www.w3.org/2000/svg" xmlns:xlink="http://www.w3.org/1999/xlink" contentScriptType="text/ecmascript" fill="#ffffff" width="124" zoomAndPan="magnify" contentStyleType="text/css" viewBox="2.0 35.7 124.0 56.6" height="57" preserveAspectRatio="xMidYMid meet" version="1"><g id="change1_1"><path d="M 2.007812 55.824219 C 2.007812 52.296875 4.617188 48.800781 9.601562 45.871094 C 19.800781 39.871094 40.335938 35.695312 64 35.695312 C 87.664062 35.695312 108.199219 39.871094 118.398438 45.871094 C 123.382812 48.800781 125.992188 52.296875 125.992188 55.824219 L 125.992188 73.308594 C 125.992188 76.648438 123.382812 79.992188 118.355469 82.765625 C 108.164062 88.390625 87.644531 92.304688 64 92.304688 C 40.355469 92.304688 19.835938 88.390625 9.644531 82.765625 C 4.617188 79.992188 2.007812 76.648438 2.007812 73.308594 Z M 122.476562 55.824219 C 122.476562 54.230469 121.542969 52.75 119.976562 51.316406 C 118.105469 49.601562 115.363281 48.027344 111.933594 46.597656 C 101.121094 42.101562 83.667969 39.210938 64 39.210938 C 44.332031 39.210938 26.878906 42.101562 16.066406 46.597656 C 12.636719 48.027344 9.894531 49.601562 8.023438 51.316406 C 6.457031 52.75 5.523438 54.230469 5.523438 55.824219 C 5.523438 57.417969 6.457031 58.898438 8.023438 60.332031 C 9.894531 62.046875 12.636719 63.621094 16.066406 65.050781 C 26.878906 69.546875 44.332031 72.441406 64 72.441406 C 83.667969 72.441406 101.121094 69.546875 111.933594 65.050781 C 115.363281 63.621094 118.105469 62.046875 119.976562 60.332031 C 121.542969 58.898438 122.476562 57.417969 122.476562 55.824219 Z M 5.523438 62.777344 L 5.523438 73.308594 C 5.523438 74.347656 6.011719 75.335938 6.847656 76.300781 C 7.878906 77.496094 9.40625 78.621094 11.339844 79.691406 C 21.210938 85.136719 41.101562 88.789062 64 88.789062 C 86.898438 88.789062 106.789062 85.136719 116.660156 79.691406 C 118.59375 78.621094 120.121094 77.496094 121.152344 76.300781 C 121.988281 75.335938 122.476562 74.347656 122.476562 73.308594 L 122.476562 62.777344 C 121.371094 63.824219 120.007812 64.832031 118.398438 65.777344 C 108.199219 71.777344 87.664062 75.953125 64 75.953125 C 40.335938 75.953125 19.800781 71.777344 9.601562 65.777344 C 7.992188 64.832031 6.628906 63.824219 5.523438 62.777344 Z M 65.757812 66.433594 L 68.109375 64.917969 C 68.925781 64.390625 70.015625 64.625 70.539062 65.441406 C 71.066406 66.257812 70.828125 67.34375 70.015625 67.871094 L 64.953125 71.132812 C 64.371094 71.503906 63.628906 71.503906 63.046875 71.132812 L 57.984375 67.871094 C 57.171875 67.34375 56.933594 66.257812 57.460938 65.441406 C 57.984375 64.625 59.074219 64.390625 59.890625 64.917969 C 59.890625 64.917969 61.125 65.714844 62.242188 66.433594 L 62.242188 60.714844 C 62.242188 59.746094 63.03125 58.960938 64 58.960938 C 64.96875 58.960938 65.757812 59.746094 65.757812 60.714844 Z M 62.242188 45.214844 L 59.890625 46.734375 C 59.074219 47.257812 57.984375 47.023438 57.460938 46.207031 C 56.933594 45.394531 57.171875 44.304688 57.984375 43.78125 L 63.046875 40.515625 C 63.628906 40.144531 64.371094 40.144531 64.953125 40.515625 L 70.015625 43.78125 C 70.828125 44.304688 71.066406 45.394531 70.539062 46.207031 C 70.015625 47.023438 68.925781 47.257812 68.109375 46.734375 C 68.109375 46.734375 66.875 45.9375 65.757812 45.214844 L 65.757812 50.933594 C 65.757812 51.902344 64.96875 52.6875 64 52.6875 C 63.03125 52.6875 62.242188 51.902344 62.242188 50.933594 Z M 50.480469 57.582031 L 22.039062 57.582031 C 21.066406 57.582031 20.28125 56.792969 20.28125 55.824219 C 20.28125 54.855469 21.066406 54.066406 22.039062 54.066406 L 50.480469 54.066406 L 48.964844 51.714844 C 48.4375 50.898438 48.671875 49.808594 49.488281 49.285156 C 50.304688 48.757812 51.390625 48.996094 51.917969 49.808594 L 55.179688 54.871094 C 55.554688 55.453125 55.554688 56.195312 55.179688 56.777344 L 51.917969 61.839844 C 51.390625 62.652344 50.304688 62.890625 49.488281 62.363281 C 48.671875 61.839844 48.4375 60.75 48.964844 59.9375 C 48.964844 59.9375 49.761719 58.699219 50.480469 57.582031 Z M 77.519531 57.582031 L 79.035156 59.9375 C 79.5625 60.75 79.328125 61.839844 78.511719 62.363281 C 77.695312 62.890625 76.609375 62.652344 76.082031 61.839844 L 72.820312 56.777344 C 72.445312 56.195312 72.445312 55.453125 72.820312 54.871094 L 76.082031 49.808594 C 76.609375 48.996094 77.695312 48.757812 78.511719 49.285156 C 79.328125 49.808594 79.5625 50.898438 79.035156 51.714844 C 79.035156 51.714844 78.238281 52.949219 77.519531 54.066406 L 105.960938 54.066406 C 106.933594 54.066406 107.71875 54.855469 107.71875 55.824219 C 107.71875 56.792969 106.933594 57.582031 105.960938 57.582031 Z M 77.519531 57.582031" fill-rule="evenodd"/></g></svg>