<?xml version="1.0" encoding="UTF-8" standalone="no"?><svg xmlns="http://www.w3.org/2000/svg" xmlns:xlink="http://www.w3.org/1999/xlink" contentScriptType="text/ecmascript" fill="#000000" width="504.7" zoomAndPan="magnify" contentStyleType="text/css" viewBox="3.7 41.2 504.7 426.9" height="426.9" preserveAspectRatio="xMidYMid meet" version="1"><g clip-rule="evenodd" fill-rule="evenodd"><g id="change1_1"><path fill="#ee0033" d="M270.799,52.335l228.4,381.149c9.143,15.258-1.787,34.547-19.574,34.547H32.373 c-17.785,0-28.715-19.289-19.574-34.547l228.4-381.149C247.885,41.18,264.115,41.18,270.799,52.335z"/></g><g id="change2_1"><path fill="#eff4f7" d="M256 91.076L49.654 435.423 462.346 435.423z"/></g><g id="change1_2"><path fill="#ee0033" d="M269.73,329.613c0,18.9-28.768,18.898-28.768,0l-8.828-134.488c0-30.504,46.426-30.506,46.426,0 L269.73,329.613z"/></g><g id="change1_3"><path fill="#ee0033" d="M255.348,400.398c10.193,0,18.51-8.314,18.51-18.51c0-10.194-8.316-18.509-18.51-18.509 c-10.193,0-18.51,8.314-18.51,18.509C236.838,392.084,245.154,400.398,255.348,400.398z"/></g></g></svg>