<?xml version="1.0" encoding="UTF-8" standalone="no"?><svg xmlns="http://www.w3.org/2000/svg" xmlns:xlink="http://www.w3.org/1999/xlink" contentScriptType="text/ecmascript" fill="#d9d9d9" width="480" zoomAndPan="magnify" contentStyleType="text/css" viewBox="16.0 7.8 480.0 496.5" height="496.5" preserveAspectRatio="xMidYMid meet" version="1"><g id="change1_1"><path d="M491.27,112.7l-232-104a8.014,8.014,0,0,0-6.54,0l-232,104A8,8,0,0,0,16,120V392a8,8,0,0,0,4.73,7.3l232,104a7.988,7.988,0,0,0,6.54,0l232-104A8,8,0,0,0,496,392V120A8,8,0,0,0,491.27,112.7ZM248,483.65,32,386.82V132.9l216,96.83Zm8-267.87L42.94,120.27,256,24.77l213.06,95.5ZM480,386.82,264,483.65V229.73L480,132.9Z"/></g></svg>