<?xml version="1.0" encoding="UTF-8" standalone="no"?><svg xmlns="http://www.w3.org/2000/svg" xmlns:xlink="http://www.w3.org/1999/xlink" contentScriptType="text/ecmascript" fill="#ffffff" width="1510" zoomAndPan="magnify" contentStyleType="text/css" viewBox="0.0 -0.1 1510.2 1500.1" height="1500" preserveAspectRatio="xMidYMid meet" version="1"><g data-name="Layer 2"><g id="change1_1" data-name="Layer 1"><path d="M493.93125,1124.46123a18.90793,18.90793,0,0,0,.96064-37.79022c-123.9324-6.401-254.14146-29.17343-357.24635-62.50763a18.91121,18.91121,0,0,0-11.62092,35.99291c107.65946,34.78717,237.9674,57.63309,366.898,64.28057C493.26728,1124.46123,493.58726,1124.46123,493.93125,1124.46123Z"/><path d="M637.63306,1462.18505H293.58279a91.00437,91.00437,0,0,1-52.02006-16.47C113.987,1355.41243,37.8153,1208.461,37.8153,1052.64776c0-194.58851,116.2261-368.89128,296.78256-444.34882,55.83577-23.191,107.48569-50.01331,107.48569-88.94853V143.77491H609.19812a18.90747,18.90747,0,1,0,0-37.81494H380.46276a34.07251,34.07251,0,1,1,0-68.145H751.32335a34.07251,34.07251,0,1,1,0,68.145h-33.604a18.76615,18.76615,0,0,0-4.5136.60287A18.71464,18.71464,0,0,0,689.82546,124.88V519.35041c0,39.20611,51.89715,66.17607,107.92928,89.46593A484.17431,484.17431,0,0,1,989.4631,753.69882a18.9128,18.9128,0,0,0,29.59194-23.5604,522.39114,522.39114,0,0,0-206.74943-156.2325c-76.41748-31.75833-84.66485-48.73339-84.66485-54.55551V143.77491h23.68259A71.88746,71.88746,0,1,0,751.32335,0H380.46276a71.88746,71.88746,0,1,0,0,143.77491h23.80691v375.5755c0,5.73594-8.19793,22.47721-84.91137,54.33407C125.36065,654.7547,0,842.74588,0,1052.64776c0,168.0738,82.12975,326.5465,219.848,424.0373A128.84562,128.84562,0,0,0,293.58279,1500H637.63306a18.90748,18.90748,0,1,0,0-37.81495Z"/><path d="M427.1894,1242.68172a35.74675,35.74675,0,1,0-35.7471-35.7464A35.77528,35.77528,0,0,0,427.1894,1242.68172Zm0-46.28377a10.53684,10.53684,0,1,1-10.53666,10.53737A10.54936,10.54936,0,0,1,427.1894,1196.398Z"/><path d="M189.98557,1191.08053a35.74675,35.74675,0,1,0,35.74639-35.7471A35.77588,35.77588,0,0,0,189.98557,1191.08053Zm46.28376,0a10.537,10.537,0,1,1-10.53737-10.53737A10.54906,10.54906,0,0,1,236.26933,1191.08053Z"/><path d="M427.1894,1413.24223a47.98237,47.98237,0,1,0-47.98183-47.98254A48.02666,48.02666,0,0,0,427.1894,1413.24223Zm0-70.755a22.77264,22.77264,0,1,1-22.77211,22.77246A22.79984,22.79984,0,0,1,427.1894,1342.48723Z"/><path d="M1492.52891,760.174c-47.29314-4.16112-89.78591-6.17953-129.93923-6.17953-167.53274,0-294.9856,36.06637-389.49772,110.16984-91.46,70.435-141.83067,184.446-141.83067,321.00763,0,90.08081,21.2711,186.14407,63.19737,285.50635A18.95539,18.95539,0,0,0,907.113,1481.6094C953.76545,1493.82012,999.01582,1500,1041.55661,1500c150.22568,0,270.21947-74.67,347.00566-216.03232,72.52829-135.23193,113.32157-304.88161,121.19952-504.22176A18.89306,18.89306,0,0,0,1492.52891,760.174Zm-137.2514,505.82164c-48.62249,89.51537-142.51937,196.18946-313.7209,196.18946-36.58342,0-75.53029-4.99779-115.856-14.87013-37.56878-91.58251-56.62405-179.71873-56.62405-262.143,0-124.57236,45.12675-227.92271,127.23107-291.14481,87.7177-68.78533,207.53772-102.21806,366.282-102.21806,33.87526,0,69.54819,1.47733,108.594,4.53019C1461.8287,982.04,1422.8571,1140.02041,1355.27751,1265.99559Z"/><path d="M1305.69438,843.87816c-141.21544,82.3413-230.86432,197.76463-287.357,303.4364-.149-5.86661-.24158-12.02777-.24158-18.34821,0-35.96854,6.30208-75.211,14.99305-93.35475a12.6088,12.6088,0,0,0-22.7488-10.88207c-10.26613,21.46747-17.45468,64.32966-17.45468,104.23682,0,30.08744,1.92764,56.219,2.58808,64.22759a904.05933,904.05933,0,0,0-60.54079,176.3745,12.579,12.579,0,0,0,9.50257,15.06651,12.05881,12.05881,0,0,0,2.78232.32,12.606,12.606,0,0,0,12.28489-9.82289,879.504,879.504,0,0,1,59.3873-172.56091c23.32377-15.94238,162.04438-109.53976,239.31513-133.03482a12.60862,12.60862,0,0,0-7.33618-24.12653c-61.40466,18.671-155.70416,76.783-209.21885,111.66977,54.77624-101.75082,141.26065-212.42639,276.749-291.43795a12.6001,12.6001,0,0,0-12.70446-21.76343Z"/><path d="M864.76783,1449.08751c-164.92276-12.72812-224.50008-119.91891-245.40246-207.53843-10.88137-46.38159-16.39586-96.87521-16.39586-150.10207,0-62.45818,7.60742-130.20976,22.60046-201.67888,72.13344,13.8604,129.07748,31.14344,178.06939,53.965a18.90033,18.90033,0,1,0,15.953-34.26941c-56.00812-26.12127-121.22425-45.25-205.27316-60.2427a18.85,18.85,0,0,0-21.76343,14.45092c-18.19353,80.75024-27.40154,157.36478-27.40154,227.77508,0,56.13138,5.8599,109.52988,17.40594,158.79268,33.70433,141.23946,132.89391,225.264,279.30316,236.56423.49233.02437.98466.04909,1.477.04909a18.91053,18.91053,0,0,0,1.42754-37.7655Z"/><path d="M708.48659,970.346a12.61493,12.61493,0,0,0-20.237,15.06685c42.68984,57.36291,80.972,114.13424,113.78918,168.73919a12.59083,12.59083,0,0,0,10.8079,6.105,12.76453,12.76453,0,0,0,6.49986-1.79732,12.61492,12.61492,0,0,0,4.308-17.30635C790.39455,1085.8587,751.644,1028.398,708.48659,970.346Z"/><path d="M1105.59172,537.96245a41.55685,41.55685,0,1,0-41.55755-41.5572A41.59623,41.59623,0,0,0,1105.59172,537.96245Zm0-57.90361a16.34695,16.34695,0,1,1-16.34782,16.34641A16.36883,16.36883,0,0,1,1105.59172,480.05884Z"/><path d="M1228.24281,611.72122a48.80121,48.80121,0,1,0-48.79414-48.81992A48.86709,48.86709,0,0,0,1228.24281,611.72122Zm0-72.39268a23.5913,23.5913,0,1,1-23.58441,23.57276A23.609,23.609,0,0,1,1228.24281,539.32854Z"/><path d="M1140.82106,602.63646a63.00013,63.00013,0,1,0,63.00031,63.00031A63.07775,63.07775,0,0,0,1140.82106,602.63646Zm0,100.79053a37.79023,37.79023,0,1,1,37.79058-37.79022A37.85072,37.85072,0,0,1,1140.82106,703.427Z"/></g></g></svg>