<?xml version="1.0" encoding="UTF-8" standalone="no"?><svg xmlns="http://www.w3.org/2000/svg" xmlns:xlink="http://www.w3.org/1999/xlink" contentScriptType="text/ecmascript" zoomAndPan="magnify" contentStyleType="text/css" version="1" width="496" stroke-miterlimit="2" clip-rule="evenodd" fill="#000000" preserveAspectRatio="xMidYMid meet" viewBox="7.0 20.3 496.0 469.4" height="469" stroke-linejoin="round" fill-rule="evenodd"><g id="change1_1"><path fill="#f9f9f9" d="M402.147,340.536C398.121,338.722 396.325,333.981 398.139,329.956C399.952,325.93 404.693,324.134 408.719,325.948L498.286,366.298C501.155,367.59 503,370.445 503,373.592C503,376.739 501.155,379.593 498.286,380.886L258.286,489.006C256.196,489.948 253.804,489.948 251.714,489.006L11.714,380.886C8.845,379.593 7,376.739 7,373.592C7,370.445 8.845,367.59 11.714,366.298L101.281,325.948C105.307,324.134 110.048,325.93 111.861,329.956C113.675,333.981 111.879,338.722 107.853,340.536L34.477,373.592C87.871,397.646 255,472.938 255,472.938L475.523,373.592L402.147,340.536ZM7,210.818C7,208.09 8.389,205.565 10.658,204.099C10.995,203.881 11.348,203.689 11.714,203.524L63.867,180.029C67.893,178.215 72.634,180.011 74.447,184.037C76.261,188.063 74.465,192.803 70.439,194.617L34.477,210.818L255,310.164L475.523,210.818L439.561,194.617C435.535,192.803 433.739,188.063 435.553,184.037C437.366,180.011 442.107,178.215 446.133,180.029L498.286,203.524C498.652,203.689 499.005,203.881 499.342,204.099C501.611,205.565 503,208.09 503,210.818L503,265.472C503,268.618 501.155,271.473 498.286,272.766L258.286,380.886C256.197,381.827 253.803,381.827 251.714,380.886L11.714,272.766C8.845,271.473 7,268.618 7,265.472L7,210.818ZM487,223.196L263,324.109L263,361.214C263,361.214 487,260.301 487,260.301L487,223.196ZM247,324.109L23,223.196L23,260.301C55.662,275.016 247,361.214 247,361.214L247,324.109ZM251.714,251.822L11.714,143.702C8.845,142.41 7,139.555 7,136.408C7,133.261 8.845,130.407 11.714,129.114L251.714,20.994C253.804,20.052 256.196,20.052 258.286,20.994L498.286,129.114C501.155,130.407 503,133.261 503,136.408C503,139.555 501.155,142.41 498.286,143.702L258.286,251.822C256.196,252.764 253.804,252.764 251.714,251.822ZM295.523,109.378L255,91.122L214.477,109.378L255,127.634L295.523,109.378ZM315,208.724L355.523,190.468L315,172.212L274.477,190.468L315,208.724ZM375,181.694L415.523,163.438L375,145.182L334.477,163.438L375,181.694ZM435,154.664L475.523,136.408L435,118.152L394.477,136.408L435,154.664ZM75,118.152L34.477,136.408L75,154.664L115.523,136.408L75,118.152ZM415.523,109.378L375,91.122L334.477,109.378L375,127.634L415.523,109.378ZM355.523,82.348L315,64.092L274.477,82.348L315,100.604L355.523,82.348ZM154.477,136.408L195,154.664L235.523,136.408L195,118.152L154.477,136.408ZM135,91.122L94.477,109.378L135,127.634L175.523,109.378L135,91.122ZM214.477,163.438L255,181.694L295.523,163.438L255,145.182L214.477,163.438ZM195,64.092L154.477,82.348L195,100.604L235.523,82.348L195,64.092ZM94.477,163.438L135,181.694L175.523,163.438L135,145.182L94.477,163.438ZM315,154.664L355.523,136.408L315,118.152L274.477,136.408L315,154.664ZM295.523,55.318L255,37.062L214.477,55.318L255,73.574L295.523,55.318ZM154.477,190.468L195,208.724L235.523,190.468L195,172.212L154.477,190.468ZM214.477,217.498L255,235.754L295.523,217.498L255,199.243L214.477,217.498Z"/></g></svg>